<svg width="50" height="50" viewBox="0 0 50 50" fill="none" xmlns="http://www.w3.org/2000/svg">
<path d="M0.0968644 2.43205L15.4481 48.7472C15.5716 49.1132 15.8068 49.431 16.1206 49.6558C16.4344 49.8806 16.8108 50.001 17.1967 50C17.5975 49.9826 17.9817 49.8345 18.2907 49.5785C18.5997 49.3224 18.8166 48.9723 18.9085 48.5814L24.6514 24.7422L48.5802 19.0679C48.9678 18.9768 49.3154 18.7624 49.571 18.4568C49.8265 18.1512 49.9762 17.771 49.9975 17.373C50.0184 16.9713 49.9074 16.5737 49.6814 16.2411C49.4554 15.9084 49.1268 15.6589 48.7458 15.5307L2.41611 0.0923413C2.09136 -0.0146337 1.74327 -0.0289708 1.41084 0.0509367C1.0784 0.130844 0.774778 0.301838 0.533988 0.544753C0.293197 0.787669 0.124759 1.0929 0.0475516 1.42625C-0.0296554 1.75959 -0.0125805 2.10787 0.0968644 2.43205Z" fill="url(#paint0_linear_19_19)"/>
<defs>
<linearGradient id="paint0_linear_19_19" x1="4.94958" y1="-2.43339" x2="29.2809" y2="41.9831" gradientUnits="userSpaceOnUse">
<stop stop-color="white"/>
<stop offset="1" stop-color="#002147"/>
</linearGradient>
</defs>
</svg>
