<svg width="79" height="61" viewBox="0 0 79 61" fill="none" xmlns="http://www.w3.org/2000/svg">
<path fill-rule="evenodd" clip-rule="evenodd" d="M6.69615 2.59808L8.19615 5.19615L10.7942 3.69615L13.3923 2.19615L14.8923 4.79423L16.3923 7.3923L18.9904 5.8923L21.5885 4.3923L23.0885 6.99038L24.5885 9.58846L27.1865 8.08846L29.7846 6.58846L31.2846 9.18653L32.7846 11.7846L35.3827 10.2846L37.9808 8.78461L39.4808 11.3827L40.9808 13.9808L43.5788 12.4808L46.1769 10.9808L47.6769 13.5788L49.1769 16.1769L51.775 14.6769L54.3731 13.1769L55.8731 15.775L57.3731 18.3731L59.9711 16.8731L62.5692 15.3731L64.0692 17.9711L65.5692 20.5692L57.775 25.0692L49.9808 29.5692L52.9808 34.7654L55.9808 39.9615L58.5788 38.4615L61.1769 36.9615L64.1769 42.1577L67.1769 47.3538L69.775 45.8538L72.3731 44.3538L75.3731 49.55L78.3731 54.7461L73.1769 57.7461L67.9808 60.7461L64.9808 55.55L61.9808 50.3538L59.3827 51.8538L56.7846 53.3538L53.7846 48.1577L50.7846 42.9615L48.1865 44.4615L45.5885 45.9615L44.0885 43.3634L42.5885 40.7654L39.9904 42.2654L37.3923 43.7654L38.8923 46.3634L40.3923 48.9615L37.7942 50.4615L35.1962 51.9615L36.6962 54.5596L38.1962 57.1577L35.5981 58.6577L33 60.1577L16.5 31.5788L0 3L2.59808 1.5L5.19615 0L6.69615 2.59808Z" fill="#464981"/>
</svg>
