<svg width="70" height="20" viewBox="0 0 70 20" fill="none" xmlns="http://www.w3.org/2000/svg">
<rect width="70" height="20" rx="10" fill="white" fill-opacity="0.3"/>
<path d="M30.2695 6.59528L27.2959 15.2222H25.498L29.2441 5.2691H30.3926L30.2695 6.59528ZM32.7578 15.2222L29.7773 6.59528L29.6474 5.2691H30.8027L34.5625 15.2222H32.7578ZM32.6142 11.5308V12.8912H27.2002V11.5308H32.6142ZM37.167 9.23395V15.2222H35.5195V7.82574H37.0918L37.167 9.23395ZM39.4297 7.77789L39.416 9.30914C39.3157 9.29091 39.2064 9.27724 39.0879 9.26813C38.9739 9.25901 38.86 9.25446 38.7461 9.25446C38.4635 9.25446 38.2152 9.29547 38.001 9.3775C37.7868 9.45498 37.6068 9.56891 37.4609 9.7193C37.3196 9.86513 37.2103 10.0429 37.1328 10.2525C37.0553 10.4621 37.0097 10.6968 36.9961 10.9566L36.6201 10.9839C36.6201 10.5191 36.6657 10.0884 36.7568 9.69196C36.848 9.29547 36.9847 8.94684 37.167 8.64606C37.3538 8.34528 37.5862 8.11058 37.8642 7.94196C38.1468 7.77334 38.4726 7.68903 38.8418 7.68903C38.942 7.68903 39.0491 7.69814 39.1631 7.71637C39.2816 7.7346 39.3704 7.75511 39.4297 7.77789ZM44.1943 7.82574V9.02887H40.0244V7.82574H44.1943ZM41.2275 6.01422H42.875V13.1783C42.875 13.4061 42.9069 13.5816 42.9707 13.7047C43.039 13.8231 43.1325 13.9029 43.251 13.9439C43.3694 13.9849 43.5084 14.0054 43.668 14.0054C43.7819 14.0054 43.8913 13.9986 43.9961 13.9849C44.1009 13.9713 44.1852 13.9576 44.249 13.9439L44.2558 15.2017C44.1191 15.2427 43.9596 15.2792 43.7773 15.3111C43.5996 15.343 43.3945 15.3589 43.1621 15.3589C42.7838 15.3589 42.4489 15.2929 42.1572 15.1607C41.8655 15.024 41.6377 14.803 41.4736 14.4976C41.3096 14.1923 41.2275 13.7867 41.2275 13.2808V6.01422Z" fill="black"/>
</svg>
