<svg width="207" height="128" viewBox="0 0 207 128" fill="none" xmlns="http://www.w3.org/2000/svg">
<path d="M159.24 16.5H48.4099V80.04H159.24V16.5Z" fill="#E11B43"/>
<path d="M32.59 16.61H16.76V80.08H32.59V16.61Z" fill="#668632"/>
<path d="M190.91 16.61H175.08V80.08H190.91V16.61Z" fill="#668632"/>
<path d="M48.3199 80.08H32.5898V95.81H48.3199V80.08Z" fill="#668632"/>
<path d="M175.03 80.02H159.3V95.75H175.03V80.02Z" fill="#668632"/>
<path d="M159.24 95.8H48.4199V111.66H159.24V95.8Z" fill="#668632"/>
<path d="M48.43 0.880005H16.76V16.71H48.43V0.880005Z" fill="#22510C"/>
<path d="M16.7299 16.61H0.899902V80.05H16.7299V16.61Z" fill="#22510C"/>
<path d="M206.74 16.5H190.91V79.94H206.74V16.5Z" fill="#22510C"/>
<path d="M32.59 80.05H16.76V95.88H32.59V80.05Z" fill="#22510C"/>
<path d="M159.25 111.66H48.3999V127.49H159.25V111.66Z" fill="#22510C"/>
<path d="M175.08 95.83H159.25V111.66H175.08V95.83Z" fill="#22510C"/>
<path d="M190.9 79.97H175.07V95.8H190.9V79.97Z" fill="#22510C"/>
<path d="M48.3998 95.83H32.5698V111.66H48.3998V95.83Z" fill="#22510C"/>
<path d="M143.41 32.39H127.58V48.22H143.41V32.39Z" fill="black"/>
<path d="M111.74 32.39H95.9099V48.22H111.74V32.39Z" fill="black"/>
<path d="M80.07 32.39H64.24V48.22H80.07V32.39Z" fill="black"/>
<path d="M48.3998 16.5H32.5698V80.07H48.3998V16.5Z" fill="#22510C"/>
<path d="M175.08 16.37H159.25V79.94H175.08V16.37Z" fill="#22510C"/>
<path d="M159.24 80.05H48.4199V95.88H159.24V80.05Z" fill="#22510C"/>
<path d="M190.92 0.799988H159.25V16.63H190.92V0.799988Z" fill="#22510C"/>
<path d="M159.24 0.880005H48.4199V16.63H159.24V0.880005Z" fill="#771535"/>
</svg>
