<svg width="198" height="102" viewBox="0 0 198 102" fill="none" xmlns="http://www.w3.org/2000/svg">
<path d="M61.8913 70.4671C57.1692 68.2212 52.0583 66.3928 48.0488 62.8368C45.5437 60.6197 41.9877 57.0781 38.734 56.4518C34.415 55.6528 29.5705 56.0847 25.201 55.9047C23.9147 55.9288 22.6353 55.7115 21.4291 55.2641C19.4855 54.4003 18.233 52.4423 16.8221 50.8011C13.6476 47.1299 10.1996 46.3165 5.63577 47.641C3.73765 48.145 2.08905 49.3252 1 50.9594C2.87878 50.0093 5.10309 50.182 7.11864 50.7507C9.1342 51.3194 11.0346 52.2552 13.0501 52.8022C15.7397 53.5242 18.5689 53.5489 21.2707 52.8742C23.9845 52.2048 25.5898 50.11 27.8788 48.5552C32.5434 45.3735 38.5469 45.3087 43.9313 45.4815C46.1556 45.5535 48.1568 46.0214 50.3523 45.4383C53.3684 44.6465 54.0666 43.4443 55.5927 41.0185C54.8729 42.1846 53.2388 42.0838 51.8999 42.0263C50.3408 41.9276 48.7808 42.2041 47.3505 42.8325C45.4142 43.7611 43.2978 46.6404 42.578 48.7495C41.9085 50.6931 43.1611 52.8958 44.8743 53.918C46.5875 54.9402 48.639 55.0626 50.633 55.1633L65.0298 55.9264C69.4136 56.1567 74.215 53.9468 78.0373 51.9456C83.2778 49.1958 87.8488 45.4671 93.0532 42.7317C101.31 38.4126 110.142 34.9934 117.708 29.5226C125.273 24.0518 131.961 17.1629 140.023 12.6999C145.818 9.48222 152.303 7.88419 158.739 6.41572C166.7 4.56573 174.791 2.73014 182.947 1.29045C185.776 0.800963 198.395 0.1819 194.709 6.32934C192.614 9.80617 185.891 12.3112 182.472 14.3052C175.763 18.2355 171.782 26.2329 164.865 29.5082C160.941 31.3654 156.421 31.0415 152.224 32.0564C148.463 32.9895 145.036 34.9511 142.326 37.7216C140.965 39.1991 139.388 40.4612 137.647 41.4648C136.762 41.9326 133.746 43.3508 132.904 42.343C132.061 41.3352 133.803 40.3202 134.516 39.9675C136.166 39.2441 138.01 39.0921 139.756 39.5356C138.992 41.0287 137.822 42.2762 136.38 43.1348C133.724 44.8192 131.543 45.8918 129.225 48.1737C126.875 50.5609 124.999 53.3724 123.697 56.459C121.811 60.6917 120.465 65.1763 118.348 69.2866C116.124 73.6056 112.892 78.4718 108.897 81.1928C108.12 81.6613 107.381 82.1909 106.687 82.7764C105.918 83.6078 105.256 84.5315 104.715 85.5262C103.124 88.0816 101.015 90.925 98.56 92.6454C97.6026 93.3148 96.5084 93.5092 95.587 94.2435C94.5873 95.1926 93.7052 96.2584 92.9596 97.4179C92.1189 98.6688 91.0098 99.7164 89.7131 100.484C89.0696 100.853 88.3344 101.03 87.5937 100.996C86.853 100.961 86.1375 100.717 85.5309 100.29C85.1477 99.9948 84.8905 99.5652 84.811 99.088C84.7957 98.622 84.9103 98.1609 85.1422 97.7563C85.5525 96.8997 86.3155 96.187 86.697 95.3592C87.0785 94.5314 87.0785 93.4012 87.3737 92.4798C88.1076 90.435 89.0737 88.4811 90.253 86.6564C93.3289 81.5634 96.7615 76.6947 100.525 72.0868C103.253 68.7467 106.68 65.3059 110.876 65.4067C111.09 65.3883 111.306 65.4146 111.509 65.484C111.712 65.5534 111.899 65.6643 112.057 65.8098C112.261 66.0886 112.376 66.4221 112.388 66.7672C112.647 69.5314 110.992 72.1084 109.055 74.0016C106.294 76.6598 102.819 78.458 99.0539 79.1776C95.2889 79.8971 91.396 79.5068 87.8488 78.0543C85.7756 77.1689 83.8393 75.8947 81.6797 75.2469C79.7362 74.6566 78.0805 75.2469 76.1154 74.959C71.182 74.1564 66.3909 72.6433 61.8913 70.4671Z" stroke="black" stroke-linecap="round" stroke-linejoin="round"/>
<path d="M111.949 78.7091C116.124 79.7888 119.544 78.1044 123.524 77.4997C127.505 76.8951 131.651 77.6077 135.682 77.255C141.722 76.7295 147.2 73.735 152.347 70.5173C159.69 65.9069 166.235 60.1328 171.725 53.4211C175.598 48.6917 179.643 43.7248 183.113 38.7003C185.956 34.6332 189.346 30.3574 191.794 25.9736C192.852 24.0948 193.234 22.0001 194.148 20.1141C195.062 18.2281 196.581 16.9611 197.027 14.816C197.257 13.5652 197.359 12.294 197.33 11.0225C197.33 9.53962 196.307 8.76938 195.17 7.86238C194.832 7.58884 194.371 7.76162 194.241 7.33691" stroke="black" stroke-linecap="round" stroke-linejoin="round"/>
</svg>
