<svg width="202" height="102" viewBox="0 0 202 102" fill="none" xmlns="http://www.w3.org/2000/svg">
<path d="M31.598 40.236C32.3736 43.614 35.5577 45.6653 38.4764 47.3798C48.4675 53.0642 65.7555 60.4937 69.1743 72.6484C70.797 78.4246 77.2774 80.0167 78.9511 85.1704C79.7471 87.6197 78.7572 90.5691 80.0737 92.7633C82.7169 97.172 86.6766 101.07 78.3082 100.999C72.9912 100.999 67.1638 98.6722 62.3877 96.4168C52.6824 91.8346 44.2323 84.4765 37.5171 75.8733C33.9452 71.3013 30.7203 66.1476 29.8631 60.3101C29.0058 54.4726 31.0673 47.8391 35.9863 45.0019C40.6502 42.2669 46.6714 43.5119 51.2026 46.4919C56.4584 49.9515 59.8262 55.3604 64.3165 59.6875C68.8069 64.0146 74.0933 66.5864 79.6247 68.6989C85.8313 70.9767 92.2004 72.7847 98.6781 74.1077C119.926 78.8226 141.755 81.3638 162.799 74.2302C170.361 71.6584 177.301 67.4947 184.822 64.8208C186.95 63.9118 189.192 63.2972 191.486 62.9941C194.742 62.79 197.385 65.7495 200.671 65.4229C200.385 60.8203 194.18 58.5955 190.7 57.6668C185.05 56.3363 179.139 56.612 173.637 58.4629C172.638 58.7134 171.7 59.1648 170.881 59.7896C170.467 60.1193 170.143 60.5488 169.939 61.0378C169.736 61.5268 169.66 62.0594 169.718 62.5858C169.87 63.1963 170.206 63.7452 170.681 64.1579C171.155 64.5706 171.746 64.827 172.371 64.8923C177.321 65.5454 185.638 61.1163 186.322 55.6462C187.067 49.1147 179.627 47.2267 175.239 45.0121C167.075 40.9299 161.595 32.9493 155.369 26.3362C131.315 0.822685 75.767 -12.2607 51.468 20.4681C46.1101 27.6935 38.5887 41.1749 28.8017 40.1442C21.066 39.3175 13.1772 36.5519 5.32928 35.6946C-3.55963 34.7353 3.28819 21.6316 7.71734 18.9782C15.1877 14.4572 26.3422 15.1919 34.0473 18.0903C51.1312 24.5299 60.3262 43.0935 74.6036 53.7071C80.4921 58.0852 87.0848 61.2592 93.7081 64.2698C101.413 67.7804 108.577 71.4135 117.252 70.7298C120.007 70.5256 122.926 69.8521 124.814 67.7498C126.702 65.6475 126.855 61.7082 124.518 60.1672C122.181 58.6262 119.058 60.3611 118.201 62.9634C117.344 65.5658 118.385 68.5356 120.171 70.5563C122.054 72.4571 124.267 73.9995 126.702 75.1079C132.683 78.2614 138.643 82.7415 144.919 85.1398C149.368 86.8339 154.665 89.222 157.9 92.998C161.135 96.774 162.799 100.234 168.544 98.7028C175.27 96.9067 174.117 90.2731 174.872 84.5887C175.178 82.2517 175.698 79.6901 175.178 77.3531C174.453 74.1588 171.351 73.6587 169.167 71.8932" stroke="black" stroke-miterlimit="10"/>
</svg>
