<svg width="159" height="203" viewBox="0 0 159 203" fill="none" xmlns="http://www.w3.org/2000/svg">
<path d="M15.0498 101.37V173.35H29.4398V187.74H87.0198V173.35H115.81V158.95H130.2V86.98H115.81V72.58H43.8298V86.98H29.4398V101.37H15.0498Z" fill="#FFE64B"/>
<path d="M101.41 15V29.4H115.81V43.79H130.2V58.19H144.6V29.4H130.2V15H101.41Z" fill="#C1E436"/>
<path d="M115.8 15.01H101.41V29.4H115.8V15.01Z" fill="#9CB72C"/>
<path d="M130.2 29.4H115.81V43.79H130.2V29.4Z" fill="#9CB72C"/>
<path d="M144.59 43.79H130.2V58.18H144.59V43.79Z" fill="#9CB72C"/>
<path d="M43.83 115.77H29.4399V158.95H43.83V115.77Z" fill="#D1BD4A"/>
<path d="M58.22 158.95H43.8301V173.34H58.22V158.95Z" fill="#D1BD4A"/>
<path d="M87.02 187.74H29.4399V202.13H87.02V187.74Z" fill="#AF9F3C"/>
<path d="M115.81 173.34H87.02V187.73H115.81V173.34Z" fill="#AF9F3C"/>
<path d="M130.2 158.95H115.81V173.34H130.2V158.95Z" fill="#AF9F3C"/>
<path d="M29.4398 173.34H15.0498V187.73H29.4398V173.34Z" fill="#AF9F3C"/>
<path d="M15.0399 101.37H0.649902V173.34H15.0399V101.37Z" fill="#AF9F3C"/>
<path d="M144.59 86.98H130.2V158.95H144.59V86.98Z" fill="#AF9F3C"/>
<path d="M130.2 72.58H115.81V86.97H130.2V72.58Z" fill="#22510C"/>
<path d="M144.59 58.19H130.2V72.58H144.59V58.19Z" fill="#22510C"/>
<path d="M29.4398 86.98H15.0498V101.37H29.4398V86.98Z" fill="#AF9F3C"/>
<path d="M43.83 72.58H29.4399V86.97H43.83V72.58Z" fill="#AF9F3C"/>
<path d="M115.8 58.19H43.8301V72.58H115.8V58.19Z" fill="#AF9F3C"/>
<path d="M144.59 15.01H130.2V29.4H144.59V15.01Z" fill="#22510C"/>
<path d="M115.8 29.4H101.41V43.79H115.8V29.4Z" fill="#22510C"/>
<path d="M158.99 29.4H144.6V58.19H158.99V29.4Z" fill="#22510C"/>
<path d="M130.2 43.79H115.81V58.18H130.2V43.79Z" fill="#22510C"/>
<path d="M87.02 0.609985V15V29.4H101.41V15H130.2V0.609985H87.02Z" fill="#22510C"/>
</svg>
