<svg width="70" height="102" viewBox="0 0 70 102" fill="none" xmlns="http://www.w3.org/2000/svg">
<path d="M64.1026 18.5613C64.0389 17.9053 63.767 17.2869 63.3265 16.7966C63.0284 16.3632 62.8996 15.8355 62.9644 15.3135C62.9644 13.4798 63.2863 11.5828 62.3895 9.91576C61.9059 9.00109 61.1398 8.26715 60.2051 7.82334C60.6971 8.94728 61.1232 10.0989 61.4813 11.2724C61.7488 12.3271 62.1184 13.3533 62.585 14.3363C65.0223 18.8373 67.5113 12.9624 68.3621 10.4101C68.8682 8.86104 69.0433 7.22292 68.876 5.60187C68.7086 3.98082 68.2026 2.413 67.3906 1C67.9211 3.58024 68.1487 6.21357 68.0689 8.84657C67.977 10.5079 68.1092 12.1691 67.885 13.8247C67.6331 15.3364 67.0946 16.7861 66.2985 18.0957C64.2923 21.4298 61.4468 23.6027 58.3944 25.2985C55.9514 26.5171 52.2724 26.8103 51.0077 23.7636C49.9558 21.4183 51.1514 18.8085 50.0995 16.4632C49.243 14.6869 47.8001 13.589 46.9149 11.8645C46.3745 10.847 45.3341 8.34644 45.6043 7.17377C45.2712 8.93902 45.408 10.7608 46.0009 12.4565C46.4214 13.7897 47.1706 14.9956 48.1795 15.9631C49.1567 16.9058 50.4329 17.3024 51.3526 18.3314C51.9792 19.2626 52.1976 20.4411 52.4161 21.8552C52.6345 23.2693 53.4738 24.6661 54.9051 24.6489C55.1714 24.5688 55.4086 24.4132 55.5882 24.201C55.7678 23.9888 55.8819 23.729 55.9169 23.4532C55.9368 22.1845 56.0598 20.9195 56.2847 19.6708C56.2847 19.4351 56.6871 19.1937 56.6871 19.1937C57.7218 19.8835 57.9403 21.2976 58.3657 22.4702C58.7479 23.9359 59.0397 25.4237 59.2394 26.9252C59.3161 27.4234 59.385 27.9236 59.4464 28.4256C59.5326 28.9314 59.6246 29.4373 59.7165 29.9431C59.8085 30.449 59.9005 30.9549 59.9867 31.4665C60.2109 32.9208 60.4466 34.3407 60.6708 35.8122C60.78 36.5308 60.8835 37.2551 60.9812 37.9736C61.1077 39.0084 61.2054 40.0488 61.2743 41.0893C61.3088 41.6066 61.3376 42.124 61.3663 42.6471C61.6814 48.4127 61.1762 54.1939 59.866 59.8175C59.6878 60.6051 59.4924 61.3926 59.2912 62.1744C58.2507 66.6351 56.6986 70.8832 55.8421 75.3957C54.9741 79.7989 55.1236 84.731 55.3822 89.2263C55.5604 92.3821 55.5834 95.7622 56.5319 98.7571C56.7596 99.2897 57.1192 99.7555 57.5768 100.111C58.0345 100.466 58.575 100.698 59.1475 100.786C61.2744 101.011 59.2394 97.9983 58.837 97.2166C57.923 95.492 58.015 93.2789 57.3194 91.3589C55.5949 86.5993 52.4103 82.7363 49.2717 79.2068C45.0696 74.5047 41.6493 70.1646 35.6365 68.693C30.1191 67.43 24.3281 68.3007 19.4261 71.1304C16.2185 72.9181 12.6027 75.1887 10.4126 78.5113C9.1537 80.4198 8.3719 82.6444 7.23947 84.5988C6.02081 86.7085 4.73895 88.7377 3.64101 90.9221C2.62354 92.9685 1.15194 95.4403 1.00248 97.8201C0.927753 99.1308 2.55455 101.924 3.95141 100.694C4.02421 100.598 4.07653 100.487 4.10519 100.369C4.13385 100.252 4.13824 100.13 4.1181 100.01C3.98589 96.2623 4.53775 92.6351 5.07235 88.9676C5.75641 84.3689 4.02613 80.2703 6.1013 75.9188C7.48092 73.0446 8.53286 69.7048 7.88904 66.5029C7.49815 64.5657 6.64739 62.6572 6.08979 60.72C5.37699 58.2482 5.78513 56.472 5.87711 53.9714C5.92309 52.7183 5.68741 50.804 4.37103 50.5626C2.5143 50.2234 1.30139 53.0172 2.89369 54.3566C3.76745 55.0924 5.03784 54.5175 5.80237 53.638C7.14175 52.0859 7.42345 49.8671 8.56163 48.1828C9.8725 46.3257 11.6597 44.8562 13.7352 43.929C14.3794 43.6387 15.0441 43.3966 15.7241 43.2047C21.6737 41.4802 27.9337 43.9002 33.843 45.78L35.8665 46.5157C39.245 47.8129 42.7007 48.8995 46.2136 49.7694C48.8578 50.3787 51.2089 48.6197 51.962 45.6535C52.4218 43.8657 52.1574 42.0033 51.916 40.204C51.709 38.6692 51.1572 36.2721 51.8183 34.8005C52.3931 33.4726 53.9107 34.9213 52.6288 36.1054C51.5941 37.0539 49.8063 37.4448 48.5244 37.462C46.271 37.4965 42.983 36.3698 42.9427 33.0703C42.9427 32.4379 47.0528 30.5065 47.6162 30.1961C49.3407 29.2188 50.7778 28.1266 52.6288 27.5001" stroke="black" stroke-linecap="round" stroke-linejoin="round"/>
</svg>
