<svg width="143" height="223" viewBox="0 0 143 223" fill="none" xmlns="http://www.w3.org/2000/svg">
<path d="M63.7 48.71H32.03V32.73H16.2V16.66H47.86V32.49H63.7V48.71Z" fill="#C1E436"/>
<path d="M16.2 111.66V190.83H32.03V206.66H111.2V190.83H127.03V111.66H111.2V95.83H32.03V111.66H16.2Z" fill="#FF9933"/>
<path d="M47.86 127.5H32.03V175H47.86V127.5Z" fill="#BC6A20"/>
<path d="M63.6899 175H47.8599V190.83H63.6899V175Z" fill="#BC6A20"/>
<path d="M47.86 32.49H32.03V48.71H47.86V32.49Z" fill="#9CB72C"/>
<path d="M32.03 16.28H16.2V32.5H32.03V16.28Z" fill="#9CB72C"/>
<path d="M16.2 111.66H32.03V95.83H16.2V111.66Z" fill="#8E4819"/>
<path d="M16.2 206.66H32.03V190.83H16.2V206.66Z" fill="#8E4819"/>
<path d="M111.2 206.66H127.03V190.83H111.2V206.66Z" fill="#8E4819"/>
<path d="M111.2 111.66H127.03V95.83H111.2V111.66Z" fill="#8E4819"/>
<path d="M0.369949 190.83H16.2L16.2 111.66H0.369949L0.369949 190.83Z" fill="#8E4819"/>
<path d="M127.03 190.83H142.86V111.66H127.03L127.03 190.83Z" fill="#8E4819"/>
<path d="M32.03 79.99V95.82H111.2V79.99H32.03Z" fill="#8E4819"/>
<path d="M32.03 206.66V222.49H111.2V206.66H32.03Z" fill="#8E4819"/>
<path d="M63.6899 16.66H47.8599V32.49H63.6899V16.66Z" fill="#22510C"/>
<path d="M16.1899 16.66H0.359863V32.49H16.1899V16.66Z" fill="#22510C"/>
<path d="M63.7 48.48H32.03V64.31H63.7V48.48Z" fill="#22510C"/>
<path d="M63.7 80H79.53V32.5H63.7L63.7 80Z" fill="#22510C"/>
<path d="M32.03 32.49H16.2V48.32H32.03V32.49Z" fill="#22510C"/>
<path d="M47.8599 0.829956H0.359863V16.66H47.8599V0.829956Z" fill="#22510C"/>
</svg>
