<svg width="119" height="102" viewBox="0 0 119 102" fill="none" xmlns="http://www.w3.org/2000/svg">
<path d="M67.3322 99.0656C66.855 99.2135 66.3666 99.3225 65.8717 99.3914C65.3913 99.4608 64.907 99.4994 64.4217 99.507C56.2679 99.6646 48.1352 99.8957 39.9604 99.6331C36.3091 99.5122 19.6601 101.277 19.0191 95.1989C18.9762 94.3757 19.2465 93.5667 19.7757 92.9346C21.3045 90.9487 23.9786 90.4916 26.306 89.7824C28.6334 89.0731 31.2393 87.5916 31.4757 85.054C31.6543 83.0576 30.2936 81.3239 29.1851 79.69C26.5177 75.7071 24.9899 71.0709 24.7667 66.2825C24.8019 65.5587 24.6594 64.8372 24.3516 64.181C23.5321 62.8203 21.6302 63.0042 20.1119 63.2459C16.6156 63.8038 13.0512 63.7807 9.56245 63.1776C6.07924 62.5786 2.20726 60.908 1.22481 57.3565C0.0532361 53.101 3.68355 49.1975 6.95661 46.3815C12.2103 41.8685 18.0997 37.1139 24.8875 37.3188C28.059 26.0155 33.4589 15.4605 40.7695 6.27464C42.1827 4.50414 44.8936 1.84051 46.517 5.12408C47.6781 7.47249 45.6764 11.5914 44.7623 13.6929C44.1161 15.1902 39.2879 27.5469 36.8239 22.8974C35.4948 20.3861 41.0269 14.0764 42.5032 12.2429C45.4732 8.52777 48.9728 5.26897 52.8898 2.57078C54.6603 1.35192 57.0928 0.280168 58.7529 1.61986C59.8037 2.43419 60.1241 3.87896 60.2712 5.21866C61.2957 14.4389 57.3502 24.2738 53.3048 32.2752C51.6234 35.4832 49.7642 38.5947 47.7359 41.5954C45.8603 44.4534 44.1949 47.863 41.4577 49.9435C40.6486 50.5634 39.5401 51.031 38.6102 50.3795C37.1024 49.3288 37.922 47.1065 38.999 46.0873C41.3369 43.8755 44.7045 43.3343 47.5363 42.1365C52.0877 40.2696 56.852 38.9709 61.7213 38.2697C77.1409 35.8898 99.8527 38.7216 106.619 56.3057C108.064 60.0726 108.348 64.491 111.442 67.3385C112.53 68.3367 114.022 68.9672 115.435 68.6519C118.251 68.0215 118.74 63.8605 116.444 62.2582C115.834 61.8471 115.104 61.6526 114.37 61.706C113.637 61.7593 112.942 62.0574 112.399 62.5524C111.516 63.3825 111.127 64.6539 110.891 65.857C109.787 71.5783 110.449 77.3206 108.464 82.8842C106.551 88.2378 103.21 93.7331 98.5918 96.9169C83.356 107.361 57.1926 96.9484 63.1976 75.0194C65.0784 68.1581 70.5055 61.7013 77.682 61.4701" stroke="black" stroke-linecap="round" stroke-linejoin="round"/>
</svg>
