<svg width="150" height="102" viewBox="0 0 150 102" fill="none" xmlns="http://www.w3.org/2000/svg">
<path d="M3.30605 47.1845C5.70791 50.133 9.62764 50.4587 12.8844 49.1443C20.1598 46.2074 26.2604 38.3738 28.3366 30.6157C29.0112 28.1324 29.4299 25.5619 29.9417 23.0554C30.0406 22.5494 30.1511 22.0434 30.2616 21.5433C31.2095 15.2275 33.8964 8.90589 39.113 5.10828C39.5821 4.74904 40.0714 4.41701 40.5785 4.11381C42.1467 3.17524 43.8765 2.53814 45.6788 2.23535C46.1557 2.07833 46.6268 1.93293 47.1037 1.81081C47.5806 1.68868 48.0633 1.58981 48.5518 1.51421C49.0403 1.43861 49.5288 1.38045 50.0232 1.33974C51.6161 0.997597 53.2537 0.913167 54.8734 1.08967C55.4026 1.14782 55.926 1.22343 56.4436 1.30485C61.416 1.70613 66.115 3.99168 70.3197 7.00418C70.6919 7.23681 71.0467 7.47524 71.3957 7.70787C73.1403 8.871 74.6873 9.86548 76.8158 10.0632C79.58 10.2469 82.3562 10.1005 85.0857 9.62704C97.7929 7.73113 111.611 8.6849 122.102 16.4139C126.935 19.9789 130.756 22.6715 133.187 28.557C136.356 36.2278 135.187 42.8751 132.919 50.4354C132.413 52.1278 131.756 53.7969 131.663 55.5648C131.274 61.7527 137.543 64.9571 140.968 68.9408C144.775 73.3847 147.469 78.6717 148.825 84.3639C148.979 84.8584 149.019 85.3813 148.942 85.8934C148.72 86.558 148.292 87.1346 147.72 87.5393C145.871 89.1269 140.509 94.2505 138.241 92.0871C136.397 90.3424 136.496 86.7774 135.292 84.5965C133.181 80.7291 130.262 77.4084 127.313 74.233C123.99 70.6934 121.027 66.8322 118.467 62.7064C117.514 61.142 115.472 58.2168 115.978 56.1871C116.851 52.6977 120.666 55.3322 121.864 57.263C125.592 63.2357 125.894 71.4881 125.877 78.3796C125.877 82.0551 126.202 85.719 125.993 89.4293C125.801 92.785 125.411 95.9487 125.045 99.2461C125.036 99.5109 124.971 99.7708 124.853 100.008C123.841 101.753 116.182 100.909 114.798 99.6707C113.239 98.2691 114.757 94.896 115.013 93.1572C115.397 90.7542 115.547 88.3196 115.461 85.8876C115.369 83.7603 114.917 81.664 114.123 79.6881C111.14 72.4477 102.277 69.2956 95.4201 67.8184C89.2322 66.4866 80.9449 67.0042 80.9973 75.5416C81.038 82.5203 82.1604 89.7492 81.6602 96.664C81.6708 96.8759 81.6392 97.0878 81.5674 97.2875C81.4955 97.4871 81.3848 97.6705 81.2415 97.8271C80.9505 98.009 80.6034 98.0793 80.2645 98.0249C78.5198 97.9667 71.7737 99.6416 71.7097 97.1002C71.6139 92.2563 71.1199 87.4286 70.2325 82.6657C69.2788 77.6468 68.3773 72.5523 69.366 67.452C70.1162 63.573 72.0935 59.7753 75.3735 57.8038C76.5948 57.0711 78.4558 56.7861 79.1479 58.0714C79.6131 58.9321 79.2409 60.0196 78.799 60.8978C77.1827 64.1041 74.7264 66.8115 71.6922 68.7314C69.0694 70.3947 66.4233 70.3191 63.7597 71.4125C60.311 72.8257 58.1767 76.728 56.7809 80.101C56.0031 81.9623 55.3996 83.8916 54.9781 85.8643C54.728 87.0275 55.0246 89.7899 54.2802 90.703C53.1171 92.1336 41.5963 93.1339 40.9042 91.2845C40.3808 89.9295 42.015 86.0795 42.4279 84.7187C43.0431 82.6804 43.7731 80.6785 44.6146 78.7227C44.7251 78.4727 44.8356 78.2226 44.9519 77.9725C47.4438 72.8133 50.3129 67.8449 53.5358 63.1077C55.862 59.6183 54.9374 55.0996 53.4893 51.3078C52.204 47.9289 50.3546 44.8291 48.8891 41.5375C48.6158 40.9559 48.3715 40.3337 48.1563 39.7928C47.9411 39.2519 47.7434 38.6297 47.5748 38.1063C46.6809 35.1132 46.2553 32 46.3128 28.8768C46.3128 28.2604 46.3651 27.6439 46.4291 27.0216C47.8481 12.2208 60.6832 3.49734 73.6696 11.0809C74.1639 11.3659 74.6466 11.6625 75.1176 12.0173C77.8801 14.1749 80.7356 16.8035 81.0671 20.4907C81.4044 23.6544 79.0548 25.9341 76.8623 27.7718C76.432 28.0975 75.9958 28.3999 75.5364 28.6849C74.172 29.5326 72.704 30.2011 71.1688 30.6739C70.6629 31.0286 70.4942 31.7265 70.279 32.4186C70.1887 32.8507 70.1227 33.2875 70.0813 33.7271C69.8952 35.5125 69.8254 37.327 68.9182 38.8332C64.5681 46.2016 54.7803 40.037 48.4471 40.3569C45.7952 40.4907 43.0443 40.1999 40.5087 41.2002C38.6369 42.0272 36.9154 43.1592 35.4142 44.55C33.088 46.5331 30.7617 48.9524 30.3604 52.058C30.2732 52.6745 30.3604 53.4596 30.942 53.6864C31.1969 53.7707 31.4722 53.7707 31.7271 53.6864C34.6349 52.9652 36.6878 50.197 38.0778 47.388C39.0083 45.5154 41.067 40.9268 38.3104 40.229C36.1703 39.6881 34.5245 41.9737 33.3381 43.4101C28.3715 49.4584 21.3171 54.6227 13.7335 53.8085C11.1634 53.5245 8.70984 52.5831 6.60933 51.0751C1.27639 47.2426 -0.567159 38.0888 2.44535 32.2964C4.45174 28.4406 6.64424 24.6721 8.26099 20.607C9.87774 16.5418 10.8199 12.0987 10.2441 7.74858C10.114 6.50784 9.61808 5.33376 8.81927 4.37551C7.62902 2.75248 5.90597 1.59966 3.95158 1.11875" stroke="black" stroke-linecap="round" stroke-linejoin="round"/>
</svg>
