<svg width="144" height="191" viewBox="0 0 144 191" fill="none" xmlns="http://www.w3.org/2000/svg">
<path d="M111.6 47.85H32.4399V63.64H111.6V47.85Z" fill="#668632"/>
<path d="M16.6099 63.69H32.4599V79.53H48.3099V63.7H64.1599V79.53H79.9999V63.7H95.7999V79.55L111.6 79.41V63.7L127.39 63.65V142.79L111.56 142.89V158.72H95.7799V174.56L48.2799 174.48V158.73H32.4499V142.89L16.6099 142.97V63.69Z" fill="#E11B43"/>
<path d="M95.78 174.56H48.28V190.39H95.78V174.56Z" fill="#771535"/>
<path d="M48.27 158.64H32.4399V174.47H48.27V158.64Z" fill="#771535"/>
<path d="M32.4399 142.89H16.6099V158.72H32.4399V142.89Z" fill="#771535"/>
<path d="M32.4599 47.85H16.6299V63.68H32.4599V47.85Z" fill="#22510C"/>
<path d="M127.44 47.81H111.61V63.64H127.44V47.81Z" fill="#22510C"/>
<path d="M111.62 31.98H32.45V47.81H111.62V31.98Z" fill="#22510C"/>
<path d="M16.61 63.69H0.780029V142.97H16.61V63.69Z" fill="#771535"/>
<path d="M127.44 142.89H111.61V158.72H127.44V142.89Z" fill="#771535"/>
<path d="M143.27 63.65H127.44V142.79H143.27V63.65Z" fill="#771535"/>
<path d="M111.61 158.72H95.78V174.55H111.61V158.72Z" fill="#771535"/>
<path d="M79.9599 0.349976H64.1099V32.03H79.9599V0.349976Z" fill="#22510C"/>
<path d="M48.3099 63.69H32.46V79.54H48.3099V63.69Z" fill="#22510C"/>
<path d="M79.9799 63.69H64.1299V79.54H79.9799V63.69Z" fill="#22510C"/>
<path d="M64.1401 47.85H48.29V63.7H64.1401V47.85Z" fill="#22510C"/>
<path d="M95.8099 47.85H79.96V63.7H95.8099V47.85Z" fill="#22510C"/>
<path d="M111.65 63.7H95.7998V79.55H111.65V63.7Z" fill="#22510C"/>
<path d="M32.4698 95.29H16.6199V111.14H32.4698V95.29Z" fill="#9B1535"/>
<path d="M64.1401 111.17H48.29V127.02H64.1401V111.17Z" fill="#9B1535"/>
<path d="M95.8099 127.06H79.96V142.91H95.8099V127.06Z" fill="#9B1535"/>
<path d="M64.1401 142.88H48.29V158.73H64.1401V142.88Z" fill="#9B1535"/>
<path d="M95.8099 95.4H79.96V111.25H95.8099V95.4Z" fill="#9B1535"/>
<path d="M127.45 79.41H111.6V95.26H127.45V79.41Z" fill="#9B1535"/>
<path d="M127.46 111.17H111.61V127.02H127.46V111.17Z" fill="#9B1535"/>
</svg>
