<svg width="175" height="202" viewBox="0 0 175 202" fill="none" xmlns="http://www.w3.org/2000/svg">
<path d="M81.1199 174.34H94.5199V187.74H148.11V174.34H161.5V120.72H148.11V107.32H94.5199V120.72H81.1199V174.34Z" fill="#9B1535"/>
<path d="M67.7198 174.3L27.5399 174.34V160.94H14.1399V107.32H27.5399V93.92H81.1199V120.72H67.7198V174.3Z" fill="#9B1535"/>
<path d="M81.12 120.72H67.72V174.3H81.12V120.72Z" fill="#560614"/>
<path d="M174.91 120.72H161.51V174.3H174.91V120.72Z" fill="#560614"/>
<path d="M148.11 107.32V93.92H94.5499V107.32H148.11Z" fill="#560614"/>
<path d="M148.1 201.13V187.73H94.5401V201.13H148.1Z" fill="#560614"/>
<path d="M94.5199 107.32H81.1199V120.72H94.5199V107.32Z" fill="#560614"/>
<path d="M94.5199 174.34H81.1199V187.74H94.5199V174.34Z" fill="#560614"/>
<path d="M161.51 174.34H148.11V187.74H161.51V174.34Z" fill="#560614"/>
<path d="M161.51 107.32H148.11V120.72H161.51V107.32Z" fill="#560614"/>
<path d="M107.92 134.11H94.54V160.95H107.92V134.11Z" fill="#E11B43"/>
<path d="M121.31 160.95H107.92V174.34H121.31V160.95Z" fill="#E11B43"/>
<path d="M14.14 107.32H0.73999V160.9H14.14V107.32Z" fill="#560614"/>
<path d="M81.1199 93.93V80.53H27.5599V93.93H81.1199Z" fill="#560614"/>
<path d="M81.1199 187.74V174.34H27.5599V187.74H81.1199Z" fill="#560614"/>
<path d="M27.5399 93.92H14.1399V107.32H27.5399V93.92Z" fill="#560614"/>
<path d="M27.5399 160.94H14.1399V174.34H27.5399V160.94Z" fill="#560614"/>
<path d="M94.5199 93.92H81.1199V107.32H94.5199V93.92Z" fill="#560614"/>
<path d="M40.9401 120.72H27.5601V147.56H40.9401V120.72Z" fill="#E11B43"/>
<path d="M54.3199 147.55H40.9299V160.94H54.3199V147.55Z" fill="#E11B43"/>
<path d="M81.13 53.77H67.73V67.17H81.13V53.77Z" fill="#22510C"/>
<path d="M94.5299 40.5H81.1299V53.9H94.5299V40.5Z" fill="#22510C"/>
<path d="M121.32 27.14H107.92V40.54H121.32V27.14Z" fill="#22510C"/>
<path d="M161.51 27.3H148.11V40.7H161.51V27.3Z" fill="#22510C"/>
<path d="M148.11 40.37H121.31V53.77H148.11V40.37Z" fill="#22510C"/>
<path d="M134.71 13.74H121.31V27.14H134.71V13.74Z" fill="#22510C"/>
<path d="M174.91 13.74H161.51V27.14H174.91V13.74Z" fill="#22510C"/>
<path d="M174.9 0.179993H134.71V13.58H174.9V0.179993Z" fill="#22510C"/>
<path d="M81.1301 27.14H54.3301V40.54H81.1301V27.14Z" fill="#22510C"/>
<path d="M54.33 13.58H40.9299V26.98H54.33V13.58Z" fill="#22510C"/>
<path d="M94.52 0.179993H40.9299V13.58H94.52V0.179993Z" fill="#22510C"/>
<path d="M107.92 13.58H94.52V40.37H107.92V13.58Z" fill="#22510C"/>
<path d="M121.32 40.37H107.92V93.94H121.32V40.37Z" fill="#22510C"/>
<path d="M67.73 67.17H54.3301V80.71H67.73V67.17Z" fill="#22510C"/>
<path d="M81.1301 40.54L94.5201 40.38V13.58H54.3301V26.98L81.1301 27.14V40.54Z" fill="#9CB72C"/>
<path d="M121.32 27.14V40.37H148.11V27.3L161.5 27.14V13.74L134.71 13.58V27.14H121.32Z" fill="#C1E436"/>
</svg>
