<svg width="207" height="144" viewBox="0 0 207 144" fill="none" xmlns="http://www.w3.org/2000/svg">
<path d="M48.0399 48.5H16.3699V80.17H48.0399V48.5Z" fill="#FFD440"/>
<path d="M79.71 80.16H143.04V64.33H158.87V16.83H143.04V32.66H127.21V48.5H111.37V64.33H79.71V80.16Z" fill="#FFD440"/>
<path d="M143.04 64.33H16.3699V80.16H143.04V64.33Z" fill="#EABD3D"/>
<path d="M48.04 80.16V111.83H63.8701V127.66H143.04V111.83H174.71V96H190.54V48.5H174.71V64.33H158.87V80.16H143.04V96H79.7101V80.16H48.04Z" fill="#FFD440"/>
<path d="M190.54 48.4901V32.66H174.71V48.4901H190.54Z" fill="#AF8B2F"/>
<path d="M174.7 48.5H158.87V64.33H174.7V48.5Z" fill="#AF8B2F"/>
<path d="M158.87 64.33H143.04V80.16H158.87V64.33Z" fill="#AF8B2F"/>
<path d="M79.7101 64.33H48.04V80.16H79.7101V64.33Z" fill="#AF8B2F"/>
<path d="M48.0399 80.16H32.21V111.83H48.0399V80.16Z" fill="#AF8B2F"/>
<path d="M63.8701 111.83H48.04V127.66H63.8701V111.83Z" fill="#AF8B2F"/>
<path d="M174.71 111.83H143.04V127.66H174.71V111.83Z" fill="#AF8B2F"/>
<path d="M190.53 96H174.7V111.83H190.53V96Z" fill="#AF8B2F"/>
<path d="M206.37 48.5H190.54V96H206.37V48.5Z" fill="#AF8B2F"/>
<path d="M143.04 127.66H63.8699V143.49H143.04V127.66Z" fill="#AF8B2F"/>
<path d="M143.04 80.16H79.71V95.99H143.04V80.16Z" fill="#AF8B2F"/>
<path d="M174.7 16.82V0.98999L143.03 0.98999V16.82H174.7Z" fill="#AF8B2F"/>
<path d="M190.54 16.83V1L174.71 1V16.83H190.54Z" fill="#5B3C1A"/>
<path d="M206.37 32.66V16.83H190.54V32.66H206.37Z" fill="#5B3C1A"/>
<path d="M143.03 16.83H127.2V32.66H143.03V16.83Z" fill="#AF8B2F"/>
<path d="M127.2 32.66H111.37V48.49H127.2V32.66Z" fill="#AF8B2F"/>
<path d="M48.0399 32.66H16.3699V48.49H48.0399V32.66Z" fill="#AF8B2F"/>
<path d="M16.3701 48.5H0.540039V80.17H16.3701V48.5Z" fill="#AF8B2F"/>
<path d="M32.1999 80.16H16.3699V95.99H32.1999V80.16Z" fill="#AF8B2F"/>
<path d="M174.7 16.83H158.87V48.5H174.7V16.83Z" fill="#AF8B2F"/>
<path d="M48.0399 96H32.21V111.83H48.0399V96Z" fill="#AF8B2F"/>
<path d="M111.37 48.5H48.04V64.33H111.37V48.5Z" fill="#AF8B2F"/>
<path d="M143.04 111.83H63.8699V127.66H143.04V111.83Z" fill="#EABD3D"/>
<path d="M32.3699 48.5H16.3699V64.5H32.3699V48.5Z" fill="#5B3C1A"/>
<path d="M63.96 80.08H47.96V96.08H63.96V80.08Z" fill="#5B3C1A"/>
</svg>
