<svg width="102" height="102" viewBox="0 0 102 102" fill="none" xmlns="http://www.w3.org/2000/svg">
<path d="M39.0283 72.1331C38.1586 70.7434 37.4232 69.3473 36.6807 67.9448C35.1533 65.0501 32.8128 62.5269 31.0238 59.7795C28.982 56.6931 27.1335 53.5052 25.4871 50.2308C23.6017 46.4855 21.9814 42.6352 20.6363 38.7033C19.3139 34.8608 18.7907 30.6212 16.9804 26.9644C15.6581 24.2875 13.3883 22.1037 12.0943 19.3627C11.9131 18.9172 11.7735 18.4588 11.6771 17.9922C10.0224 19.542 10.1638 22.1485 10.3123 24.1722C10.5315 27.1438 10.9558 29.9808 10.8356 32.9844C10.5033 41.1817 8.48092 51.2747 15.5379 57.5828" stroke="black" stroke-linecap="round" stroke-linejoin="round"/>
<path d="M38.7246 72.2234C32.1413 72.6332 28.2664 66.2419 24.4267 62.2713C22.3054 60.113 19.8376 58.1662 16.6909 57.7243C15.1844 57.5389 13.6511 57.6625 12.2044 58.086C10.7577 58.5094 9.43458 59.2219 8.33278 60.1707C7.05828 61.3113 6.01265 62.644 5.24269 64.1093C4.15374 65.9729 2.74658 66.4404 1 67.5547C3.12135 67.9326 5.33464 67.5547 7.4277 68.0414C12.3775 69.7001 16.8111 72.8446 17.9142 78.0832C19.3921 84.3657 21.5983 89.6107 25.6571 94.4907C30.4443 99.3835 37.077 101.83 44.0845 100.78C56.353 98.9416 72.2631 91.263 84.1214 98.0834" stroke="black" stroke-linecap="round" stroke-linejoin="round"/>
<path d="M53.515 89.8024C58.0546 89.5846 63.5843 88.5215 65.4298 84.0002C65.7975 82.6041 64.7227 80.1577 62.4812 80.8557C61.3781 81.2015 61.3781 82.9499 62.8489 84.0002C64.6437 84.9076 66.7542 85.1575 68.7462 84.6982C79.9894 82.5656 86.2827 68.2651 87.7888 58.7549C88.2909 55.5976 88.9273 52.197 88.2697 49.0269C87.3363 44.544 81.8632 44.7489 79.3318 47.7461C78.7678 48.3305 78.4629 49.0834 78.4761 49.8595C79.0065 55.1429 87.9515 46.049 88.8495 44.9346C91.0184 42.0449 92.8301 38.9481 94.2519 35.6998C98.5724 26.6507 101.818 16.135 100.814 6.12531C100.672 4.76762 99.8027 -0.234056 97.3702 1.28374C94.6691 2.96163 93.0639 5.52331 91.1052 7.87364C84.7977 15.4434 76.7578 21.4633 69.8493 28.4951C62.3763 36.1673 56.4437 44.9649 52.3199 54.4897C49.647 60.6249 47.3701 70.7179 39.0615 72.1716" stroke="black" stroke-linecap="round" stroke-linejoin="round"/>
</svg>
