<svg width="119" height="102" viewBox="0 0 119 102" fill="none" xmlns="http://www.w3.org/2000/svg">
<path d="M67.3322 99.2058C66.855 99.3537 66.3666 99.4626 65.8717 99.5315C65.3913 99.6009 64.907 99.6395 64.4217 99.6471C56.2679 99.8047 48.1352 100.036 39.9604 99.7732C36.3091 99.6524 19.6601 101.418 19.0191 95.3391C18.9762 94.5158 19.2465 93.7068 19.7757 93.0747C21.3045 91.0888 23.9786 90.6317 26.306 89.9225C28.6334 89.2132 31.2393 87.7317 31.4757 85.1941C31.6543 83.1977 30.2936 81.464 29.1851 79.8301C26.5177 75.8472 24.9899 71.211 24.7667 66.4227C24.8019 65.6988 24.6594 64.9773 24.3516 64.3212C23.5321 62.9605 21.6302 63.1443 20.1119 63.386C16.6156 63.9439 13.0512 63.9209 9.56245 63.3177C6.07924 62.7188 2.20726 61.0481 1.22481 57.4966C0.0532361 53.2411 3.68355 49.3376 6.95661 46.5216C12.2103 42.0087 18.0997 37.2541 24.8875 37.459C28.059 26.1556 33.4589 15.6006 40.7695 6.41478C42.1827 4.64428 44.8936 1.98065 46.517 5.26422C47.6781 7.61262 45.6764 11.7315 44.7623 13.833C44.1161 15.3303 39.2879 27.6871 36.8239 23.0375C35.4948 20.5262 41.0269 14.2165 42.5032 12.383C45.4732 8.6679 48.9728 5.40911 52.8898 2.71092C54.6603 1.49206 57.0928 0.420305 58.7529 1.76C59.8037 2.57433 60.1241 4.0191 60.2712 5.35879C61.2957 14.5791 57.3502 24.414 53.3048 32.4154C51.6234 35.6233 49.7642 38.7349 47.7359 41.7355C45.8603 44.5935 44.1949 48.0031 41.4577 50.0836C40.6486 50.7035 39.5401 51.1711 38.6102 50.5197C37.1024 49.4689 37.922 47.2466 38.999 46.2274C41.3369 44.0156 44.7045 43.4744 47.5363 42.2766C52.0877 40.4097 56.852 39.111 61.7213 38.4099C77.1409 36.03 99.8527 38.8617 106.619 56.4459C108.064 60.2128 108.348 64.6312 111.442 67.4787C112.53 68.4769 114.022 69.1073 115.435 68.7921C118.251 68.1616 118.74 64.0007 116.444 62.3983C115.834 61.9872 115.104 61.7928 114.37 61.8461C113.637 61.8995 112.942 62.1975 112.399 62.6925C111.516 63.5226 111.127 64.794 110.891 65.9971C109.787 71.7184 110.449 77.4607 108.464 83.0244C106.551 88.3779 103.21 93.8733 98.5918 97.057C83.356 107.501 57.1926 97.0886 63.1976 75.1596C65.0784 68.2982 70.5055 61.8414 77.682 61.6102" stroke="black" stroke-linecap="round" stroke-linejoin="round"/>
</svg>
