<svg width="143" height="191" viewBox="0 0 143 191" fill="none" xmlns="http://www.w3.org/2000/svg">
<path d="M95.3699 63.57V47.81L63.7 47.75V63.57H16.2V95.24L32.03 95.15V142.76L47.8699 142.67V174.42H79.53V126.9H111.2V95.23L127.02 95.24V63.57H95.3699Z" fill="#7A52BB"/>
<path d="M32.0399 63.65H16.2V79.49H32.0399V63.65Z" fill="#B281DD"/>
<path d="M47.87 110.97H32.03V126.81H47.87V110.97Z" fill="#B281DD"/>
<path d="M79.5399 47.74H63.7V63.58H79.5399V47.74Z" fill="#B281DD"/>
<path d="M95.36 95.26H79.52V111.1H95.36V95.26Z" fill="#B281DD"/>
<path d="M79.5299 142.61H63.6899V158.58H79.5299V142.61Z" fill="#B281DD"/>
<path d="M127.02 63.46H111.18V79.3H127.02V63.46Z" fill="#B281DD"/>
<path d="M47.87 142.64H32.04V158.47H47.87V142.64Z" fill="#4A3E84"/>
<path d="M63.6999 142.64H47.8699V158.47H63.6999V142.64Z" fill="#4A3E84"/>
<path d="M47.87 95.23H32.04V111.06H47.87V95.23Z" fill="#4A3E84"/>
<path d="M63.6999 95.23H47.8699V111.06H63.6999V95.23Z" fill="#4A3E84"/>
<path d="M79.53 126.89V111.06H63.7V126.89H79.53Z" fill="#4A3E84"/>
<path d="M79.53 142.61V126.89H63.7001V142.61H79.53Z" fill="#4A3E84"/>
<path d="M32.04 126.89V111.06H16.21V126.89H32.04Z" fill="#4A3E84"/>
<path d="M32.04 142.72V126.89H16.2101V142.72H32.04Z" fill="#4A3E84"/>
<path d="M95.37 126.78H79.54V142.61H95.37V126.78Z" fill="#4A3E84"/>
<path d="M111.2 126.78H95.3699V142.61H111.2V126.78Z" fill="#4A3E84"/>
<path d="M95.37 79.37H79.54V95.2H95.37V79.37Z" fill="#4A3E84"/>
<path d="M111.2 79.37H95.3699V95.2H111.2V79.37Z" fill="#4A3E84"/>
<path d="M127.04 111.03V95.2H111.21V111.03H127.04Z" fill="#4A3E84"/>
<path d="M127.03 126.86V111.03H111.2V126.86H127.03Z" fill="#4A3E84"/>
<path d="M79.54 111.03V95.2H63.71V111.03H79.54Z" fill="#4A3E84"/>
<path d="M79.53 126.86V111.03H63.7V126.86H79.53Z" fill="#4A3E84"/>
<path d="M32.03 95.12H16.2V110.95H32.03V95.12Z" fill="#4A3E84"/>
<path d="M47.87 95.12H32.04V110.95H47.87V95.12Z" fill="#4A3E84"/>
<path d="M32.03 47.71H16.2V63.54H32.03V47.71Z" fill="#4A3E84"/>
<path d="M47.87 47.71H32.04V63.54H47.87V47.71Z" fill="#4A3E84"/>
<path d="M63.7 79.37V63.54H47.8699V79.37H63.7Z" fill="#4A3E84"/>
<path d="M63.71 95.2V79.37H47.8799V95.2H63.71Z" fill="#4A3E84"/>
<path d="M16.2 79.37V63.54H0.369934L0.369934 79.37H16.2Z" fill="#4A3E84"/>
<path d="M16.21 95.2V79.37H0.379944L0.379944 95.2H16.21Z" fill="#4A3E84"/>
<path d="M79.53 79.36H63.7V95.19H79.53V79.36Z" fill="#4A3E84"/>
<path d="M95.37 79.36H79.54V95.19H95.37V79.36Z" fill="#4A3E84"/>
<path d="M79.53 31.96H63.7V47.79H79.53V31.96Z" fill="#4A3E84"/>
<path d="M95.37 31.96H79.54V47.79H95.37V31.96Z" fill="#4A3E84"/>
<path d="M111.2 63.62V47.79H95.3699V63.62H111.2Z" fill="#4A3E84"/>
<path d="M111.2 79.45V63.62H95.3699V79.45H111.2Z" fill="#4A3E84"/>
<path d="M63.7 63.62V47.79H47.8699V63.62H63.7Z" fill="#4A3E84"/>
<path d="M63.7 79.45V63.62H47.8699V79.45H63.7Z" fill="#4A3E84"/>
<path d="M63.6999 174.3H47.8699V190.13H63.6999V174.3Z" fill="#4A3E84"/>
<path d="M79.53 174.3H63.7V190.13H79.53V174.3Z" fill="#4A3E84"/>
<path d="M95.3699 158.55V142.61H79.5399V158.55H95.3699Z" fill="#4A3E84"/>
<path d="M95.3599 174.39V158.56H79.5298V174.39H95.3599Z" fill="#4A3E84"/>
<path d="M47.8599 174.39V158.56H32.0298V174.39H47.8599Z" fill="#4A3E84"/>
<path d="M127.02 47.71H111.19V63.54H127.02V47.71Z" fill="#4A3E84"/>
<path d="M142.86 79.37V63.54H127.03V79.37H142.86Z" fill="#4A3E84"/>
<path d="M142.86 95.2V79.37H127.03V95.2H142.86Z" fill="#4A3E84"/>
<path d="M63.6999 16.05H47.8699V47.71H63.6999V16.05Z" fill="#5B3C1A"/>
<path d="M111.19 0.219971H63.7V16.05H111.19V0.219971Z" fill="#5B3C1A"/>
<path d="M127.02 16.05H111.19V31.88H127.02V16.05Z" fill="#5B3C1A"/>
<path d="M47.87 0.219971H32.04V16.05H47.87V0.219971Z" fill="#5B3C1A"/>
<path d="M32.03 16.05H16.2V31.88H32.03V16.05Z" fill="#5B3C1A"/>
</svg>
