<svg width="157" height="102" viewBox="0 0 157 102" fill="none" xmlns="http://www.w3.org/2000/svg">
<path d="M103.709 33.8467C100.936 30.3363 97.1385 27.3995 92.3508 27.5497C90.5615 27.4883 88.8062 26.1838 87.652 24.893C86.2178 22.967 84.4694 21.3484 82.7414 19.4292C79.5383 16.5061 75.7 15.1265 71.5407 14.3616C68.8472 14.0127 66.1137 14.1329 63.4612 14.7167C53.8176 17.2096 44.7888 19.4087 35.958 24.7427C30.9723 27.7478 25.4812 31.1695 21.718 35.7454C18.6788 39.4266 16.7119 44.8904 11.4735 45.4709C9.68068 45.624 7.88106 45.2681 6.28146 44.4441C4.68187 43.6202 3.34724 42.3616 2.43096 40.813C-0.0345619 36.6196 0.887445 30.9373 3.6603 26.9556C6.43316 22.9738 10.7154 20.4537 15.0796 18.6097C19.4437 16.7656 24.0197 15.4817 28.2541 13.3303C31.4572 11.698 34.8447 8.70659 34.2574 5.02538C33.7656 1.93836 29.982 0.0192062 27.3594 1.52174" stroke="black" stroke-miterlimit="10"/>
<path d="M104.774 35.1442C103.231 34.1676 103.299 31.9821 103.046 30.4112C102.602 25.3914 104.248 20.4467 104.699 15.461C104.727 14.8862 104.957 14.3396 105.348 13.9175C106.283 12.695 107.397 14.3 108.004 14.942L109.739 16.8748C110.578 17.8873 111.345 18.9576 112.034 20.0779C112.901 21.0477 114.349 22.3454 115.865 21.7717C118.14 20.695 120.59 20.0357 123.098 19.8252C127.288 19.601 131.489 19.8461 135.624 20.556C138.159 21.3128 140.736 21.9216 143.341 22.3795C143.689 22.3658 144.029 22.2805 144.342 22.1289C144.654 21.9773 144.932 21.7626 145.158 21.4985C146.702 19.9891 148.518 19.1149 150.048 17.9129C150.977 17.0045 152.835 14.8805 153.381 16.465C154.788 19.3198 155 22.1405 155.505 25.289C155.724 27.7955 154.754 30.261 154.078 32.7402C154.078 33.6758 153.723 34.6047 154.003 35.2398C155.368 39.0371 156.448 43.135 156.051 47.185C155.573 50.4483 154.557 53.6098 153.046 56.5417C152.077 58.3037 148.908 59.8677 148.409 61.4181C147.856 63.1392 150.362 65.6457 150.69 67.4077C151.059 69.402 150.608 71.2597 151.202 73.3427C152.459 77.7138 154.33 80.9442 152.261 85.4996C150.608 89.1194 147.548 91.8786 144.147 93.7294C142.946 94.4161 141.654 94.9289 140.309 95.2524C135.023 96.3862 131.383 92.1927 126.472 92.705C122.306 93.1352 123.269 96.6593 120.831 98.9541C118.283 101.351 114.418 101.522 111.406 100.088C107.868 98.4078 104.036 96.714 99.8362 97.1989C87.2217 98.6536 71.3358 96.031 63.748 84.0039C58.4618 75.6307 58.7896 63.4124 65.4691 56.2139C66.2102 55.3197 67.1702 54.6327 68.2556 54.2196C70.5299 53.5366 72.9203 54.9503 74.5936 56.7124C79.3266 61.6776 80.8496 69.4362 79.2378 76.2454C77.626 83.0546 73.2071 88.9008 67.7639 92.985C54.2547 103.113 36.1628 102.888 22.1278 94.1665C15.1 89.7955 11.774 86.5719 9.50651 77.7752C7.41663 69.6957 7.36198 60.2024 11.7603 52.9083" stroke="black" stroke-miterlimit="10"/>
<path d="M136.464 67.5924C132.564 69.976 127.927 72.4278 123.747 70.6316C121.322 69.5935 119.649 67.3192 117.6 65.5503C114.718 63.0233 111.119 61.5003 108.285 58.9187C103.053 54.1379 101.168 45.7988 103.811 39.1125C104.187 38.17 104.87 37.2002 104.815 36.1279C104.76 35.0557 103.756 33.8537 103.258 32.9316" stroke="black" stroke-miterlimit="10"/>
</svg>
