<svg width="159" height="203" viewBox="0 0 159 203" fill="none" xmlns="http://www.w3.org/2000/svg">
<path d="M86.8101 44.3H115.6V29.77H129.99V15.38H101.2V29.77H86.8101V44.3Z" fill="#C1E436"/>
<path d="M144.39 101.74H130V87.34H86.8098V101.74H72.4198V87.34H29.2298V101.74H14.8398V159.31H29.2298V173.71H43.6299V188.1H72.4198V173.71H130V159.31H144.4L144.39 101.74Z" fill="#E11B43"/>
<path d="M115.6 173.71H86.8101V188.1H115.6V173.71Z" fill="#E11B43"/>
<path d="M43.62 116.13H29.23V144.92H43.62V116.13Z" fill="#9B1535"/>
<path d="M58.0199 144.92H43.6299V159.31H58.0199V144.92Z" fill="#9B1535"/>
<path d="M101.21 44.34H115.6V29.6H101.21V44.34Z" fill="#9CB72C"/>
<path d="M115.6 29.9399H129.99V15.1999L115.6 15.1999V29.9399Z" fill="#9CB72C"/>
<path d="M72.41 72.95H29.23V87.34H72.41V72.95Z" fill="#771535"/>
<path d="M129.99 72.95H86.8101V87.34H129.99V72.95Z" fill="#771535"/>
<path d="M86.8099 87.34H72.4199V101.73H86.8099V87.34Z" fill="#771535"/>
<path d="M29.2298 87.34H14.8398V101.73H29.2298V87.34Z" fill="#771535"/>
<path d="M29.2298 159.31H14.8398V173.7H29.2298V159.31Z" fill="#771535"/>
<path d="M43.62 173.71H29.23V188.1H43.62V173.71Z" fill="#771535"/>
<path d="M72.4199 188.1H43.6299V202.49H72.4199V188.1Z" fill="#771535"/>
<path d="M115.6 188.1H86.8101V202.49H115.6V188.1Z" fill="#771535"/>
<path d="M14.84 101.74H0.449951V159.32H14.84V101.74Z" fill="#771535"/>
<path d="M130 101.74H144.39V87.35H130V101.74Z" fill="#771535"/>
<path d="M86.81 29.76H101.2V15.37L86.81 15.37V29.76Z" fill="#22510C"/>
<path d="M130 29.76H144.39V15.37L130 15.37V29.76Z" fill="#22510C"/>
<path d="M130 173.71H144.39V159.32H130V173.71Z" fill="#771535"/>
<path d="M115.6 188.1H129.99V173.71H115.6V188.1Z" fill="#771535"/>
<path d="M72.4201 188.1H86.8101V173.71H72.4201V188.1Z" fill="#771535"/>
<path d="M144.38 159.31H158.77V101.73H144.38V159.31Z" fill="#771535"/>
<path d="M86.8099 29.58L72.4199 29.77V72.95L86.8099 72.7599V29.58Z" fill="#22510C"/>
<path d="M101.21 15.38L144.39 15.38V0.990013L101.21 0.990013V15.38Z" fill="#22510C"/>
<path d="M115.6 44.16H129.99V29.77H115.6V44.16Z" fill="#22510C"/>
<path d="M86.8098 58.5599H115.6V44.2999H86.8098V58.5599Z" fill="#22510C"/>
</svg>
