<svg width="361" height="101" viewBox="0 0 361 101" fill="none" xmlns="http://www.w3.org/2000/svg">
<path d="M30.2541 10.8098H20.2703V20.8116H30.2541V10.8098Z" fill="#FFD400"/>
<path d="M200.214 90.681H190.23V100.665H200.214V90.681Z" fill="#FFB600"/>
<path d="M210.197 20.758H200.213V30.7598H210.197V20.758Z" fill="#FFD400"/>
<path d="M20.2707 40.7794H10.2869V50.7812H20.2707V40.7794Z" fill="#FFD400"/>
<path d="M110.304 50.7454H100.302V60.7293H110.304V50.7454Z" fill="#FFD400"/>
<path d="M190.23 40.7435H180.228V50.7274H190.23V40.7435Z" fill="#FFB600"/>
<path d="M340.148 50.7275H330.146V60.7293H340.148V50.7275Z" fill="#FFB600"/>
<path d="M160.26 50.7454H150.258V60.7293H160.26V50.7454Z" fill="#FFB600"/>
<path d="M100.303 40.7435H90.2656V50.7453H100.303V40.7435Z" fill="#FFB600"/>
<path d="M310.18 80.7149H300.178V90.6988H310.18V80.7149Z" fill="#FFD400"/>
<path d="M160.26 30.7595H150.258V40.7434H160.26V30.7595Z" fill="#FFB600"/>
<path d="M200.214 40.7435H190.23V50.7274H200.214V40.7435Z" fill="#FFD400"/>
<path d="M260.152 20.7759H250.15V30.7777H260.152V20.7759Z" fill="#FFD400"/>
<path d="M270.136 20.7759H260.152V30.7777H270.136V20.7759Z" fill="#FFB600"/>
<path d="M110.304 30.7595H100.302V40.7434H110.304V30.7595Z" fill="#FFD400"/>
<path d="M360.135 80.7149H350.133V90.6988H360.135V80.7149Z" fill="#FFB600"/>
<path d="M130.273 40.7435H120.289V50.7453H130.273V40.7435Z" fill="#FFB600"/>
<path d="M350.132 10.774H340.148V20.7578H350.132V10.774Z" fill="#FFD400"/>
<path d="M260.152 30.7595H250.15V40.7434H260.152V30.7595Z" fill="#FFD400"/>
<path d="M230.165 40.7435V50.7274H220.181V40.7435H230.165Z" fill="#FFD400"/>
<path d="M30.2541 90.7882H20.2703V100.79H30.2541V90.7882Z" fill="#FFB600"/>
<path d="M190.23 90.681H180.228V100.665H190.23V90.681Z" fill="#FFB600"/>
<path d="M270.136 30.7595H260.152V40.7434H270.136V30.7595Z" fill="#FFB600"/>
<path d="M140.274 10.774H130.272V20.7758H140.274V10.774Z" fill="#FFD400"/>
<path d="M220.181 20.758H210.197V30.7598H220.181V20.758Z" fill="#FFD400"/>
<path d="M190.23 80.697H180.228V90.6808H190.23V80.697Z" fill="#FFB600"/>
<path d="M150.258 80.7149H140.274V90.7526H150.258V80.7149Z" fill="#FFD400"/>
<path d="M300.177 20.758H290.14V30.7598H300.177V20.758Z" fill="#FFB600"/>
<path d="M310.18 90.6989H300.178V100.683H310.18V90.6989Z" fill="#FFB600"/>
<path d="M120.288 40.7435H110.304V50.7453H120.288V40.7435Z" fill="#FFB600"/>
<path d="M220.181 30.7595H210.197V40.7434H220.181V30.7595Z" fill="#FFD400"/>
<path d="M150.258 70.7309H140.274V80.7148H150.258V70.7309Z" fill="#FFD400"/>
<path d="M360.135 90.6989H350.133V100.683H360.135V90.6989Z" fill="#FFB600"/>
<path d="M300.177 30.7595H290.14V40.7434H300.177V30.7595Z" fill="#FFB600"/>
<path d="M200.214 0.789978V10.7738H190.23V0.789978H200.214Z" fill="#FFB600"/>
<path d="M10.305 80.7328H0.303223V90.7705H10.305V80.7328Z" fill="#FFB600"/>
<path d="M150.258 0.789978H140.274V10.7738H150.258V0.789978Z" fill="#FFB600"/>
<path d="M200.214 80.697H190.23V90.6808H200.214V80.697Z" fill="#FFD400"/>
<path d="M340.148 0.789978H330.146V10.7738H340.148V0.789978Z" fill="#FFB600"/>
<path d="M10.305 70.7488H0.303223V80.7327H10.305V70.7488Z" fill="#FFB600"/>
<path d="M310.18 40.7435H300.178V50.7274H310.18V40.7435Z" fill="#FFD400"/>
<path d="M240.167 30.7595V40.7434H230.165V30.7595H240.167Z" fill="#FFD400"/>
<path d="M360.135 40.7435H350.133V50.7274H360.135V40.7435Z" fill="#FFB600"/>
<path d="M200.214 60.729H190.23V70.7128H200.214V60.729Z" fill="#FFD400"/>
<path d="M50.2397 0.825867H40.2559V10.8097H50.2397V0.825867Z" fill="#FFB600"/>
<path d="M160.26 80.7149H150.258V90.7526H160.26V80.7149Z" fill="#FFB600"/>
<path d="M20.2707 10.8098H10.2869V20.8116H20.2707V10.8098Z" fill="#FFB600"/>
<path d="M270.136 70.713H260.152V80.7148H270.136V70.713Z" fill="#FFB600"/>
<path d="M260.152 70.713H250.15V80.7148H260.152V70.713Z" fill="#FFD400"/>
<path d="M320.163 0.789978H310.179V10.7738H320.163V0.789978Z" fill="#FFB600"/>
<path d="M110.304 80.7149H100.302V90.7526H110.304V80.7149Z" fill="#FFD400"/>
<path d="M100.303 10.774H90.2656V20.7758H100.303V10.774Z" fill="#FFB600"/>
<path d="M20.2707 20.7939H10.2869V30.7777H20.2707V20.7939Z" fill="#FFD400"/>
<path d="M110.304 70.7309H100.302V80.7148H110.304V70.7309Z" fill="#FFD400"/>
<path d="M190.23 10.774H180.228V20.7578H190.23V10.774Z" fill="#FFB600"/>
<path d="M40.274 10.8098H30.2722V20.8116H40.274V10.8098Z" fill="#FFD400"/>
<path d="M160.26 70.7309H150.258V80.7148H160.26V70.7309Z" fill="#FFB600"/>
<path d="M100.303 20.7759H90.2656V30.7598H100.303V20.7759Z" fill="#FFB600"/>
<path d="M350.132 90.6989H340.148V100.683H350.132V90.6989Z" fill="#FFB600"/>
<path d="M330.147 50.7275H320.163V60.7293H330.147V50.7275Z" fill="#FFB600"/>
<path d="M210.197 0.789978H200.213V10.7738H210.197V0.789978Z" fill="#FFB600"/>
<path d="M20.2707 60.7469H10.2869V70.7487H20.2707V60.7469Z" fill="#FFD400"/>
<path d="M110.304 0.789978H100.302V10.7738H110.304V0.789978Z" fill="#FFB600"/>
<path d="M270.136 0.789978H260.152V10.7738H270.136V0.789978Z" fill="#FFB600"/>
<path d="M200.214 10.774H190.23V20.7578H200.214V10.774Z" fill="#FFD400"/>
<path d="M140.274 40.7435H130.272V50.7453H140.274V40.7435Z" fill="#FFB600"/>
<path d="M50.2397 80.7328H40.2559V90.7705H50.2397V80.7328Z" fill="#FFD400"/>
<path d="M100.303 60.729H90.2656V70.7308H100.303V60.729Z" fill="#FFB600"/>
<path d="M300.177 50.7275H290.14V60.7293H300.177V50.7275Z" fill="#FFB600"/>
<path d="M260.152 0.789978H250.15V10.7738H260.152V0.789978Z" fill="#FFB600"/>
<path d="M40.274 90.7882H30.2722V100.79H40.274V90.7882Z" fill="#FFB600"/>
<path d="M100.303 90.7523H90.2656V100.754H100.303V90.7523Z" fill="#FFB600"/>
<path d="M190.23 60.729H180.228V70.7128H190.23V60.729Z" fill="#FFB600"/>
<path d="M130.273 10.774H120.289V20.7758H130.273V10.774Z" fill="#FFD400"/>
<path d="M350.132 40.7435H340.148V50.7274H350.132V40.7435Z" fill="#FFD400"/>
<path d="M20.2707 90.7882H10.2869V100.79H20.2707V90.7882Z" fill="#FFB600"/>
<path d="M120.288 10.774H110.304V20.7758H120.288V10.774Z" fill="#FFD400"/>
<path d="M60.242 60.7469H50.2402V70.7487H60.242V60.7469Z" fill="#FFF0B0"/>
<path d="M260.152 50.7275H250.15V60.7293H260.152V50.7275Z" fill="#FFD400"/>
<path d="M300.177 0.789978H290.14V10.7738H300.177V0.789978Z" fill="#FFB600"/>
<path d="M70.2261 60.7469H60.2422V70.7487H70.2261V60.7469Z" fill="#FFB600"/>
<path d="M270.136 50.7275H260.152V60.7293H270.136V50.7275Z" fill="#FFB600"/>
<path d="M10.305 30.7774H0.303223V40.7613H10.305V30.7774Z" fill="#FFB600"/>
<path d="M70.2261 90.7882H60.2422V100.79H70.2261V90.7882Z" fill="#FFB600"/>
<path d="M310.18 60.729H300.178V70.7128H310.18V60.729Z" fill="#FFD400"/>
<path d="M60.242 90.7882H50.2402V100.79H60.242V90.7882Z" fill="#FFB600"/>
<path d="M150.258 50.7454H140.274V60.7293H150.258V50.7454Z" fill="#FFD400"/>
<path d="M250.151 10.774H240.167V20.7578H250.151V10.774Z" fill="#FFB600"/>
<path d="M150.258 30.7595H140.274V40.7434H150.258V30.7595Z" fill="#FFD400"/>
<path d="M60.242 10.8098H50.2402V20.8116H60.242V10.8098Z" fill="#FFB600"/>
<path d="M300.177 70.713H290.14V80.7148H300.177V70.713Z" fill="#FFB600"/>
<path d="M320.163 50.7275H310.179V60.7293H320.163V50.7275Z" fill="#FFB600"/>
<path d="M350.132 80.7149H340.148V90.6988H350.132V80.7149Z" fill="#FFD400"/>
<path d="M70.2261 10.8098H60.2422V20.8116H70.2261V10.8098Z" fill="#FFB600"/>
<path d="M330.147 0.789978H320.163V10.7738H330.147V0.789978Z" fill="#FFB600"/>
<path d="M360.135 10.774H350.133V20.7578H360.135V10.774Z" fill="#FFB600"/>
<path d="M10.305 50.7634H0.303223V60.7472H10.305V50.7634Z" fill="#FFF0B0"/>
<path d="M60.242 20.7939H50.2402V30.7777H60.242V20.7939Z" fill="#FFD400"/>
<path d="M310.18 10.774H300.178V20.7578H310.18V10.774Z" fill="#FFD400"/>
<path d="M70.2261 20.7939H60.2422V30.7777H70.2261V20.7939Z" fill="#FFB600"/>
<path d="M230.165 20.7759V30.7598H220.181V20.758H230.165V20.7759Z" fill="#FFB600"/>
<path d="M270.136 90.6989H260.152V100.683H270.136V90.6989Z" fill="#FFB600"/>
<path d="M260.152 90.6989H250.15V100.683H260.152V90.6989Z" fill="#FFB600"/>
<path d="M190.23 30.7595H180.228V40.7434H190.23V30.7595Z" fill="#FFB600"/>
<path d="M320.163 40.7435H310.179V50.7274H320.163V40.7435Z" fill="#FFD400"/>
<path d="M130.273 50.7454H120.289V60.7293H130.273V50.7454Z" fill="#FFD400"/>
<path d="M30.2541 0.825867H20.2703V10.8097H30.2541V0.825867Z" fill="#FFB600"/>
<path d="M300.177 80.7149H290.14V90.6988H300.177V80.7149Z" fill="#FFB600"/>
<path d="M20.2707 30.7774H10.2869V40.7613H20.2707V30.7774Z" fill="#FFD400"/>
<path d="M190.23 20.758H180.228V30.7598H190.23V20.758Z" fill="#FFB600"/>
<path d="M100.303 30.7595H90.2656V40.7434H100.303V30.7595Z" fill="#FFF0B0"/>
<path d="M270.136 40.7435H260.152V50.7274H270.136V40.7435Z" fill="#FFB600"/>
<path d="M140.274 0.789978H130.272V10.7738H140.274V0.789978Z" fill="#FFB600"/>
<path d="M330.147 80.7149H320.163V90.6988H330.147V80.7149Z" fill="#FFD400"/>
<path d="M160.26 40.7435H150.258V50.7453H160.26V40.7435Z" fill="#FFB600"/>
<path d="M100.303 50.7454H90.2656V60.7293H100.303V50.7454Z" fill="#FFB600"/>
<path d="M320.163 90.6989H310.179V100.683H320.163V90.6989Z" fill="#FFB600"/>
<path d="M200.214 20.758H190.23V30.7598H200.214V20.758Z" fill="#FFD400"/>
<path d="M20.2707 50.7634H10.2869V60.7472H20.2707V50.7634Z" fill="#FFD400"/>
<path d="M110.304 40.7435H100.302V50.7453H110.304V40.7435Z" fill="#FFD400"/>
<path d="M260.152 40.7435H250.15V50.7274H260.152V40.7435Z" fill="#FFD400"/>
<path d="M200.214 30.7595H190.23V40.7434H200.214V30.7595Z" fill="#FFD400"/>
<path d="M350.132 0.789978H340.148V10.7738H350.132V0.789978Z" fill="#FFF0B0"/>
<path d="M240.167 20.7759V30.7598H230.165V20.7759H240.167Z" fill="#FFB600"/>
<path d="M30.2541 80.7328H20.2703V90.7705H30.2541V80.7328Z" fill="#FFD400"/>
<path d="M300.177 40.7435H290.14V50.7274H300.177V40.7435Z" fill="#FFB600"/>
<path d="M10.305 20.7939H0.303223V30.7777H10.305V20.7939Z" fill="#FFB600"/>
<path d="M150.258 90.7523H140.274V100.754H150.258V90.7523Z" fill="#FFB600"/>
<path d="M330.147 90.6989H320.163V100.683H330.147V90.6989Z" fill="#FFB600"/>
<path d="M150.258 60.729H140.274V70.7308H150.258V60.729Z" fill="#FFD400"/>
<path d="M350.132 50.7275H340.148V60.7293H350.132V50.7275Z" fill="#FFB600"/>
<path d="M320.163 80.7149H310.179V90.6988H320.163V80.7149Z" fill="#FFD400"/>
<path d="M250.151 20.7759H240.167V30.7777H250.151V20.7759Z" fill="#FFD400"/>
<path d="M10.305 10.8098H0.303223V20.8116H10.305V10.8098Z" fill="#FFF0B0"/>
<path d="M300.177 90.6989H290.14V100.683H300.177V90.6989Z" fill="#FFB600"/>
<path d="M150.258 20.7759H140.274V30.7598H150.258V20.7759Z" fill="#FFD400"/>
<path d="M120.288 50.7454H110.304V60.7293H120.288V50.7454Z" fill="#FFD400"/>
<path d="M180.228 10.7738V0.789978H190.23V10.7738H180.228Z" fill="#FFF0B0"/>
<path d="M310.18 30.7595H300.178V40.7434H310.18V30.7595Z" fill="#FFD400"/>
<path d="M150.258 10.774H140.274V20.7758H150.258V10.774Z" fill="#FFB600"/>
<path d="M270.136 80.7149H260.152V90.6988H270.136V80.7149Z" fill="#FFB600"/>
<path d="M330.147 40.7435H320.163V50.7274H330.147V40.7435Z" fill="#FFD400"/>
<path d="M260.152 80.7149H250.15V90.6988H260.152V80.7149Z" fill="#FFD400"/>
<path d="M10.305 60.7469H0.303223V70.7487H10.305V60.7469Z" fill="#FFB600"/>
<path d="M340.148 10.774H330.146V20.7578H340.148V10.774Z" fill="#FFD400"/>
<path d="M310.18 20.758H300.178V30.7598H310.18V20.758Z" fill="#FFD400"/>
<path d="M270.136 60.729H260.152V70.7128H270.136V60.729Z" fill="#FFB600"/>
<path d="M320.163 10.774H310.179V20.7578H320.163V10.774Z" fill="#FFD400"/>
<path d="M200.214 70.713H190.23V80.7148H200.214V70.713Z" fill="#FFD400"/>
<path d="M110.304 90.7523H100.302V100.754H110.304V90.7523Z" fill="#FFB600"/>
<path d="M40.274 0.825867H30.2722V10.8097H40.274V0.825867Z" fill="#FFB600"/>
<path d="M160.26 90.7523H150.258V100.754H160.26V90.7523Z" fill="#FFB600"/>
<path d="M260.152 60.729H250.15V70.7128H260.152V60.729Z" fill="#FFD400"/>
<path d="M140.274 50.7454H130.272V60.7293H140.274V50.7454Z" fill="#FFD400"/>
<path d="M360.135 50.7275H350.133V60.7293H360.135V50.7275Z" fill="#FFB600"/>
<path d="M160.26 60.729H150.258V70.7308H160.26V60.729Z" fill="#FFB600"/>
<path d="M210.197 10.774H200.213V20.7578H210.197V10.774Z" fill="#FFB600"/>
<path d="M20.2707 0.825867H10.2869V10.8097H20.2707V0.825867Z" fill="#FFF0B0"/>
<path d="M50.2397 10.8098H40.2559V20.8116H50.2397V10.8098Z" fill="#FFD400"/>
<path d="M310.18 50.7275H300.178V60.7293H310.18V50.7275Z" fill="#FFD400"/>
<path d="M110.304 60.729H100.302V70.7308H110.304V60.729Z" fill="#FFD400"/>
<path d="M260.152 10.774H250.15V20.7578H260.152V10.774Z" fill="#FFD400"/>
<path d="M40.274 80.7328H30.2722V90.7705H40.274V80.7328Z" fill="#FFD400"/>
<path d="M230.165 30.7595V40.7434H220.181V30.7595H230.165Z" fill="#FFD400"/>
<path d="M160.26 20.7759H150.258V30.7598H160.26V20.7759Z" fill="#FFB600"/>
<path d="M100.303 70.7309H90.2656V80.7148H100.303V70.7309Z" fill="#FFB600"/>
<path d="M340.148 80.7149H330.146V90.6988H340.148V80.7149Z" fill="#FFD400"/>
<path d="M130.273 0.789978H120.289V10.7738H130.273V0.789978Z" fill="#FFB600"/>
<path d="M270.136 10.774H260.152V20.7578H270.136V10.774Z" fill="#FFB600"/>
<path d="M110.304 20.7759H100.302V30.7598H110.304V20.7759Z" fill="#FFD400"/>
<path d="M20.2707 70.7488H10.2869V80.7327H20.2707V70.7488Z" fill="#FFD400"/>
<path d="M20.2707 80.7328H10.2869V90.7705H20.2707V80.7328Z" fill="#FFB600"/>
<path d="M160.26 10.774H150.258V20.7758H160.26V10.774Z" fill="#FFB600"/>
<path d="M190.23 70.713H180.228V80.7148H190.23V70.713Z" fill="#FFB600"/>
<path d="M110.304 10.774H100.302V20.7758H110.304V10.774Z" fill="#FFB600"/>
<path d="M100.303 80.7149H90.2656V90.7526H100.303V80.7149Z" fill="#FFB600"/>
<path d="M240.167 10.774V20.7758H230.165V20.7578V10.774H240.167Z" fill="#FFB600"/>
<path d="M70.2261 70.7488H60.2422V80.7327H70.2261V70.7488Z" fill="#FFB600"/>
<path d="M220.181 10.774H210.197V20.7578H220.181V10.774Z" fill="#FFB600"/>
<path d="M10.305 40.7794H0.303223V50.7812H10.305V40.7794Z" fill="#FFB600"/>
<path d="M60.242 70.7488H50.2402V80.7327H60.242V70.7488Z" fill="#FFD400"/>
<path d="M300.177 10.774H290.14V20.7578H300.177V10.774Z" fill="#FFF0B0"/>
<path d="M200.214 50.7275H190.23V60.7293H200.214V50.7275Z" fill="#FFD400"/>
<path d="M310.18 70.713H300.178V80.7148H310.18V70.713Z" fill="#FFD400"/>
<path d="M340.148 90.6989H330.146V100.683H340.148V90.6989Z" fill="#FFB600"/>
<path d="M250.151 0.789978H240.167V10.7738H250.151V0.789978Z" fill="#FFB600"/>
<path d="M60.242 80.7328H50.2402V90.7705H60.242V80.7328Z" fill="#FFB600"/>
<path d="M70.2261 80.7328H60.2422V90.7705H70.2261V80.7328Z" fill="#FFB600"/>
<path d="M120.288 0.789978H110.304V10.7738H120.288V0.789978Z" fill="#FFF0B0"/>
<path d="M300.177 60.729H290.14V70.7128H300.177V60.729Z" fill="#FFF0B0"/>
<path d="M150.258 40.7435H140.274V50.7453H150.258V40.7435Z" fill="#FFD400"/>
<path d="M310.18 0.789978H300.178V10.7738H310.18V0.789978Z" fill="#FFF0B0"/>
<path d="M340.148 40.7435H330.146V50.7274H340.148V40.7435Z" fill="#FFD400"/>
<path d="M360.135 0.789978H350.133V10.7738H360.135V0.789978Z" fill="#FFB600"/>
<path d="M190.23 50.7275H180.228V60.7293H190.23V50.7275Z" fill="#FFF0B0"/>
<path d="M330.147 10.774H320.163V20.7578H330.147V10.774Z" fill="#FFD400"/>
<path d="M60.242 0.825867H50.2402V10.8097H60.242V0.825867Z" fill="#FFB600"/>
</svg>
