<svg width="28" height="26" viewBox="0 0 28 26" fill="none" xmlns="http://www.w3.org/2000/svg">
<path d="M4.12715 23.0781L8.08246 21.76L8.78559 22.0825C10.3875 22.9031 12.1259 23.3134 14.0009 23.3134C17.1846 23.2159 19.8359 22.1759 21.9546 20.1934C24.0734 18.2109 25.1721 15.8134 25.2509 13.0009C25.1728 10.1884 24.074 7.7909 21.9546 5.8084C19.8353 3.8259 17.184 2.7859 14.0009 2.6884C10.8171 2.7859 8.1659 3.8259 6.04715 5.8084C3.9284 7.7909 2.82965 10.1884 2.7509 13.0009C2.7509 14.0165 2.92684 15.0225 3.27871 16.0187C3.63059 17.015 4.14809 17.9525 4.83121 18.8312L5.47621 19.6806L4.12715 23.0781ZM2.77902 25.4809C2.40777 25.5984 2.09027 25.5153 1.82652 25.2315C1.56277 24.9478 1.49934 24.6206 1.63621 24.25L3.3359 19.9721C2.55465 18.9371 1.94902 17.8287 1.51902 16.6468C1.08902 15.465 0.874023 14.249 0.874023 12.999C0.952148 9.77652 2.20215 6.96902 4.62402 4.57652C7.0459 2.18402 10.1709 0.929023 13.999 0.811523C17.8271 0.929023 20.9521 2.18402 23.374 4.57652C25.7959 6.96902 27.0459 9.77652 27.124 12.999C27.0459 16.2215 25.7959 19.029 23.374 21.4215C20.9521 23.814 17.8271 25.069 13.999 25.1865C11.8703 25.1865 9.84871 24.7178 7.93434 23.7803L2.77902 25.4809ZM14 14.4943C13.7262 14.4943 13.4771 14.4309 13.2528 14.304C13.0284 14.1771 12.8478 13.9915 12.7109 13.7471C12.574 13.5028 12.5056 13.2537 12.5056 13C12.5056 12.7462 12.574 12.4971 12.7109 12.2528C12.8478 12.0084 13.0284 11.8228 13.2528 11.6959C13.4771 11.569 13.7262 11.5056 14 11.5056C14.43 11.5056 14.7865 11.6472 15.0696 11.9303C15.3528 12.2134 15.4943 12.57 15.4943 13C15.4943 13.43 15.3528 13.7865 15.0696 14.0696C14.7865 14.3528 14.43 14.4943 14 14.4943ZM19.625 14.4943C19.3512 14.4943 19.1021 14.4309 18.8778 14.304C18.6534 14.1771 18.4728 13.9915 18.3359 13.7471C18.199 13.5028 18.1306 13.2537 18.1306 13C18.1306 12.7462 18.199 12.4971 18.3359 12.2528C18.4728 12.0084 18.6534 11.8228 18.8778 11.6959C19.1021 11.569 19.3512 11.5056 19.625 11.5056C20.055 11.5056 20.4115 11.6472 20.6946 11.9303C20.9778 12.2134 21.1193 12.57 21.1193 13C21.1193 13.43 20.9778 13.7865 20.6946 14.0696C20.4115 14.3528 20.055 14.4943 19.625 14.4943ZM8.37496 14.4943C8.10121 14.4943 7.85215 14.4309 7.62777 14.304C7.4034 14.1771 7.22277 13.9915 7.0859 13.7471C6.94902 13.5028 6.88059 13.2537 6.88059 13C6.88059 12.7462 6.94902 12.4971 7.0859 12.2528C7.22277 12.0084 7.4034 11.8228 7.62777 11.6959C7.85215 11.569 8.10121 11.5056 8.37496 11.5056C8.80496 11.5056 9.16152 11.6472 9.44465 11.9303C9.72777 12.2134 9.86934 12.57 9.86934 13C9.86934 13.43 9.72777 13.7865 9.44465 14.0696C9.16152 14.3528 8.80496 14.4943 8.37496 14.4943Z" fill="#08080A" fill-opacity="0.96"/>
</svg>
