<svg id="Layer_1" data-name="Layer 1" xmlns="http://www.w3.org/2000/svg" xmlns:xlink="http://www.w3.org/1999/xlink" viewBox="0 0 200 200"><defs><style>.cls-1{isolation:isolate;}.cls-2{fill:url(#linear-gradient);}.cls-3{fill:url(#linear-gradient-2);}.cls-4{fill:url(#linear-gradient-3);}.cls-38,.cls-41,.cls-5,.cls-58,.cls-63,.cls-80,.cls-86{opacity:0.7;mix-blend-mode:overlay;}.cls-5{fill:url(#linear-gradient-4);}.cls-6{fill:#5e606f;}.cls-10,.cls-11,.cls-12,.cls-13,.cls-14,.cls-15,.cls-16,.cls-17,.cls-18,.cls-19,.cls-20,.cls-21,.cls-22,.cls-23,.cls-24,.cls-25,.cls-26,.cls-27,.cls-28,.cls-29,.cls-30,.cls-31,.cls-32,.cls-33,.cls-34,.cls-35,.cls-42,.cls-43,.cls-44,.cls-45,.cls-46,.cls-47,.cls-48,.cls-49,.cls-50,.cls-51,.cls-52,.cls-53,.cls-54,.cls-55,.cls-66,.cls-67,.cls-68,.cls-69,.cls-7,.cls-70,.cls-71,.cls-72,.cls-73,.cls-74,.cls-75,.cls-76,.cls-8,.cls-9{fill:#aec6df;}.cls-7{opacity:0;}.cls-8{opacity:0.04;}.cls-9{opacity:0.07;}.cls-10{opacity:0.11;}.cls-11{opacity:0.14;}.cls-12{opacity:0.18;}.cls-13{opacity:0.21;}.cls-14{opacity:0.25;}.cls-15{opacity:0.29;}.cls-16{opacity:0.32;}.cls-17{opacity:0.36;}.cls-18{opacity:0.39;}.cls-19{opacity:0.43;}.cls-20{opacity:0.46;}.cls-21{opacity:0.5;}.cls-22{opacity:0.54;}.cls-23{opacity:0.57;}.cls-24{opacity:0.61;}.cls-25{opacity:0.64;}.cls-26{opacity:0.68;}.cls-27{opacity:0.71;}.cls-28{opacity:0.75;}.cls-29{opacity:0.79;}.cls-30{opacity:0.82;}.cls-31{opacity:0.86;}.cls-32{opacity:0.89;}.cls-33{opacity:0.93;}.cls-34{opacity:0.96;}.cls-36{fill:url(#linear-gradient-5);}.cls-37{fill:url(#linear-gradient-6);}.cls-38{fill:url(#linear-gradient-7);}.cls-39{fill:url(#linear-gradient-8);}.cls-40{fill:url(#linear-gradient-9);}.cls-41{fill:url(#linear-gradient-10);}.cls-42{opacity:0.07;}.cls-43{opacity:0.13;}.cls-44{opacity:0.2;}.cls-45{opacity:0.27;}.cls-46{opacity:0.33;}.cls-47{opacity:0.4;}.cls-48{opacity:0.47;}.cls-49{opacity:0.53;}.cls-50{opacity:0.6;}.cls-51{opacity:0.67;}.cls-52{opacity:0.73;}.cls-53{opacity:0.8;}.cls-54{opacity:0.87;}.cls-55{opacity:0.93;}.cls-56{fill:url(#linear-gradient-11);}.cls-57{fill:url(#linear-gradient-12);}.cls-58{fill:url(#linear-gradient-13);}.cls-59{fill:url(#linear-gradient-14);}.cls-60{fill:url(#linear-gradient-15);}.cls-61{fill:url(#linear-gradient-16);}.cls-62{fill:url(#linear-gradient-17);}.cls-63{fill:url(#linear-gradient-18);}.cls-64{fill:url(#linear-gradient-19);}.cls-65{fill:url(#linear-gradient-20);}.cls-66{opacity:0.08;}.cls-67{opacity:0.17;}.cls-68{opacity:0.25;}.cls-69{opacity:0.33;}.cls-70{opacity:0.42;}.cls-71{opacity:0.5;}.cls-72{opacity:0.58;}.cls-73{opacity:0.67;}.cls-74{opacity:0.75;}.cls-75{opacity:0.83;}.cls-76{opacity:0.92;}.cls-77{fill:url(#linear-gradient-21);}.cls-78{fill:url(#linear-gradient-22);}.cls-79{fill:url(#linear-gradient-23);}.cls-80{fill:url(#linear-gradient-24);}.cls-81{fill:url(#linear-gradient-25);}.cls-82{fill:url(#linear-gradient-26);}.cls-83{fill:url(#linear-gradient-27);}.cls-84{fill:url(#linear-gradient-28);}.cls-85{fill:url(#linear-gradient-29);}.cls-86{fill:url(#linear-gradient-30);}.cls-87{fill:url(#linear-gradient-31);}.cls-88{fill:url(#linear-gradient-32);}</style><linearGradient id="linear-gradient" x1="38.4" y1="151.96" x2="25.38" y2="130.26" gradientUnits="userSpaceOnUse"><stop offset="0" stop-color="#f2f9ff"/><stop offset="0.59" stop-color="#b5d1e8"/><stop offset="0.72" stop-color="#a6c7e2"/><stop offset="0.78" stop-color="#a0c4df"/><stop offset="0.9" stop-color="#88adcf"/></linearGradient><linearGradient id="linear-gradient-2" x1="158.04" y1="186.85" x2="32.33" y2="61.7" gradientUnits="userSpaceOnUse"><stop offset="0" stop-color="#f2f9ff"/><stop offset="0.02" stop-color="#e7f2fb"/><stop offset="0.09" stop-color="#cfe2f2"/><stop offset="0.16" stop-color="#bdd6eb"/><stop offset="0.24" stop-color="#b0cde6"/><stop offset="0.35" stop-color="#a8c8e3"/><stop offset="0.57" stop-color="#a6c7e2"/><stop offset="0.77" stop-color="#a0c4df"/><stop offset="0.87" stop-color="#88adcf"/><stop offset="0.92" stop-color="#8bafd1"/><stop offset="0.95" stop-color="#94b7d7"/><stop offset="0.98" stop-color="#a4c5e0"/><stop offset="0.98" stop-color="#a6c7e2"/></linearGradient><linearGradient id="linear-gradient-3" x1="118.34" y1="55.25" x2="59.52" y2="213.04" gradientUnits="userSpaceOnUse"><stop offset="0" stop-color="#f2f9ff"/><stop offset="0.8" stop-color="#c0d6f2"/><stop offset="1" stop-color="#b3cdec"/></linearGradient><linearGradient id="linear-gradient-4" x1="130.03" y1="44.27" x2="84.26" y2="133.65" gradientUnits="userSpaceOnUse"><stop offset="0.08" stop-color="#fff"/><stop offset="1" stop-color="#fff" stop-opacity="0"/></linearGradient><linearGradient id="linear-gradient-5" x1="101.31" y1="107.88" x2="106.68" y2="17.61" gradientUnits="userSpaceOnUse"><stop offset="0" stop-color="#27bcf5"/><stop offset="0.67" stop-color="#2591e1"/><stop offset="0.69" stop-color="#2190df"/><stop offset="0.82" stop-color="#098ad3"/><stop offset="0.9" stop-color="#0088ce"/><stop offset="0.93" stop-color="#038cd1"/><stop offset="0.95" stop-color="#0b97d9"/><stop offset="0.97" stop-color="#19a9e6"/><stop offset="0.99" stop-color="#2dc2f9"/><stop offset="1" stop-color="#33caff"/></linearGradient><linearGradient id="linear-gradient-6" x1="71.05" y1="160.45" x2="112.15" y2="71.18" gradientUnits="userSpaceOnUse"><stop offset="0.02" stop-color="#33a0ff"/><stop offset="0.33" stop-color="#33bfff"/><stop offset="0.43" stop-color="#33caff"/><stop offset="1" stop-color="#7beeff"/></linearGradient><linearGradient id="linear-gradient-7" x1="104.34" y1="75.1" x2="102.74" y2="96.57" xlink:href="#linear-gradient-4"/><linearGradient id="linear-gradient-8" x1="102.17" y1="117.46" x2="99.7" y2="37.99" xlink:href="#linear-gradient-5"/><linearGradient id="linear-gradient-9" x1="86.22" y1="145.33" x2="108.07" y2="90.15" xlink:href="#linear-gradient-6"/><linearGradient id="linear-gradient-10" x1="86.22" y1="145.33" x2="108.07" y2="90.15" xlink:href="#linear-gradient-4"/><linearGradient id="linear-gradient-11" x1="23.89" y1="61.99" x2="29.99" y2="61.99" gradientUnits="userSpaceOnUse"><stop offset="0.08" stop-color="#0088ce"/><stop offset="0.54" stop-color="#18a7e5"/><stop offset="1" stop-color="#33caff"/></linearGradient><linearGradient id="linear-gradient-12" x1="24.57" y1="76.26" x2="42.69" y2="54.32" gradientUnits="userSpaceOnUse"><stop offset="0.07" stop-color="#33acff"/><stop offset="0.59" stop-color="#33caff"/><stop offset="1" stop-color="#7bddff"/></linearGradient><linearGradient id="linear-gradient-13" x1="38.38" y1="60.38" x2="27.27" y2="72.21" xlink:href="#linear-gradient-4"/><linearGradient id="linear-gradient-14" x1="28.66" y1="72.59" x2="30.84" y2="80.01" gradientUnits="userSpaceOnUse"><stop offset="0.09" stop-color="#005a88"/><stop offset="0.53" stop-color="#006fa7"/><stop offset="1" stop-color="#0088ce"/></linearGradient><linearGradient id="linear-gradient-15" x1="24.74" y1="65.02" x2="23.65" y2="76.81" xlink:href="#linear-gradient-14"/><linearGradient id="linear-gradient-16" x1="37.03" y1="63.13" x2="43.13" y2="63.13" xlink:href="#linear-gradient-11"/><linearGradient id="linear-gradient-17" x1="37.71" y1="77.4" x2="55.84" y2="55.45" xlink:href="#linear-gradient-12"/><linearGradient id="linear-gradient-18" x1="51.52" y1="61.51" x2="40.41" y2="73.34" xlink:href="#linear-gradient-4"/><linearGradient id="linear-gradient-19" x1="41.8" y1="73.72" x2="43.99" y2="81.14" xlink:href="#linear-gradient-14"/><linearGradient id="linear-gradient-20" x1="37.88" y1="66.15" x2="36.79" y2="77.94" xlink:href="#linear-gradient-14"/><linearGradient id="linear-gradient-21" x1="169.61" y1="113.4" x2="169.66" y2="123.86" xlink:href="#linear-gradient-14"/><linearGradient id="linear-gradient-22" x1="172.64" y1="123.06" x2="167.1" y2="124.72" xlink:href="#linear-gradient-14"/><linearGradient id="linear-gradient-23" x1="172.35" y1="130.51" x2="181.46" y2="94.63" xlink:href="#linear-gradient-12"/><linearGradient id="linear-gradient-24" x1="178.89" y1="111.78" x2="169.93" y2="128.76" gradientUnits="userSpaceOnUse"><stop offset="0.08" stop-color="#fff"/><stop offset="0.5" stop-color="#fff" stop-opacity="0.5"/><stop offset="1" stop-color="#fff" stop-opacity="0"/></linearGradient><linearGradient id="linear-gradient-25" x1="168.36" y1="130.82" x2="175.44" y2="130.82" xlink:href="#linear-gradient-14"/><linearGradient id="linear-gradient-26" x1="171.35" y1="121.5" x2="170.27" y2="130.92" xlink:href="#linear-gradient-14"/><linearGradient id="linear-gradient-27" x1="156.82" y1="112.11" x2="156.87" y2="122.57" xlink:href="#linear-gradient-14"/><linearGradient id="linear-gradient-28" x1="159.85" y1="121.78" x2="154.31" y2="123.43" xlink:href="#linear-gradient-14"/><linearGradient id="linear-gradient-29" x1="159.56" y1="129.23" x2="168.67" y2="93.34" xlink:href="#linear-gradient-12"/><linearGradient id="linear-gradient-30" x1="166.1" y1="110.49" x2="157.15" y2="127.47" xlink:href="#linear-gradient-24"/><linearGradient id="linear-gradient-31" x1="155.58" y1="129.53" x2="162.65" y2="129.53" xlink:href="#linear-gradient-14"/><linearGradient id="linear-gradient-32" x1="158.57" y1="120.21" x2="157.48" y2="129.63" xlink:href="#linear-gradient-14"/></defs><g class="cls-1"><path class="cls-2" d="M29.09,136.56a1.6,1.6,0,0,1-1.43-1.65l.42-12.1-4.23,3.55-.43,12.11a1.61,1.61,0,0,0,1.43,1.64,1.33,1.33,0,0,0,1-.31l4.23-3.55A1.39,1.39,0,0,1,29.09,136.56Z"/><path class="cls-3" d="M190.17,135.65l-4.24,3.56a13.8,13.8,0,0,1-10.4,3.09L39.43,128l4.23-3.56,136.11,14.31A13.78,13.78,0,0,0,190.17,135.65ZM22.22,122.19A16.17,16.17,0,0,1,8,105.76l1.2-33.64a15,15,0,0,1,.42-3,13.84,13.84,0,0,1,1-2.75,13.36,13.36,0,0,1,3.47-4.44h0L9.83,65.45A13.84,13.84,0,0,0,4.94,75.68L3.75,109.32A16.14,16.14,0,0,0,18,125.74l5.87.62,4.23-3.55Z"/><path class="cls-4" d="M182,75.36,24.47,58.8A13.67,13.67,0,0,0,9.18,72.12L8,105.76a16.17,16.17,0,0,0,14.24,16.43l5.86.62-.42,12.1a1.6,1.6,0,0,0,1.43,1.65,1.37,1.37,0,0,0,1-.33l13.53-11.79,136.11,14.31a13.67,13.67,0,0,0,15.29-13.33l1.19-33.64A16.14,16.14,0,0,0,182,75.36Z"/><path class="cls-5" d="M182,75.36,24.47,58.8A13.67,13.67,0,0,0,9.18,72.12L8,105.76a16.17,16.17,0,0,0,14.24,16.43l5.86.62-.42,12.1a1.6,1.6,0,0,0,1.43,1.65,1.37,1.37,0,0,0,1-.33l13.53-11.79,136.11,14.31a13.67,13.67,0,0,0,15.29-13.33l1.19-33.64A16.14,16.14,0,0,0,182,75.36Zm12.74,50.05a13.32,13.32,0,0,1-13.44,13.12c-.5,0-1,0-1.52-.08L43.57,124.13,29.94,136a1.06,1.06,0,0,1-.7.26h-.12A1.32,1.32,0,0,1,28,134.92l.43-12.38-6.14-.65a15.89,15.89,0,0,1-14-16.12l1.2-33.64A13.3,13.3,0,0,1,22.92,59a12.9,12.9,0,0,1,1.52.08L182,75.66a15.86,15.86,0,0,1,14,16.11Z"/></g><g class="cls-1"><g class="cls-1"><path class="cls-6" d="M168.76,99.57l-.95.8a2.65,2.65,0,0,1-1.95.58l.95-.8a2.6,2.6,0,0,0,1.95-.58"/></g><path class="cls-7" d="M164.08,97.53,36.64,84.13a2.57,2.57,0,0,0-2.87,2.5,3,3,0,0,0,2.67,3.08L163.88,103.1a2.56,2.56,0,0,0,2.87-2.5A3,3,0,0,0,164.08,97.53Z"/><path class="cls-8" d="M36.71,84.06a2.56,2.56,0,0,0-2.87,2.5,3,3,0,0,0,2.67,3.07L164,103a2.57,2.57,0,0,0,2.87-2.5,3,3,0,0,0-2.67-3.07Z"/><path class="cls-9" d="M36.78,84a2.56,2.56,0,0,0-2.87,2.49,3,3,0,0,0,2.68,3.08L164,103a2.57,2.57,0,0,0,2.87-2.5,3,3,0,0,0-2.67-3.08Z"/><path class="cls-10" d="M36.85,83.92A2.56,2.56,0,0,0,34,86.41a3,3,0,0,0,2.68,3.08l127.43,13.4a2.56,2.56,0,0,0,2.87-2.5,3,3,0,0,0-2.67-3.08Z"/><path class="cls-11" d="M36.93,83.85a2.57,2.57,0,0,0-2.88,2.49,3,3,0,0,0,2.68,3.08l127.44,13.4a2.56,2.56,0,0,0,2.86-2.5,3,3,0,0,0-2.67-3.08Z"/><path class="cls-12" d="M37,83.78a2.57,2.57,0,0,0-2.88,2.49,3,3,0,0,0,2.68,3.08l127.44,13.39a2.54,2.54,0,0,0,2.86-2.49,3,3,0,0,0-2.67-3.08Z"/><path class="cls-13" d="M37.07,83.71a2.57,2.57,0,0,0-2.88,2.49,3,3,0,0,0,2.68,3.08l127.44,13.39a2.55,2.55,0,0,0,2.86-2.49,3,3,0,0,0-2.66-3.08Z"/><path class="cls-14" d="M37.14,83.63a2.58,2.58,0,0,0-2.88,2.5,3,3,0,0,0,2.68,3.08L164.38,102.6a2.55,2.55,0,0,0,2.86-2.49A3,3,0,0,0,164.58,97Z"/><path class="cls-15" d="M37.21,83.56a2.57,2.57,0,0,0-2.87,2.5A3,3,0,0,0,37,89.14l127.44,13.39a2.56,2.56,0,0,0,2.87-2.5A3,3,0,0,0,164.65,97Z"/><path class="cls-16" d="M37.28,83.49A2.57,2.57,0,0,0,34.41,86a3,3,0,0,0,2.67,3.08l127.44,13.39a2.56,2.56,0,0,0,2.87-2.5,3,3,0,0,0-2.67-3.07Z"/><path class="cls-17" d="M37.35,83.42a2.56,2.56,0,0,0-2.87,2.5A3,3,0,0,0,37.15,89l127.44,13.4a2.57,2.57,0,0,0,2.87-2.5,3,3,0,0,0-2.67-3.07Z"/><path class="cls-18" d="M37.42,83.35a2.56,2.56,0,0,0-2.87,2.49,3,3,0,0,0,2.68,3.08l127.43,13.4a2.57,2.57,0,0,0,2.87-2.5,3,3,0,0,0-2.67-3.08Z"/><path class="cls-19" d="M37.49,83.28a2.56,2.56,0,0,0-2.87,2.49,3,3,0,0,0,2.68,3.08l127.43,13.4a2.56,2.56,0,0,0,2.87-2.5,3,3,0,0,0-2.67-3.08Z"/><path class="cls-20" d="M37.57,83.21a2.57,2.57,0,0,0-2.88,2.49,3,3,0,0,0,2.68,3.08l127.44,13.4a2.56,2.56,0,0,0,2.86-2.5A3,3,0,0,0,165,96.6Z"/><path class="cls-21" d="M37.64,83.14a2.57,2.57,0,0,0-2.88,2.49,3,3,0,0,0,2.68,3.08L164.88,102.1a2.54,2.54,0,0,0,2.86-2.49,3,3,0,0,0-2.67-3.08Z"/><path class="cls-22" d="M37.71,83.07a2.57,2.57,0,0,0-2.88,2.49,3,3,0,0,0,2.68,3.08L165,102a2.55,2.55,0,0,0,2.86-2.49,3,3,0,0,0-2.66-3.08Z"/><path class="cls-23" d="M37.78,83a2.58,2.58,0,0,0-2.88,2.5,3,3,0,0,0,2.68,3.08L165,102a2.55,2.55,0,0,0,2.86-2.49,3,3,0,0,0-2.66-3.08Z"/><path class="cls-24" d="M37.85,82.92A2.57,2.57,0,0,0,35,85.42a3,3,0,0,0,2.67,3.08l127.44,13.39a2.56,2.56,0,0,0,2.87-2.5,3,3,0,0,0-2.67-3.07Z"/><path class="cls-25" d="M37.92,82.85a2.57,2.57,0,0,0-2.87,2.5,3,3,0,0,0,2.67,3.08l127.44,13.39a2.56,2.56,0,0,0,2.87-2.5,3,3,0,0,0-2.67-3.07Z"/><path class="cls-26" d="M38,82.78a2.56,2.56,0,0,0-2.87,2.5,3,3,0,0,0,2.67,3.07l127.44,13.4a2.57,2.57,0,0,0,2.87-2.5,3,3,0,0,0-2.67-3.07Z"/><path class="cls-27" d="M38.06,82.71a2.56,2.56,0,0,0-2.87,2.49,3,3,0,0,0,2.68,3.08l127.43,13.4a2.57,2.57,0,0,0,2.87-2.5,3,3,0,0,0-2.67-3.08Z"/><path class="cls-28" d="M38.13,82.64a2.56,2.56,0,0,0-2.87,2.49,3,3,0,0,0,2.68,3.08l127.43,13.4a2.56,2.56,0,0,0,2.87-2.5A3,3,0,0,0,165.57,96Z"/><path class="cls-29" d="M38.21,82.57a2.57,2.57,0,0,0-2.88,2.49A3,3,0,0,0,38,88.14l127.44,13.4a2.56,2.56,0,0,0,2.86-2.5A3,3,0,0,0,165.64,96Z"/><path class="cls-30" d="M38.28,82.5A2.57,2.57,0,0,0,35.4,85a3,3,0,0,0,2.68,3.08l127.44,13.39A2.55,2.55,0,0,0,168.38,99a3,3,0,0,0-2.67-3.08Z"/><path class="cls-31" d="M38.35,82.43a2.57,2.57,0,0,0-2.88,2.49A3,3,0,0,0,38.15,88l127.44,13.39a2.55,2.55,0,0,0,2.86-2.49,3,3,0,0,0-2.66-3.08Z"/><path class="cls-32" d="M38.42,82.35a2.57,2.57,0,0,0-2.87,2.5,3,3,0,0,0,2.67,3.08l127.44,13.39a2.55,2.55,0,0,0,2.86-2.49,3,3,0,0,0-2.66-3.08Z"/><path class="cls-33" d="M38.49,82.28a2.57,2.57,0,0,0-2.87,2.5,3,3,0,0,0,2.67,3.08l127.44,13.39a2.56,2.56,0,0,0,2.87-2.5,3,3,0,0,0-2.67-3.07Z"/><path class="cls-34" d="M38.56,82.21a2.57,2.57,0,0,0-2.87,2.5,3,3,0,0,0,2.67,3.08L165.8,101.18a2.56,2.56,0,0,0,2.87-2.5A3,3,0,0,0,166,95.61Z"/><path class="cls-35" d="M166.07,95.54,38.63,82.14a2.56,2.56,0,0,0-2.87,2.5,3,3,0,0,0,2.67,3.07l127.44,13.4a2.57,2.57,0,0,0,2.87-2.5A3,3,0,0,0,166.07,95.54Z"/><path class="cls-36" d="M166.81,100.15,39.37,86.75a3,3,0,0,1-2.68-3.08,2.6,2.6,0,0,1,.92-1.91l-1,.8a2.6,2.6,0,0,0-.92,1.91,3,3,0,0,0,2.68,3.08L165.86,101a2.65,2.65,0,0,0,1.95-.58l.95-.8A2.6,2.6,0,0,1,166.81,100.15Z"/><path class="cls-37" d="M167,94.57,39.57,81.18a2.57,2.57,0,0,0-2.88,2.49,3,3,0,0,0,2.68,3.08l127.44,13.4a2.56,2.56,0,0,0,2.86-2.5A3,3,0,0,0,167,94.57Z"/><path class="cls-38" d="M167,94.57,39.57,81.18a2.57,2.57,0,0,0-2.88,2.49,3,3,0,0,0,2.68,3.08l127.44,13.4a2.56,2.56,0,0,0,2.86-2.5A3,3,0,0,0,167,94.57Zm.1,5.29h-.26L39.4,86.46A2.74,2.74,0,0,1,37,83.69a2.26,2.26,0,0,1,2.28-2.22h.27L167,94.87a2.73,2.73,0,0,1,2.4,2.77A2.24,2.24,0,0,1,167.1,99.86Z"/></g><g class="cls-1"><path class="cls-7" d="M136.83,107.53,62.91,99.84a2.57,2.57,0,0,0-2.87,2.5,3,3,0,0,0,2.68,3.08l73.91,7.68a2.55,2.55,0,0,0,2.87-2.49A3,3,0,0,0,136.83,107.53Z"/><path class="cls-8" d="M63,99.77a2.57,2.57,0,0,0-2.87,2.5,3,3,0,0,0,2.68,3.08L136.71,113a2.55,2.55,0,0,0,2.86-2.49,3,3,0,0,0-2.67-3.08Z"/><path class="cls-9" d="M63.06,99.7a2.58,2.58,0,0,0-2.88,2.5,3,3,0,0,0,2.68,3.08L136.78,113a2.55,2.55,0,0,0,2.86-2.5,3,3,0,0,0-2.67-3.07Z"/><path class="cls-10" d="M63.13,99.63a2.57,2.57,0,0,0-2.88,2.5,3,3,0,0,0,2.68,3.07l73.92,7.69a2.56,2.56,0,0,0,2.86-2.5,3,3,0,0,0-2.66-3.07Z"/><path class="cls-11" d="M63.2,99.56a2.57,2.57,0,0,0-2.88,2.49A3,3,0,0,0,63,105.13l73.92,7.69a2.56,2.56,0,0,0,2.86-2.5,3,3,0,0,0-2.66-3.08Z"/><path class="cls-12" d="M63.27,99.49A2.57,2.57,0,0,0,60.39,102a3,3,0,0,0,2.68,3.08L137,112.75a2.57,2.57,0,0,0,2.87-2.5,3,3,0,0,0-2.67-3.08Z"/><path class="cls-13" d="M63.34,99.42a2.56,2.56,0,0,0-2.87,2.49A3,3,0,0,0,63.14,105l73.92,7.69a2.57,2.57,0,0,0,2.87-2.5,3,3,0,0,0-2.67-3.08Z"/><path class="cls-14" d="M63.41,99.35a2.56,2.56,0,0,0-2.87,2.49,3,3,0,0,0,2.67,3.08l73.92,7.68a2.56,2.56,0,0,0,2.87-2.49,3,3,0,0,0-2.67-3.08Z"/><path class="cls-15" d="M63.48,99.27a2.57,2.57,0,0,0-2.87,2.5,3,3,0,0,0,2.67,3.08l73.92,7.68a2.56,2.56,0,0,0,2.87-2.49A3,3,0,0,0,137.4,107Z"/><path class="cls-16" d="M63.55,99.2a2.57,2.57,0,0,0-2.87,2.5,3,3,0,0,0,2.68,3.08l73.91,7.68a2.55,2.55,0,0,0,2.87-2.49,3,3,0,0,0-2.67-3.08Z"/><path class="cls-17" d="M63.62,99.13a2.57,2.57,0,0,0-2.87,2.5,3,3,0,0,0,2.68,3.08l73.92,7.68a2.55,2.55,0,0,0,2.86-2.49,3,3,0,0,0-2.67-3.08Z"/><path class="cls-18" d="M63.7,99.06a2.58,2.58,0,0,0-2.88,2.5,3,3,0,0,0,2.68,3.08l73.92,7.68a2.55,2.55,0,0,0,2.86-2.5,3,3,0,0,0-2.67-3.07Z"/><path class="cls-19" d="M63.77,99a2.57,2.57,0,0,0-2.88,2.5,3,3,0,0,0,2.68,3.07l73.92,7.69a2.56,2.56,0,0,0,2.86-2.5,3,3,0,0,0-2.66-3.07Z"/><path class="cls-20" d="M63.84,98.92A2.57,2.57,0,0,0,61,101.41a3,3,0,0,0,2.68,3.08l73.92,7.69a2.56,2.56,0,0,0,2.86-2.5,3,3,0,0,0-2.66-3.08Z"/><path class="cls-21" d="M63.91,98.85A2.57,2.57,0,0,0,61,101.34a3,3,0,0,0,2.68,3.08l73.92,7.69a2.57,2.57,0,0,0,2.87-2.5,3,3,0,0,0-2.67-3.08Z"/><path class="cls-22" d="M64,98.78a2.56,2.56,0,0,0-2.87,2.49,3,3,0,0,0,2.67,3.08L137.7,112a2.57,2.57,0,0,0,2.87-2.5,3,3,0,0,0-2.67-3.08Z"/><path class="cls-23" d="M64.05,98.71a2.56,2.56,0,0,0-2.87,2.49,3,3,0,0,0,2.67,3.08L137.77,112a2.56,2.56,0,0,0,2.87-2.49,3,3,0,0,0-2.67-3.08Z"/><path class="cls-24" d="M64.12,98.63a2.57,2.57,0,0,0-2.87,2.5,3,3,0,0,0,2.67,3.08l73.92,7.68a2.56,2.56,0,0,0,2.87-2.49,3,3,0,0,0-2.67-3.08Z"/><path class="cls-25" d="M64.19,98.56a2.57,2.57,0,0,0-2.87,2.5A3,3,0,0,0,64,104.14l73.91,7.68a2.55,2.55,0,0,0,2.87-2.49,3,3,0,0,0-2.67-3.08Z"/><path class="cls-26" d="M64.26,98.49a2.57,2.57,0,0,0-2.87,2.5,3,3,0,0,0,2.68,3.08L138,111.75a2.55,2.55,0,0,0,2.86-2.49,3,3,0,0,0-2.67-3.08Z"/><path class="cls-27" d="M64.34,98.42a2.58,2.58,0,0,0-2.88,2.5A3,3,0,0,0,64.14,104l73.92,7.68a2.55,2.55,0,0,0,2.86-2.5,3,3,0,0,0-2.67-3.07Z"/><path class="cls-28" d="M64.41,98.35a2.57,2.57,0,0,0-2.88,2.5,3,3,0,0,0,2.68,3.07l73.92,7.69a2.56,2.56,0,0,0,2.86-2.5,3,3,0,0,0-2.66-3.07Z"/><path class="cls-29" d="M64.48,98.28a2.57,2.57,0,0,0-2.88,2.49,3,3,0,0,0,2.68,3.08l73.92,7.69a2.56,2.56,0,0,0,2.86-2.5A3,3,0,0,0,138.4,106Z"/><path class="cls-30" d="M64.55,98.21a2.57,2.57,0,0,0-2.88,2.49,3,3,0,0,0,2.68,3.08l73.92,7.69a2.57,2.57,0,0,0,2.87-2.5,3,3,0,0,0-2.67-3.08Z"/><path class="cls-31" d="M64.62,98.14a2.56,2.56,0,0,0-2.87,2.49,3,3,0,0,0,2.67,3.08l73.92,7.69a2.57,2.57,0,0,0,2.87-2.5,3,3,0,0,0-2.67-3.08Z"/><path class="cls-32" d="M64.69,98.07a2.56,2.56,0,0,0-2.87,2.49,3,3,0,0,0,2.67,3.08l73.92,7.68a2.56,2.56,0,0,0,2.87-2.49,3,3,0,0,0-2.67-3.08Z"/><path class="cls-33" d="M64.76,98a2.57,2.57,0,0,0-2.87,2.5,3,3,0,0,0,2.67,3.08l73.92,7.68a2.56,2.56,0,0,0,2.87-2.49,3,3,0,0,0-2.67-3.08Z"/><path class="cls-34" d="M64.83,97.92a2.57,2.57,0,0,0-2.87,2.5,3,3,0,0,0,2.68,3.08l73.91,7.68a2.55,2.55,0,0,0,2.87-2.49,3,3,0,0,0-2.67-3.08Z"/><path class="cls-35" d="M138.82,105.54,64.9,97.85a2.57,2.57,0,0,0-2.87,2.5,3,3,0,0,0,2.68,3.08l73.92,7.68a2.55,2.55,0,0,0,2.86-2.49A3,3,0,0,0,138.82,105.54Z"/><path class="cls-39" d="M139.59,110.33l-73.93-7.77A3,3,0,0,1,63,99.47a2.61,2.61,0,0,1,.91-1.91l-.95.79a2.63,2.63,0,0,0-.91,1.92,3,3,0,0,0,2.67,3.09l73.93,7.77a2.57,2.57,0,0,0,2-.59l.95-.79A2.6,2.6,0,0,1,139.59,110.33Z"/><path class="cls-40" d="M139.79,104.75,65.86,97A2.56,2.56,0,0,0,63,99.47a3,3,0,0,0,2.67,3.09l73.93,7.77a2.57,2.57,0,0,0,2.87-2.51A3,3,0,0,0,139.79,104.75Z"/><path class="cls-41" d="M139.79,104.75,65.86,97A2.56,2.56,0,0,0,63,99.47a3,3,0,0,0,2.67,3.09l73.93,7.77a2.57,2.57,0,0,0,2.87-2.51A3,3,0,0,0,139.79,104.75Zm.09,5.29h-.26l-73.93-7.77a2.73,2.73,0,0,1-2.4-2.78,2.25,2.25,0,0,1,2.27-2.22h.26l73.93,7.78a2.72,2.72,0,0,1,2.41,2.76A2.26,2.26,0,0,1,139.88,110Z"/></g><g class="cls-1"><polygon class="cls-7" points="34.03 60.68 28.02 59.32 22.87 67.27 22.61 76.22 33.34 77.05 33.38 67.13 30.19 66.91 34.03 60.68"/><polygon class="cls-42" points="28.1 59.26 22.95 67.21 22.69 76.16 33.41 76.99 33.46 67.07 30.27 66.85 34.11 60.62 28.1 59.26"/><polygon class="cls-43" points="28.17 59.2 23.02 67.15 22.77 76.1 33.49 76.93 33.54 67.01 30.34 66.79 34.18 60.55 28.17 59.2"/><polygon class="cls-44" points="28.25 59.14 23.1 67.09 22.84 76.04 33.56 76.87 33.61 66.95 30.42 66.73 34.26 60.49 28.25 59.14"/><polygon class="cls-45" points="28.33 59.08 23.18 67.03 22.92 75.98 33.64 76.81 33.69 66.89 30.5 66.67 34.34 60.43 28.33 59.08"/><polygon class="cls-46" points="28.4 59.02 23.25 66.97 23 75.92 33.72 76.75 33.77 66.83 30.57 66.61 34.41 60.37 28.4 59.02"/><polygon class="cls-47" points="28.48 58.96 23.33 66.91 23.07 75.86 33.79 76.69 33.84 66.77 30.65 66.55 34.49 60.31 28.48 58.96"/><polygon class="cls-48" points="28.56 58.9 23.41 66.85 23.15 75.8 33.87 76.63 33.92 66.71 30.73 66.48 34.56 60.25 28.56 58.9"/><polygon class="cls-49" points="28.63 58.84 23.48 66.79 23.23 75.74 33.95 76.57 34 66.65 30.8 66.42 34.64 60.19 28.63 58.84"/><polygon class="cls-50" points="28.71 58.77 23.56 66.73 23.3 75.68 34.02 76.51 34.07 66.58 30.88 66.36 34.72 60.13 28.71 58.77"/><polygon class="cls-51" points="28.79 58.72 23.64 66.67 23.38 75.62 34.1 76.45 34.15 66.53 30.95 66.3 34.79 60.07 28.79 58.72"/><polygon class="cls-52" points="28.86 58.66 23.71 66.61 23.45 75.56 34.18 76.39 34.23 66.47 31.03 66.24 34.87 60.01 28.86 58.66"/><polygon class="cls-53" points="28.94 58.59 23.79 66.55 23.53 75.5 34.25 76.33 34.3 66.4 31.11 66.18 34.95 59.95 28.94 58.59"/><polygon class="cls-54" points="29.02 58.53 23.86 66.49 23.61 75.44 34.33 76.27 34.38 66.34 31.18 66.12 35.02 59.89 29.02 58.53"/><polygon class="cls-55" points="29.09 58.47 23.94 66.43 23.68 75.38 34.41 76.21 34.45 66.28 31.26 66.06 35.1 59.83 29.09 58.47"/><polygon class="cls-35" points="35.18 59.77 29.17 58.41 24.02 66.37 23.76 75.32 34.48 76.15 34.53 66.22 31.34 66 35.18 59.77"/><polygon class="cls-56" points="29.04 58.41 23.89 66.37 24.84 65.57 29.99 57.62 29.04 58.41"/><polygon class="cls-57" points="36 58.97 29.99 57.62 24.84 65.57 24.58 74.52 35.3 75.35 35.35 65.43 32.16 65.2 36 58.97"/><path class="cls-58" d="M36,59l-6-1.35-5.15,7.95-.26,9,10.73.83,0-9.92-3.19-.23Zm-1,6.74L35,75l-10.12-.79.25-8.58,5-7.71,5.39,1.22-3.88,6.3Z"/><polygon class="cls-59" points="24.58 74.52 23.63 75.32 34.35 76.15 35.3 75.35 24.58 74.52"/><polygon class="cls-60" points="23.89 66.37 23.63 75.32 24.58 74.52 24.84 65.57 23.89 66.37"/></g><g class="cls-1"><polygon class="cls-7" points="47.17 61.81 41.16 60.45 36.01 68.41 35.76 77.36 46.48 78.19 46.53 68.26 43.33 68.04 47.17 61.81"/><polygon class="cls-42" points="41.24 60.39 36.09 68.35 35.83 77.3 46.56 78.13 46.6 68.2 43.41 67.98 47.25 61.75 41.24 60.39"/><polygon class="cls-43" points="41.32 60.33 36.17 68.29 35.91 77.24 46.63 78.07 46.68 68.14 43.49 67.92 47.33 61.69 41.32 60.33"/><polygon class="cls-44" points="41.39 60.27 36.24 68.23 35.99 77.18 46.71 78.01 46.76 68.08 43.56 67.86 47.4 61.63 41.39 60.27"/><polygon class="cls-45" points="41.47 60.21 36.32 68.17 36.06 77.12 46.78 77.95 46.83 68.02 43.64 67.8 47.48 61.57 41.47 60.21"/><polygon class="cls-46" points="41.55 60.15 36.4 68.11 36.14 77.06 46.86 77.89 46.91 67.96 43.72 67.74 47.56 61.51 41.55 60.15"/><polygon class="cls-47" points="41.62 60.09 36.47 68.05 36.22 77 46.94 77.83 46.99 67.9 43.79 67.68 47.63 61.45 41.62 60.09"/><polygon class="cls-48" points="41.7 60.03 36.55 67.98 36.29 76.94 47.01 77.77 47.06 67.84 43.87 67.62 47.71 61.39 41.7 60.03"/><polygon class="cls-49" points="41.78 59.97 36.63 67.92 36.37 76.87 47.09 77.7 47.14 67.78 43.95 67.56 47.78 61.33 41.78 59.97"/><polygon class="cls-50" points="41.85 59.91 36.7 67.86 36.45 76.81 47.17 77.64 47.22 67.72 44.02 67.5 47.86 61.27 41.85 59.91"/><polygon class="cls-51" points="41.93 59.85 36.78 67.8 36.52 76.75 47.24 77.58 47.29 67.66 44.1 67.44 47.94 61.21 41.93 59.85"/><polygon class="cls-52" points="42.01 59.79 36.85 67.74 36.6 76.69 47.32 77.52 47.37 67.6 44.17 67.38 48.01 61.15 42.01 59.79"/><polygon class="cls-53" points="42.08 59.73 36.93 67.68 36.67 76.63 47.4 77.46 47.45 67.54 44.25 67.32 48.09 61.09 42.08 59.73"/><polygon class="cls-54" points="42.16 59.67 37.01 67.62 36.75 76.57 47.47 77.4 47.52 67.48 44.33 67.26 48.17 61.02 42.16 59.67"/><polygon class="cls-55" points="42.23 59.61 37.08 67.56 36.83 76.51 47.55 77.34 47.6 67.42 44.4 67.19 48.24 60.96 42.23 59.61"/><polygon class="cls-35" points="48.32 60.9 42.31 59.55 37.16 67.5 36.9 76.45 47.63 77.28 47.67 67.36 44.48 67.14 48.32 60.9"/><polygon class="cls-61" points="42.18 59.55 37.03 67.5 37.98 66.7 43.13 58.75 42.18 59.55"/><polygon class="cls-62" points="49.14 60.11 43.13 58.75 37.98 66.7 37.73 75.65 48.45 76.48 48.5 66.56 45.3 66.34 49.14 60.11"/><path class="cls-63" d="M49.14,60.11l-6-1.36L38,66.7l-.25,9,10.72.83,0-9.92-3.2-.22Zm-.94,6.73-.05,9.32L38,75.38l.25-8.58,5-7.71,5.4,1.22L44.79,66.6Z"/><polygon class="cls-64" points="37.73 75.65 36.77 76.45 47.5 77.28 48.45 76.48 37.73 75.65"/><polygon class="cls-65" points="37.03 67.5 36.77 76.45 37.73 75.65 37.98 66.7 37.03 67.5"/></g><g class="cls-1"><polygon class="cls-7" points="168.55 114.92 168.14 124.63 171.34 124.91 167.55 131.27 173.68 132.81 178.82 124.92 179.33 115.87 168.55 114.92"/><polygon class="cls-66" points="168.62 114.85 168.21 124.56 171.41 124.84 167.62 131.2 173.74 132.74 178.89 124.85 179.39 115.8 168.62 114.85"/><polygon class="cls-67" points="168.68 114.78 168.28 124.48 171.48 124.77 167.69 131.13 173.81 132.67 178.96 124.78 179.46 115.73 168.68 114.78"/><polygon class="cls-68" points="168.75 114.71 168.34 124.41 171.55 124.7 167.75 131.06 173.88 132.6 179.03 124.7 179.53 115.66 168.75 114.71"/><polygon class="cls-69" points="168.82 114.64 168.41 124.34 171.61 124.62 167.82 130.98 173.94 132.53 179.09 124.63 179.6 115.59 168.82 114.64"/><polygon class="cls-70" points="168.89 114.56 168.48 124.27 171.68 124.55 167.89 130.91 174.01 132.46 179.16 124.56 179.66 115.51 168.89 114.56"/><polygon class="cls-71" points="168.95 114.49 168.55 124.2 171.75 124.48 167.96 130.84 174.08 132.38 179.23 124.49 179.73 115.44 168.95 114.49"/><polygon class="cls-72" points="169.02 114.42 168.62 124.12 171.82 124.41 168.02 130.77 174.15 132.31 179.3 124.42 179.8 115.37 169.02 114.42"/><polygon class="cls-73" points="169.09 114.35 168.68 124.05 171.88 124.34 168.09 130.69 174.22 132.24 179.36 124.34 179.87 115.3 169.09 114.35"/><polygon class="cls-74" points="169.16 114.28 168.75 123.98 171.95 124.26 168.16 130.62 174.28 132.17 179.43 124.27 179.94 115.23 169.16 114.28"/><polygon class="cls-75" points="169.22 114.2 168.82 123.91 172.02 124.19 168.23 130.55 174.35 132.09 179.5 124.2 180 115.15 169.22 114.2"/><polygon class="cls-76" points="169.29 114.13 168.89 123.84 172.09 124.12 168.29 130.48 174.42 132.02 179.57 124.13 180.07 115.08 169.29 114.13"/><polygon class="cls-35" points="169.36 114.06 168.95 123.76 172.15 124.05 168.36 130.41 174.49 131.95 179.63 124.06 180.14 115.01 169.36 114.06"/><polygon class="cls-77" points="169.36 114.1 168.95 123.8 169.91 123 170.31 113.3 169.36 114.1"/><polygon class="cls-78" points="169.91 123 168.95 123.8 172.15 124.09 173.1 123.29 169.91 123"/><polygon class="cls-79" points="170.31 113.3 169.91 123 173.1 123.29 169.31 129.65 175.44 131.19 180.59 123.3 181.09 114.25 170.31 113.3"/><path class="cls-80" d="M170.31,113.3,169.9,123l3.21.28-3.8,6.36,6.13,1.54,5.15-7.89.5-9Zm10,9.9-5,7.65-5.52-1.39,3.83-6.43-3.39-.3.38-9.1,10.17.9Z"/><polygon class="cls-81" points="169.31 129.65 168.36 130.45 174.49 131.99 175.44 131.19 169.31 129.65"/><polygon class="cls-82" points="172.15 124.09 168.36 130.45 169.31 129.65 173.1 123.29 172.15 124.09"/></g><g class="cls-1"><polygon class="cls-7" points="155.76 113.64 155.36 123.34 158.56 123.62 154.77 129.98 160.89 131.53 166.04 123.63 166.54 114.58 155.76 113.64"/><polygon class="cls-66" points="155.83 113.56 155.43 123.27 158.63 123.55 154.83 129.91 160.96 131.45 166.11 123.56 166.61 114.51 155.83 113.56"/><polygon class="cls-67" points="155.9 113.49 155.49 123.19 158.69 123.48 154.9 129.84 161.03 131.38 166.17 123.49 166.68 114.44 155.9 113.49"/><polygon class="cls-68" points="155.97 113.42 155.56 123.12 158.76 123.41 154.97 129.77 161.09 131.31 166.24 123.42 166.75 114.37 155.97 113.42"/><polygon class="cls-69" points="156.03 113.35 155.63 123.05 158.83 123.34 155.04 129.69 161.16 131.24 166.31 123.34 166.81 114.3 156.03 113.35"/><polygon class="cls-70" points="156.1 113.28 155.7 122.98 158.9 123.26 155.1 129.62 161.23 131.17 166.38 123.27 166.88 114.22 156.1 113.28"/><polygon class="cls-71" points="156.17 113.2 155.76 122.91 158.96 123.19 155.17 129.55 161.3 131.09 166.44 123.2 166.95 114.15 156.17 113.2"/><polygon class="cls-72" points="156.24 113.13 155.83 122.83 159.03 123.12 155.24 129.48 161.36 131.02 166.51 123.13 167.01 114.08 156.24 113.13"/><polygon class="cls-73" points="156.3 113.06 155.9 122.76 159.1 123.05 155.31 129.41 161.43 130.95 166.58 123.06 167.08 114.01 156.3 113.06"/><polygon class="cls-74" points="156.37 112.99 155.97 122.69 159.17 122.98 155.38 129.33 161.5 130.88 166.65 122.98 167.15 113.94 156.37 112.99"/><polygon class="cls-75" points="156.44 112.92 156.03 122.62 159.23 122.9 155.44 129.26 161.57 130.81 166.72 122.91 167.22 113.86 156.44 112.92"/><polygon class="cls-76" points="156.51 112.84 156.1 122.55 159.3 122.83 155.51 129.19 161.63 130.73 166.78 122.84 167.28 113.79 156.51 112.84"/><polygon class="cls-35" points="156.57 112.77 156.17 122.47 159.37 122.76 155.58 129.12 161.7 130.66 166.85 122.77 167.35 113.72 156.57 112.77"/><polygon class="cls-83" points="156.57 112.81 156.17 122.52 157.12 121.72 157.53 112.01 156.57 112.81"/><polygon class="cls-84" points="157.12 121.72 156.17 122.52 159.37 122.8 160.32 122 157.12 121.72"/><polygon class="cls-85" points="157.53 112.01 157.12 121.72 160.32 122 156.53 128.36 162.65 129.9 167.8 122.01 168.3 112.96 157.53 112.01"/><path class="cls-86" d="M157.53,112l-.41,9.71,3.2.28-3.79,6.36,6.12,1.54L167.8,122l.5-9.05Zm10,9.9-5,7.65L157,128.17l3.83-6.43-3.39-.3.38-9.1,10.18.9Z"/><polygon class="cls-87" points="156.53 128.36 155.58 129.16 161.7 130.7 162.65 129.9 156.53 128.36"/><polygon class="cls-88" points="159.37 122.8 155.58 129.16 156.53 128.36 160.32 122 159.37 122.8"/></g></svg>