<svg xmlns="http://www.w3.org/2000/svg" xmlns:xlink="http://www.w3.org/1999/xlink" viewBox="0 0 200 200"><defs><style>.cls-1{isolation:isolate;}.cls-2{fill:url(#linear-gradient);}.cls-3{fill:url(#linear-gradient-2);}.cls-4{fill:url(#linear-gradient-3);}.cls-5{fill:url(#linear-gradient-4);}.cls-6{fill:url(#linear-gradient-5);}.cls-7{fill:url(#linear-gradient-6);}.cls-8{fill:url(#linear-gradient-7);}.cls-9{opacity:0.7;mix-blend-mode:overlay;fill:url(#linear-gradient-8);}</style><linearGradient id="linear-gradient" x1="127.09" y1="21.81" x2="139.01" y2="175.2" gradientUnits="userSpaceOnUse"><stop offset="0" stop-color="#f2f9ff"/><stop offset="0.02" stop-color="#f0f8fe"/><stop offset="0.02" stop-color="#e9f3fb"/><stop offset="0.03" stop-color="#dceaf6"/><stop offset="0.03" stop-color="#dbe9f5"/><stop offset="0.15" stop-color="#d9e8f4"/><stop offset="0.21" stop-color="#d1e3f2"/><stop offset="0.26" stop-color="#c4daed"/><stop offset="0.3" stop-color="#b2cfe6"/><stop offset="0.32" stop-color="#a6c7e2"/><stop offset="0.77" stop-color="#a0c4df"/><stop offset="0.87" stop-color="#88adcf"/><stop offset="0.92" stop-color="#8bafd1"/><stop offset="0.95" stop-color="#94b7d7"/><stop offset="0.98" stop-color="#a4c5e0"/><stop offset="0.98" stop-color="#a6c7e2"/></linearGradient><linearGradient id="linear-gradient-2" x1="84.14" y1="183.69" x2="61.39" y2="27.11" gradientUnits="userSpaceOnUse"><stop offset="0.07" stop-color="#33acff"/><stop offset="0.59" stop-color="#33caff"/><stop offset="1" stop-color="#7bddff"/></linearGradient><linearGradient id="linear-gradient-3" x1="69.25" y1="176.54" x2="81.13" y2="82.46" gradientUnits="userSpaceOnUse"><stop offset="0.08" stop-color="#0088ce"/><stop offset="0.54" stop-color="#18a7e5"/><stop offset="1" stop-color="#33caff"/></linearGradient><linearGradient id="linear-gradient-4" x1="73.04" y1="177.02" x2="84.93" y2="82.94" xlink:href="#linear-gradient-3"/><linearGradient id="linear-gradient-5" x1="116.12" y1="136.05" x2="95.4" y2="171.72" gradientUnits="userSpaceOnUse"><stop offset="0.09" stop-color="#005a88"/><stop offset="0.53" stop-color="#006fa7"/><stop offset="1" stop-color="#0088ce"/></linearGradient><linearGradient id="linear-gradient-6" x1="83.02" y1="32.84" x2="130.06" y2="133.4" gradientUnits="userSpaceOnUse"><stop offset="0" stop-color="#f2f9ff"/><stop offset="0.8" stop-color="#c0d6f2"/><stop offset="1" stop-color="#b3cdec"/></linearGradient><linearGradient id="linear-gradient-7" x1="83.12" y1="33" x2="129.97" y2="133.15" xlink:href="#linear-gradient-6"/><linearGradient id="linear-gradient-8" x1="81.31" y1="22.94" x2="113.49" y2="174.72" gradientUnits="userSpaceOnUse"><stop offset="0.08" stop-color="#fff"/><stop offset="1" stop-color="#fff" stop-opacity="0"/></linearGradient></defs><g class="cls-1"><g id="Layer_1" data-name="Layer 1"><path class="cls-2" d="M156.15,67.83h0v0c0-.16,0-.33-.07-.49a.5.5,0,0,1,0-.12l0-.14a1.36,1.36,0,0,1,0-.17c0-.13-.07-.26-.11-.38v0l-.09-.27-.12-.3h0v0a2.56,2.56,0,0,0-.11-.24l-.13-.24,0,0,0,0a.86.86,0,0,0-.1-.16,1.37,1.37,0,0,0-.15-.21l-.06-.07,0,0a.27.27,0,0,0-.07-.08l-.17-.18a1.85,1.85,0,0,0-.14-.14L112.1,26.89h0l0,0-.19-.16-.15-.09,0,0,0,0-.23-.12-.17-.08-5-2.12a2.82,2.82,0,0,1,.42.23l0,0a3.47,3.47,0,0,1,.38.29h0L149.65,62.3a4.68,4.68,0,0,1,.38.39l0,0a4.37,4.37,0,0,1,.31.44l0,0a4.25,4.25,0,0,1,.27.52h0c.08.19.15.38.22.58v0c.06.19.1.38.15.58l0,.14a5.58,5.58,0,0,1,.09.61v0c0,.23,0,.47,0,.72s0,.61,0,.92a1.94,1.94,0,0,1,0,.24c0,.3-.05.61-.09.92l0,.23c-.06.37-.13.74-.22,1.11,0,.18-.09.36-.13.54a2,2,0,0,0-.06.23c-.08.25-.16.51-.25.76a.49.49,0,0,1,0,.11c-.09.26-.19.51-.29.77l0,.08c-.12.27-.24.54-.37.81h0c-.14.29-.29.57-.44.85L111,142.67l5,2.11,38.26-68.66.06-.11c.07-.12.13-.24.19-.36l.18-.36h0l.17-.35c0-.13.11-.25.16-.38l0-.09,0-.07.09-.22.16-.42,0-.13a.76.76,0,0,0,0-.11c0-.07,0-.13.07-.2s.11-.35.16-.52l0,0c0-.07,0-.15,0-.22s.09-.31.13-.46,0,0,0-.08c.09-.37.16-.75.22-1.11l0-.23c0-.31.07-.62.09-.92a.88.88,0,0,0,0-.16v-.08c0-.32,0-.63,0-.93v0C156.19,68.29,156.18,68.06,156.15,67.83Z"/><path class="cls-3" d="M60.25,97.91l-14.48,26c-2.48,4.46-2.66,9.71-.39,11.71L87.9,173.11c2.27,2,6.13,0,8.61-4.45l14.48-26Z"/><path class="cls-4" d="M84.51,147.7c.69.62.64,2.22-.12,3.59s-1.94,2-2.64,1.36l-19-16.76c-.69-.61-.64-2.21.12-3.58s1.94-2,2.64-1.36Z"/><path class="cls-5" d="M97.72,146c.7.61.64,2.22-.12,3.58s-1.94,2-2.64,1.37L59.53,119.69c-.7-.62-.64-2.23.12-3.59s1.94-2,2.63-1.36Z"/><path class="cls-6" d="M111,142.68l-14.48,26c-.13.23-.26.46-.4.68l0,.08-.39.59-.06.08c-.13.18-.27.37-.41.54l-.06.08c-.14.18-.28.35-.43.51l-.06.06a5.33,5.33,0,0,1-.4.42l-.07.08c-.15.15-.3.28-.45.41l-.15.13-.31.25-.3.22-.24.16a2.61,2.61,0,0,1-.28.17l-.24.14-.29.14-.24.11-.28.11-.24.08-.29.07-.22,0-.29,0-.21,0h-.49l-.31-.05a.76.76,0,0,1-.16,0,2,2,0,0,1-.45-.15l5,2.12a4,4,0,0,0,.45.15l.16,0,.31.05h.49l.21,0,.29,0,.22-.05.29-.07.24-.09.28-.1.24-.11.29-.14.24-.14.28-.17.07,0a1.77,1.77,0,0,0,.17-.12l.3-.22a.24.24,0,0,0,.08-.06,2.11,2.11,0,0,0,.23-.19l.15-.12,0,0,.36-.34,0,0,.07-.08.21-.21.19-.21.06-.07,0,0L100,173l.12-.15.06-.08.07-.09.24-.31.1-.15.06-.08a.86.86,0,0,0,.07-.1c.07-.11.15-.21.22-.33s.07-.1.1-.16a.56.56,0,0,0,0-.08l.06-.09.21-.35.13-.24,14.48-26Z"/><path class="cls-7" d="M149.65,62.3,107.13,24.78c-2.27-2-6.13,0-8.61,4.45L60.26,97.89,111,142.67,149.26,74C151.74,69.55,151.92,64.3,149.65,62.3Z"/><path class="cls-8" d="M60.48,97.85,98.67,29.32c1.74-3.13,4.25-5.14,6.39-5.14a2.89,2.89,0,0,1,2,.73l42.51,37.52c2.21,1.95,2,7.1-.42,11.49L111,142.39Z"/><path class="cls-9" d="M149.11,73.92c2.44-4.39,2.63-9.54.42-11.49L107,24.91a2.89,2.89,0,0,0-2-.73c-2.14,0-4.65,2-6.39,5.14L60.48,97.85l.57.76-.8-.7-14.48,26c-2.48,4.46-2.66,9.71-.39,11.71L87.9,173.11c2.27,2,6.13,0,8.61-4.45l14.48-26-.85-.75.81.46Zm-38.88,67.86-.21.28.75.66L96.36,168.57c-1.74,3.12-4.25,5.14-6.39,5.14a2.9,2.9,0,0,1-2-.73L45.5,135.46c-2.21-2-2-7.11.43-11.49L60.3,98.18l.63.56.26-.23-.5-.67L98.83,29.4c1.7-3.07,4.15-5,6.23-5a2.7,2.7,0,0,1,1.84.69l42.52,37.52c2.15,1.9,1.94,7-.47,11.28l-38.07,68.31Z"/></g></g></svg>