<svg id="Layer_1" data-name="Layer 1" xmlns="http://www.w3.org/2000/svg" xmlns:xlink="http://www.w3.org/1999/xlink" viewBox="0 0 200 200"><defs><style>.cls-1{isolation:isolate;}.cls-2{fill:url(#linear-gradient);}.cls-3{fill:url(#linear-gradient-2);}.cls-4{opacity:0.7;mix-blend-mode:overlay;fill:url(#linear-gradient-3);}</style><linearGradient id="linear-gradient" x1="37.76" y1="156.83" x2="173.19" y2="62.38" gradientUnits="userSpaceOnUse"><stop offset="0" stop-color="#27bcf5"/><stop offset="0.16" stop-color="#0794d7"/><stop offset="0.17" stop-color="#0d91d4"/><stop offset="0.23" stop-color="#188acc"/><stop offset="0.3" stop-color="#1f86c8"/><stop offset="0.5" stop-color="#2185c7"/><stop offset="0.58" stop-color="#238bd4"/><stop offset="0.69" stop-color="#248fde"/><stop offset="0.83" stop-color="#2591e1"/><stop offset="0.89" stop-color="#2ba9ee"/><stop offset="0.96" stop-color="#31c1fa"/><stop offset="1" stop-color="#33caff"/></linearGradient><linearGradient id="linear-gradient-2" x1="126.62" y1="131.82" x2="74.15" y2="68.35" gradientUnits="userSpaceOnUse"><stop offset="0.02" stop-color="#33a0ff"/><stop offset="0.33" stop-color="#33bfff"/><stop offset="0.43" stop-color="#33caff"/><stop offset="1" stop-color="#7beeff"/></linearGradient><linearGradient id="linear-gradient-3" x1="83.47" y1="78.26" x2="114.95" y2="119.24" gradientUnits="userSpaceOnUse"><stop offset="0.08" stop-color="#fff"/><stop offset="1" stop-color="#fff" stop-opacity="0"/></linearGradient></defs><g class="cls-1"><path class="cls-2" d="M170.38,60.06s0-.08,0-.12a10.45,10.45,0,0,0,0-1.13h0s0,0,0-.06a7.38,7.38,0,0,0-.14-1,.54.54,0,0,1,0-.1c0-.13-.08-.26-.12-.38s-.09-.36-.15-.52a.8.8,0,0,0-.08-.16,2.93,2.93,0,0,0-.19-.4c-.06-.12-.11-.25-.17-.36l-.24-.37-3.36-4.83a5.24,5.24,0,0,1,.41.73c.07.13.14.26.2.4s.16.45.23.68.08.25.11.38a7.52,7.52,0,0,1,.17,1.09.13.13,0,0,1,0,.06,8.88,8.88,0,0,1,0,1.27c0,.13,0,.27,0,.41,0,.31-.06.63-.11,1s-.06.35-.1.53-.13.64-.22,1-.09.38-.15.58-.22.7-.34,1.06l-.2.59c-.21.55-.43,1.12-.69,1.7s-.43.91-.66,1.38l-.26.53c-.15.3-.33.6-.49.91s-.37.69-.58,1c-.09.17-.2.34-.3.51-.31.52-.63,1-1,1.58-.11.18-.25.37-.37.56-.38.58-.77,1.17-1.18,1.77-.18.25-.37.5-.55.76-.45.63-.92,1.27-1.41,1.91l-.73,1-.47.59c-.41.53-.84,1-1.28,1.58-.12.15-.23.3-.35.44-.56.67-1.13,1.34-1.72,2-.14.17-.29.33-.43.49l-1.24,1.4c-.8.88-1.61,1.76-2.45,2.66-.06,0-.1.1-.16.16-.8.85-1.64,1.71-2.49,2.57l-1.25,1.25c-.36.36-.72.72-1.1,1.08s-.89.86-1.33,1.29l-1.13,1.08L141,91.74,139.68,93l-.52.46q-1.57,1.44-3.23,2.88l-.89.79c-1.17,1-2.35,2-3.56,3l-.33.27c-1.06.88-2.14,1.77-3.23,2.65l-1.58,1.26-1,.84-2.54,2-.45.34c-.91.7-1.83,1.4-2.77,2.1l-.27.2c-1,.72-1.91,1.42-2.88,2.13l-.32.23c-1,.7-1.92,1.39-2.89,2.07-.12.1-.25.19-.38.28-1,.68-1.93,1.35-2.9,2l-.43.29c-.94.65-1.9,1.3-2.85,1.94l-.25.17-2.89,1.9-.83.54L100.05,123l-.47.3c-1,.65-2.06,1.29-3.1,1.92l-.86.53-2.26,1.36-1.21.71-2,1.18-1.24.71-2,1.13-1.31.73c-1,.57-2.06,1.13-3.09,1.67l-1,.54L79.19,135l-.93.47c-.82.42-1.64.83-2.45,1.22l-.59.3c-1,.5-2,1-3,1.44l-.65.3c-1.14.53-2.27,1-3.37,1.52l-.12,0c-1.38.6-2.73,1.16-4.06,1.69l-.28.12c-.81.32-1.61.63-2.39.92l-.58.22-1.75.63-.74.26-1.82.61-.66.21c-.78.25-1.55.49-2.3.71l-.24.06q-1,.3-2,.54l-.64.17-1.6.38-.54.12c-.68.14-1.34.28-2,.39l-.35.06-1.55.24-.56.07-1.38.15-.41,0c-.57,0-1.11.07-1.64.08h-.36c-.41,0-.82,0-1.21,0l-.45,0c-.4,0-.78-.06-1.16-.1l-.26,0c-.45-.06-.87-.13-1.28-.22l-.31-.08c-.31-.07-.61-.16-.89-.25l-.33-.11a9.57,9.57,0,0,1-.91-.38l-.13-.06a8.7,8.7,0,0,1-.89-.53,1.84,1.84,0,0,1-.22-.17,5.48,5.48,0,0,1-.58-.48l-.21-.2a7.36,7.36,0,0,1-.62-.74l3.36,4.83a6.23,6.23,0,0,0,.62.74l.21.2a6.57,6.57,0,0,0,.57.48l.23.17a7.74,7.74,0,0,0,.89.53l.12.06.91.38.34.11c.28.09.58.17.88.25l.31.08c.41.09.84.16,1.29.22l.26,0,1.16.1.45,0c.39,0,.79,0,1.21,0h.35c.53,0,1.08,0,1.65-.08l.4,0,1.39-.15.56-.07,1.55-.24.35-.06,2-.39.54-.13c.53-.11,1.06-.24,1.61-.38l.64-.16,2-.54.24-.06c.75-.22,1.52-.46,2.3-.71l.66-.21,1.82-.62.43-.14.3-.11c.58-.2,1.16-.42,1.75-.64.2-.07.39-.13.58-.21q1.18-.44,2.4-.93l.1,0,.18-.08c1.32-.53,2.67-1.09,4.06-1.69h0l.09,0c1.11-.48,2.24-1,3.38-1.52l.38-.17.27-.13c1-.47,2-.95,3-1.45l.14-.06.46-.23c.81-.4,1.63-.8,2.45-1.22l.46-.23.46-.24,2.27-1.17.55-.29.47-.25,2.66-1.43.43-.24,1.31-.73,1.34-.75.66-.38,1.24-.71,1-.59c.33-.2.66-.4,1-.59l1.2-.72.69-.4,1.57-1,.87-.52.28-.17c.89-.55,1.78-1.1,2.66-1.66l.15-.09.47-.3,1.79-1.13.8-.53.84-.54.75-.49q1-.66,2-1.35l.1-.07.25-.16,1.64-1.11,1.21-.83.42-.29.29-.19,1.68-1.17.94-.67.38-.27.35-.24,1.65-1.18.89-.65.32-.23.34-.25,1.53-1.13,1-.75.27-.2.25-.18,1.69-1.28.83-.64.44-.34.44-.34,1.7-1.32.41-.33,1-.83,1.14-.9.44-.36c1.09-.89,2.17-1.77,3.23-2.65l.28-.23,0,0q1.81-1.52,3.56-3l.4-.33.5-.45q1.65-1.44,3.23-2.88l.37-.32.14-.14c.46-.41.9-.83,1.34-1.24s.76-.69,1.12-1l.14-.13c.39-.36.76-.72,1.13-1.09L148,93.18l.15-.15,1.1-1.09c.36-.36.74-.72,1.1-1.09l.15-.15c.85-.86,1.68-1.72,2.49-2.57l0,0,.12-.14c.85-.89,1.66-1.78,2.45-2.66l.32-.34c.32-.35.62-.7.92-1l.44-.49,1.59-1.87.12-.15.36-.44c.44-.53.86-1.06,1.28-1.58l.47-.6.39-.49.34-.47q.73-1,1.41-1.92c.11-.16.25-.32.36-.48l.18-.28c.42-.59.81-1.18,1.19-1.76l.31-.47.06-.09c.34-.54.65-1.06,1-1.58.1-.16.2-.32.29-.48l0,0c.2-.35.38-.7.57-1s.34-.59.49-.88v0c.09-.18.17-.36.25-.53.21-.43.43-.85.61-1.26a.61.61,0,0,0,.05-.12c.23-.52.44-1,.63-1.51l.06-.19c.08-.2.14-.39.21-.59s.18-.5.25-.74.06-.22.09-.33l.15-.57c0-.16.1-.33.13-.49s.06-.32.09-.48.07-.36.1-.53,0-.2,0-.29,0-.45.06-.67S170.38,60.2,170.38,60.06Z"/><path class="cls-3" d="M114.16,61.93c-36.92,19.63-73.94,51.51-82.69,71.21s14.08,19.74,51,.11,74-51.51,82.71-71.21S151.09,42.29,114.16,61.93Z"/><path class="cls-4" d="M114.16,61.93c-36.92,19.63-73.94,51.51-82.69,71.21s14.08,19.74,51,.11,74-51.51,82.71-71.21S151.09,42.29,114.16,61.93Zm50.7,0c-8.71,19.6-45.75,51.47-82.55,71-17.77,9.45-32.83,14.65-42.41,14.65h0c-4.48,0-7.49-1.14-8.95-3.38-1.58-2.44-1.3-6.12.84-10.93,8.71-19.6,45.74-51.47,82.54-71,17.77-9.45,32.83-14.65,42.41-14.65,4.48,0,7.49,1.14,8.95,3.38C167.27,53.41,167,57.09,164.86,61.9Z"/></g></svg>