<svg id="Layer_1" data-name="Layer 1" xmlns="http://www.w3.org/2000/svg" xmlns:xlink="http://www.w3.org/1999/xlink" viewBox="0 0 200 200"><defs><style>.cls-1{fill:none;}.cls-2{isolation:isolate;}.cls-3{clip-path:url(#clip-path);}.cls-4{fill:#858585;}.cls-5{fill:#8a8a8a;}.cls-6{fill:#8f8f8f;}.cls-7{fill:#949494;}.cls-8{fill:url(#linear-gradient);}.cls-9{fill:url(#linear-gradient-2);}.cls-10{opacity:0.7;mix-blend-mode:overlay;fill:url(#linear-gradient-3);}.cls-11{fill:url(#linear-gradient-4);}</style><clipPath id="clip-path"><path class="cls-1" d="M150.07,142.05l-7.9,7.93c-5.22,5.24-12.77,8.27-22.28,8.26-26.95,0-59.57-24.37-72.72-54.29-8.51-19.38-6.81-36.41,2.75-46L57.82,50c-9.56,9.6-11.26,26.63-2.75,46,13.15,29.93,45.77,54.29,72.72,54.3C137.3,150.31,144.85,147.28,150.07,142.05Z"/></clipPath><linearGradient id="linear-gradient" x1="17.17" y1="58.19" x2="156.41" y2="173.89" gradientUnits="userSpaceOnUse"><stop offset="0" stop-color="#27bcf5"/><stop offset="0.16" stop-color="#0794d7"/><stop offset="0.17" stop-color="#0d91d4"/><stop offset="0.23" stop-color="#188acc"/><stop offset="0.3" stop-color="#1f86c8"/><stop offset="0.5" stop-color="#2185c7"/><stop offset="0.58" stop-color="#238bd4"/><stop offset="0.69" stop-color="#248fde"/><stop offset="0.83" stop-color="#2591e1"/><stop offset="0.89" stop-color="#2ba9ee"/><stop offset="0.96" stop-color="#31c1fa"/><stop offset="1" stop-color="#33caff"/></linearGradient><linearGradient id="linear-gradient-2" x1="65.86" y1="180.46" x2="137.16" y2="22.39" gradientUnits="userSpaceOnUse"><stop offset="0.02" stop-color="#33a0ff"/><stop offset="0.33" stop-color="#33bfff"/><stop offset="0.43" stop-color="#33caff"/><stop offset="1" stop-color="#7beeff"/></linearGradient><linearGradient id="linear-gradient-3" x1="131.31" y1="34.97" x2="87.59" y2="132.51" gradientUnits="userSpaceOnUse"><stop offset="0.08" stop-color="#fff"/><stop offset="1" stop-color="#fff" stop-opacity="0"/></linearGradient><linearGradient id="linear-gradient-4" x1="135.08" y1="24.39" x2="79.5" y2="152.27" gradientUnits="userSpaceOnUse"><stop offset="0" stop-color="#f2f9ff"/><stop offset="0.8" stop-color="#c0d6f2"/><stop offset="1" stop-color="#b3cdec"/></linearGradient></defs><g class="cls-2"><g class="cls-2"><g class="cls-3"><g class="cls-2"><path class="cls-4" d="M150.07,142.05l-7.9,7.93c-4.49,4.5-10.7,7.37-18.39,8.09l7.9-7.94c7.69-.71,13.9-3.58,18.39-8.08"/><path class="cls-5" d="M131.68,150.13l-7.9,7.94c-1.26.11-2.56.17-3.89.17a52.62,52.62,0,0,1-12.79-1.67l7.9-7.94a52.16,52.16,0,0,0,12.79,1.68c1.33,0,2.63-.06,3.89-.18"/><path class="cls-6" d="M115,148.63l-7.9,7.94a80.36,80.36,0,0,1-25-11.59l7.9-7.93a80.33,80.33,0,0,0,25,11.58"/><path class="cls-7" d="M90,137.05,82.11,145A102.77,102.77,0,0,1,65.3,130.72l7.9-7.94A102.84,102.84,0,0,0,90,137.05"/><path class="cls-6" d="M73.2,122.78l-7.9,7.94a95.9,95.9,0,0,1-16.86-24l7.9-7.93a95.66,95.66,0,0,0,16.86,24"/><path class="cls-5" d="M56.34,98.76l-7.9,7.93c-.44-.91-.86-1.82-1.27-2.74a67.3,67.3,0,0,1-4.7-15L50.37,81a67,67,0,0,0,4.7,15c.41.92.83,1.84,1.27,2.75"/><path class="cls-4" d="M50.37,81l-7.9,7.94c-2.33-13,.46-24,7.45-31L57.82,50c-7,7-9.78,18-7.45,31"/></g></g></g><path class="cls-8" d="M132.3,167.66c1-.17,1.93-.37,2.87-.6l.47-.12c.89-.23,1.75-.49,2.6-.77l.48-.17c.85-.3,1.68-.62,2.49-1l.25-.12c.78-.35,1.54-.73,2.27-1.13l.28-.15c.74-.42,1.46-.87,2.16-1.34l.4-.27c.68-.47,1.34-1,2-1.49l.31-.27c.66-.56,1.29-1.13,1.9-1.73l7.9-7.94c-.61.61-1.24,1.18-1.9,1.74l-.31.27c-.64.52-1.3,1-2,1.49l-.4.27c-.7.47-1.42.92-2.16,1.34l-.28.14c-.73.41-1.49.79-2.27,1.14l-.25.12c-.81.35-1.64.68-2.49,1l-.48.16c-.85.29-1.71.55-2.6.78l-.47.11c-.94.23-1.89.44-2.87.61h-.08c-1,.16-2,.29-3,.39l-.53.05c-.48,0-1,.08-1.46.1l-.71.05c-.73,0-1.48,0-2.23,0-1.14,0-2.28,0-3.43-.12-.37,0-.73-.06-1.1-.09-.8-.07-1.6-.14-2.41-.24l-1.24-.17q-1.2-.16-2.4-.39l-1.16-.21c-1-.2-2-.43-3-.67-.17-.05-.35-.08-.52-.12-1.16-.3-2.31-.62-3.47-1l-1-.33c-.83-.26-1.65-.53-2.48-.82l-1.27-.47c-.75-.28-1.5-.57-2.24-.87l-1.32-.54c-.75-.32-1.51-.65-2.27-1l-1.21-.55c-.89-.42-1.78-.86-2.67-1.31l-.78-.39c-1.14-.59-2.28-1.21-3.41-1.85l-.88-.52c-.84-.49-1.68-1-2.51-1.5-.4-.24-.81-.5-1.21-.76-.72-.46-1.45-.93-2.17-1.41l-1.47-1-1.16-.81c-.57-.4-1.13-.81-1.69-1.22l-1.11-.82-1.77-1.36-1-.77c-.71-.57-1.42-1.16-2.13-1.75l-.56-.46q-1.33-1.14-2.64-2.31l-.71-.65c-.63-.57-1.25-1.15-1.87-1.73l-1-.92-1.58-1.55-1-1c-.45-.46-.89-.92-1.33-1.39-.62-.66-1.22-1.32-1.83-2-.31-.35-.64-.7-1-1.06q-1.1-1.24-2.16-2.52c-.16-.2-.34-.4-.51-.6-.86-1.06-1.71-2.13-2.54-3.21-.23-.31-.45-.62-.69-.93-.58-.78-1.17-1.57-1.74-2.37l-.85-1.23c-.5-.72-1-1.44-1.46-2.17-.29-.44-.58-.88-.86-1.32-.46-.73-.92-1.46-1.36-2.19l-.79-1.31c-.47-.8-.92-1.61-1.37-2.42-.2-.38-.41-.74-.61-1.12-.64-1.18-1.25-2.38-1.84-3.58S46.5,97.11,46,96c-.6-1.35-1.14-2.7-1.66-4,0-.12-.09-.24-.14-.36-.48-1.26-.91-2.52-1.32-3.76,0-.18-.11-.36-.17-.53-.39-1.21-.73-2.41-1-3.6l-.15-.59c-.3-1.17-.57-2.34-.81-3.49,0-.19-.07-.38-.11-.57-.21-1.1-.39-2.19-.55-3.27L40,75.39c-.16-1.15-.27-2.28-.36-3.4,0-.31,0-.62,0-.92-.05-.86-.09-1.7-.1-2.53,0-.31,0-.61,0-.92,0-1.07,0-2.14.11-3.18,0-.1,0-.19,0-.28.07-.95.18-1.89.3-2.81.05-.29.09-.59.14-.88.12-.78.27-1.54.43-2.29.05-.24.09-.48.15-.71.22-.95.48-1.88.76-2.79.06-.19.13-.37.2-.56.24-.73.5-1.45.79-2.14.1-.26.21-.52.32-.78.31-.71.65-1.41,1-2.1l.21-.42c.44-.8.9-1.58,1.4-2.33l.4-.59c.39-.57.8-1.13,1.23-1.67.16-.21.32-.41.49-.61.57-.69,1.17-1.36,1.8-2h0l-7.9,7.93q-.94,1-1.8,2c-.17.19-.33.4-.49.6q-.65.81-1.23,1.68c-.14.19-.27.38-.4.58-.5.75-1,1.53-1.4,2.33-.07.14-.13.29-.21.42-.35.69-.69,1.39-1,2.11-.11.25-.22.51-.32.77-.29.7-.55,1.41-.79,2.15-.07.18-.14.36-.2.55-.28.91-.54,1.84-.76,2.79-.06.24-.1.47-.15.71-.16.75-.31,1.52-.43,2.29,0,.3-.09.59-.13.88-.13.92-.24,1.86-.31,2.81,0,.1,0,.19,0,.28-.07,1-.1,2.11-.11,3.19,0,.3,0,.6,0,.91,0,.83.05,1.68.1,2.53,0,.31,0,.61,0,.92.09,1.12.2,2.25.36,3.41l.06.41c.11.77.23,1.55.37,2.33,0,.32.12.63.18,1s.08.37.11.56c.24,1.16.51,2.32.81,3.5l.15.58c.32,1.19.66,2.39,1,3.6.06.18.12.36.17.53.41,1.25.85,2.5,1.32,3.77,0,.12.1.24.14.35.52,1.34,1.06,2.68,1.66,4q.72,1.65,1.5,3.27v0c.59,1.2,1.2,2.4,1.84,3.58.2.38.41.75.62,1.13.44.81.9,1.61,1.36,2.41l.79,1.31c.44.74.9,1.47,1.36,2.2l.85,1.31c.48.73,1,1.45,1.47,2.17l.85,1.23c.57.8,1.16,1.6,1.75,2.38.23.31.45.62.68.92q1.24,1.62,2.55,3.21c.16.2.33.39.5.59.71.86,1.43,1.7,2.16,2.53.31.36.64.71,1,1.07.61.66,1.21,1.33,1.83,2,.15.16.29.33.45.49.29.31.59.6.88.91l1,1,1.58,1.55.95.92c.61.59,1.24,1.16,1.86,1.73l.72.66c.87.78,1.75,1.55,2.64,2.3l.57.47c.7.59,1.41,1.17,2.12,1.74l1,.77c.59.46,1.18.92,1.77,1.36l1.11.82c.56.41,1.12.82,1.69,1.22.38.28.77.54,1.16.81l.84.59.63.41c.72.48,1.45.95,2.17,1.41l1.21.76c.83.51,1.67,1,2.51,1.5l.88.51c1.13.64,2.27,1.26,3.41,1.85l.78.39c.89.45,1.78.89,2.67,1.31l1.21.56,2.27,1,1.32.54c.74.31,1.49.59,2.24.87l1.27.47c.83.29,1.66.56,2.48.83l1,.32c1.16.35,2.32.68,3.47,1l.07,0,.44.1c1,.25,2,.47,3,.67l1.16.21q1.2.22,2.4.39l1.24.17c.81.1,1.61.18,2.41.24.37,0,.73.07,1.1.09,1.15.07,2.29.12,3.43.12.75,0,1.5,0,2.23-.05l.71,0,1.46-.1.23,0,.3,0c1-.1,2-.22,3-.39Z"/><path class="cls-9" d="M161.87,96.06c-15.61-35.54-54.2-64.36-86.2-64.37S30.4,60.48,46,96s54.19,64.35,86.19,64.37S177.49,131.59,161.87,96.06Z"/><path class="cls-10" d="M161.87,96.06c-15.61-35.54-54.2-64.36-86.2-64.37S30.4,60.48,46,96s54.19,64.35,86.19,64.37S177.49,131.59,161.87,96.06ZM132.23,160h0c-31.79,0-70.27-28.77-85.8-64.11C38,76.68,37.72,58.73,45.65,46.58c6.09-9.32,16.74-14.46,30-14.46,31.81,0,70.31,28.77,85.83,64.11,8.41,19.15,8.69,37.1.75,49.25C156.14,154.81,145.49,160,132.23,160Z"/><path class="cls-11" d="M152.82,96.05c-13.15-29.93-45.77-54.29-72.73-54.3S41.92,66.08,55.07,96s45.77,54.29,72.72,54.3S166,126,152.82,96.05Zm-6.65,37.34c-10.38-9.26-22.51-14.7-33.12-14.71-10.19,0-17.44,5.09-20,13.78C79.8,123.81,68,110.68,61.52,96,50.1,70,59.85,48.91,83.24,48.91S135,70.07,146.37,96.05C153,111.24,152.46,124.77,146.17,133.39ZM121,86.6c5.93,13.49.87,24.47-11.29,24.47s-26.87-11-32.8-24.49S76,62.09,88.19,62.1,115.05,73.09,121,86.6Z"/></g></svg>