<svg id="Layer_1" data-name="Layer 1" xmlns="http://www.w3.org/2000/svg" xmlns:xlink="http://www.w3.org/1999/xlink" viewBox="0 0 200 200"><defs><style>.cls-1{isolation:isolate;}.cls-2{fill:url(#linear-gradient);}.cls-3{fill:url(#linear-gradient-2);}.cls-4{opacity:0.7;mix-blend-mode:overlay;fill:url(#linear-gradient-3);}.cls-5{fill:url(#linear-gradient-4);}.cls-6{fill:url(#linear-gradient-5);}</style><linearGradient id="linear-gradient" x1="95.36" y1="89.33" x2="190.2" y2="153.83" gradientUnits="userSpaceOnUse"><stop offset="0.08" stop-color="#0088ce"/><stop offset="0.54" stop-color="#18a7e5"/><stop offset="1" stop-color="#33caff"/></linearGradient><linearGradient id="linear-gradient-2" x1="80.81" y1="156.25" x2="128.23" y2="42.44" gradientUnits="userSpaceOnUse"><stop offset="0.02" stop-color="#33a0ff"/><stop offset="0.33" stop-color="#33bfff"/><stop offset="0.43" stop-color="#33caff"/><stop offset="1" stop-color="#7beeff"/></linearGradient><linearGradient id="linear-gradient-3" x1="109.02" y1="48.18" x2="102.38" y2="105.08" gradientUnits="userSpaceOnUse"><stop offset="0.08" stop-color="#fff"/><stop offset="1" stop-color="#fff" stop-opacity="0"/></linearGradient><linearGradient id="linear-gradient-4" x1="109.42" y1="94.05" x2="109.42" y2="181.39" xlink:href="#linear-gradient"/><linearGradient id="linear-gradient-5" x1="31.99" y1="79.65" x2="109.75" y2="148.88" xlink:href="#linear-gradient"/></defs><g class="cls-1"><polygon class="cls-2" points="117.81 98.33 112.84 119.78 173.88 149 178.85 127.56 117.81 98.33"/><polygon class="cls-3" points="101.97 58.33 85.9 77.33 39.77 51 26.12 80.88 106.01 113.22 117.81 98.33 178.85 127.56 101.97 58.33"/><path class="cls-4" d="M102,58.32l-16.07,19L39.77,51,26.12,80.88,106,113.22l11.8-14.89,61,29.23Zm15.67,39.26-11.83,14.9L26.94,80.56l13.11-28.7L86,78.11,102,59.2l73.28,66Z"/><polygon class="cls-5" points="106.01 113.22 101.03 134.66 112.84 119.78 117.81 98.33 106.01 113.22"/><polygon class="cls-6" points="26.12 80.88 21.15 102.32 101.03 134.66 106.01 113.22 26.12 80.88"/></g></svg>