<svg id="Layer_1" data-name="Layer 1" xmlns="http://www.w3.org/2000/svg" xmlns:xlink="http://www.w3.org/1999/xlink" viewBox="0 0 200 200"><defs><style>.cls-1{isolation:isolate;}.cls-2{fill:url(#linear-gradient);}.cls-3{opacity:0.7;mix-blend-mode:overlay;fill:url(#linear-gradient-2);}.cls-4{fill:url(#linear-gradient-3);}.cls-5{fill:url(#linear-gradient-4);}</style><linearGradient id="linear-gradient" x1="98.73" y1="39.98" x2="98.15" y2="166.58" gradientUnits="userSpaceOnUse"><stop offset="0" stop-color="#f2f9ff"/><stop offset="0.8" stop-color="#c0d6f2"/><stop offset="1" stop-color="#b3cdec"/></linearGradient><linearGradient id="linear-gradient-2" x1="99.65" y1="45.7" x2="96.79" y2="148.05" gradientUnits="userSpaceOnUse"><stop offset="0.08" stop-color="#fff"/><stop offset="1" stop-color="#fff" stop-opacity="0"/></linearGradient><linearGradient id="linear-gradient-3" x1="181.32" y1="44.62" x2="117.73" y2="149.63" gradientUnits="userSpaceOnUse"><stop offset="0" stop-color="#f2f9ff"/><stop offset="0.59" stop-color="#b5d1e8"/><stop offset="0.72" stop-color="#a6c7e2"/><stop offset="0.78" stop-color="#a0c4df"/><stop offset="0.9" stop-color="#88adcf"/></linearGradient><linearGradient id="linear-gradient-4" x1="60.56" y1="173.59" x2="84.44" y2="113.41" gradientUnits="userSpaceOnUse"><stop offset="0" stop-color="#f2f9ff"/><stop offset="0.25" stop-color="#b5d2e7"/><stop offset="0.33" stop-color="#a0c4df"/><stop offset="0.72" stop-color="#a6c7e2"/><stop offset="0.9" stop-color="#88adcf"/></linearGradient></defs><g class="cls-1"><path class="cls-2" d="M156.94,68.67c-4.18-15.16-21.53-23.4-38.74-18.4-11.78,3.42-20.47,12.16-23.42,22.2-7.64-7-19.49-9.74-31.27-6.32-17.21,5-27.78,21.34-23.6,36.5C44.38,118.85,61,126.76,75,131.81a196.53,196.53,0,0,0,19.52,5.9l19.57,4.74,14.27-14.56c.73-.73,7.21-7.41,13.61-15.52C151.28,100.55,161.41,84.87,156.94,68.67Z"/><path class="cls-3" d="M156.94,68.67c-4.18-15.16-21.53-23.4-38.74-18.4-11.78,3.42-20.47,12.16-23.42,22.2-7.64-7-19.49-9.74-31.27-6.32-17.21,5-27.78,21.34-23.6,36.5C44.38,118.85,61,126.76,75,131.81a196.53,196.53,0,0,0,19.52,5.9l19.57,4.74,14.27-14.56c.73-.73,7.21-7.41,13.61-15.52C151.28,100.55,161.41,84.87,156.94,68.67ZM141.55,112c-6.79,8.61-13.5,15.41-13.57,15.48l-14.06,14.35L94.63,137.2a196.58,196.58,0,0,1-19.46-5.88c-13.86-5-30.34-12.81-34.75-28.81-4.1-14.86,6.32-30.95,23.24-35.86a35.72,35.72,0,0,1,10-1.44,30.63,30.63,0,0,1,20.77,7.65l.62.56.23-.8c3-10.22,11.84-18.59,23.07-21.85a36,36,0,0,1,10-1.44c13.59,0,24.88,7.83,28.1,19.48C160.85,84.8,150.8,100.31,141.55,112Z"/><path class="cls-4" d="M158.54,98.47c.08-.22.16-.44.23-.65.29-.84.57-1.68.81-2.53,0-.07,0-.15,0-.22.22-.78.41-1.57.58-2.36,0-.23.09-.45.13-.68.17-.87.32-1.74.43-2.61h0c.1-.87.16-1.75.19-2.62,0-.23,0-.46,0-.69s0-.47,0-.71c0-.61,0-1.23-.07-1.84v-.11c-.06-.88-.17-1.77-.31-2.66,0-.22-.07-.44-.11-.66-.16-.9-.35-1.8-.6-2.7a.84.84,0,0,0,0-.17c-.11-.42-.24-.84-.38-1.24l-3-8.75c.16.47.3.94.43,1.41.25.91.44,1.81.6,2.71,0,.22.08.44.11.66.14.88.25,1.77.31,2.66a.45.45,0,0,0,0,.11c.05.85.06,1.7,0,2.55,0,.23,0,.46,0,.69,0,.87-.09,1.75-.19,2.62h0c-.11.88-.26,1.75-.42,2.62,0,.22-.09.45-.14.67q-.26,1.19-.57,2.37l-.06.22q-.36,1.28-.81,2.52c-.07.22-.15.44-.23.65-.26.73-.55,1.46-.85,2.19,0,.11-.09.22-.13.34-.37.85-.75,1.69-1.16,2.52-.1.23-.22.45-.33.68-.31.61-.62,1.22-.95,1.82-.15.29-.31.57-.46.85-.31.56-.62,1.11-.94,1.65l-.48.81c-.38.62-.76,1.23-1.15,1.84l-.33.51c-.5.77-1,1.54-1.53,2.29-.13.2-.27.39-.41.58-.39.56-.78,1.12-1.18,1.67l-.56.76-.84,1.13c-.77,1-1.54,2-2.31,3-6.4,8.11-12.88,14.79-13.61,15.52l-14.27,14.56,3,8.74,14.27-14.56c.73-.73,7.21-7.41,13.61-15.52.77-1,1.54-2,2.31-3l.33-.42.51-.71.56-.76c.4-.55.79-1.1,1.18-1.66.14-.2.28-.39.41-.59q.78-1.12,1.53-2.28l.33-.52c.39-.61.77-1.22,1.14-1.84.17-.27.33-.54.49-.81.31-.54.63-1.09.93-1.64.16-.29.32-.57.47-.86.33-.6.64-1.2.94-1.81l.34-.69q.58-1.19,1.11-2.4l0-.12c0-.12.1-.23.14-.35C158,99.92,158.27,99.2,158.54,98.47Z"/><path class="cls-5" d="M114.08,142.45l-19.57-4.74A196.53,196.53,0,0,1,75,131.81c-13.5-4.87-29.44-12.41-34.56-27.48l3,8.74c5.12,15.08,21.06,22.61,34.56,27.48a193.55,193.55,0,0,0,19.52,5.9l19.57,4.74Z"/></g></svg>