<svg id="Layer_1" data-name="Layer 1" xmlns="http://www.w3.org/2000/svg" xmlns:xlink="http://www.w3.org/1999/xlink" viewBox="0 0 200 200"><defs><style>.cls-1{isolation:isolate;}.cls-2{fill:url(#linear-gradient);}.cls-3{fill:url(#linear-gradient-2);}.cls-4{fill:url(#linear-gradient-3);}.cls-5{opacity:0.7;mix-blend-mode:overlay;fill:url(#linear-gradient-4);}.cls-6{fill:url(#linear-gradient-5);}</style><linearGradient id="linear-gradient" x1="532.06" y1="630.84" x2="566.74" y2="597.74" gradientTransform="matrix(0.97, -0.26, 0.26, 0.97, -561.9, -399.42)" gradientUnits="userSpaceOnUse"><stop offset="0.08" stop-color="#0088ce"/><stop offset="0.54" stop-color="#18a7e5"/><stop offset="1" stop-color="#33caff"/></linearGradient><linearGradient id="linear-gradient-2" x1="491.95" y1="653.89" x2="460.42" y2="660.2" gradientTransform="matrix(0.97, -0.26, 0.26, 0.97, -561.9, -399.42)" gradientUnits="userSpaceOnUse"><stop offset="0.09" stop-color="#005a88"/><stop offset="0.53" stop-color="#006fa7"/><stop offset="1" stop-color="#0088ce"/></linearGradient><linearGradient id="linear-gradient-3" x1="520.83" y1="682.3" x2="488.19" y2="604.79" gradientTransform="matrix(0.97, -0.26, 0.26, 0.97, -561.9, -399.42)" gradientUnits="userSpaceOnUse"><stop offset="0.07" stop-color="#33acff"/><stop offset="0.59" stop-color="#33caff"/><stop offset="1" stop-color="#7bddff"/></linearGradient><linearGradient id="linear-gradient-4" x1="480.41" y1="588.74" x2="515.28" y2="667.95" gradientTransform="matrix(0.97, -0.26, 0.26, 0.97, -561.9, -399.42)" gradientUnits="userSpaceOnUse"><stop offset="0.08" stop-color="#fff"/><stop offset="1" stop-color="#fff" stop-opacity="0"/></linearGradient><linearGradient id="linear-gradient-5" x1="454.17" y1="682.94" x2="648.87" y2="637.8" xlink:href="#linear-gradient"/></defs><g class="cls-1"><polygon class="cls-2" points="134.82 26.97 103.32 70.86 114.43 86.72 145.93 42.83 134.82 26.97"/><polygon class="cls-3" points="76.38 103.38 44.56 108.7 55.67 124.56 87.49 119.24 76.38 103.38"/><polygon class="cls-4" points="134.82 26.97 74.66 42.82 44.56 108.7 76.38 103.38 45.06 157.17 144.33 64.58 103.32 70.86 134.82 26.97"/><path class="cls-5" d="M134.82,27,74.66,42.82,44.57,108.7l31.81-5.32L45.06,157.17l99.27-92.59-41,6.28Zm8.1,38.29L47,154.7l30.24-51.94L45.35,108.1,75,43.21,133.7,27.74,102.31,71.48Z"/><polygon class="cls-6" points="144.33 64.58 45.06 157.17 56.16 173.03 155.44 80.44 144.33 64.58"/></g></svg>