<svg id="Layer_1" data-name="Layer 1" xmlns="http://www.w3.org/2000/svg" xmlns:xlink="http://www.w3.org/1999/xlink" viewBox="0 0 134.05 122"><defs><style>.cls-1{isolation:isolate;}.cls-2{fill:url(#linear-gradient);}.cls-3{fill:url(#linear-gradient-2);}.cls-4{fill:url(#linear-gradient-3);}.cls-5{opacity:0.7;mix-blend-mode:overlay;fill:url(#linear-gradient-4);}.cls-6{fill:url(#linear-gradient-5);}</style><linearGradient id="linear-gradient" x1="145.53" y1="193.79" x2="192.81" y2="240.09" gradientTransform="translate(-162.79 -175.47) rotate(-3.4)" gradientUnits="userSpaceOnUse"><stop offset="0" stop-color="#f2f9ff"/><stop offset="0.15" stop-color="#d2e4f3"/><stop offset="0.29" stop-color="#bad4ea"/><stop offset="0.43" stop-color="#abcae4"/><stop offset="0.54" stop-color="#a6c7e2"/><stop offset="0.78" stop-color="#a0c4df"/><stop offset="1" stop-color="#88adcf"/></linearGradient><linearGradient id="linear-gradient-2" x1="277.22" y1="240.18" x2="232.4" y2="263.33" gradientTransform="translate(-162.79 -175.47) rotate(-3.4)" gradientUnits="userSpaceOnUse"><stop offset="0" stop-color="#f2f9ff"/><stop offset="0.59" stop-color="#b5d1e8"/><stop offset="0.72" stop-color="#a6c7e2"/><stop offset="0.78" stop-color="#a0c4df"/><stop offset="0.9" stop-color="#88adcf"/></linearGradient><linearGradient id="linear-gradient-3" x1="240.67" y1="198.18" x2="205.2" y2="285.37" gradientTransform="translate(-162.79 -175.47) rotate(-3.4)" gradientUnits="userSpaceOnUse"><stop offset="0" stop-color="#f2f9ff"/><stop offset="0.8" stop-color="#c0d6f2"/><stop offset="1" stop-color="#b3cdec"/></linearGradient><linearGradient id="linear-gradient-4" x1="240.67" y1="198.18" x2="205.2" y2="285.37" gradientTransform="translate(-129.87 -136.25) rotate(-3.4)" gradientUnits="userSpaceOnUse"><stop offset="0.08" stop-color="#fff"/><stop offset="1" stop-color="#fff" stop-opacity="0"/></linearGradient><linearGradient id="linear-gradient-5" x1="184.5" y1="359.45" x2="224.41" y2="269.79" xlink:href="#linear-gradient-2"/></defs><g class="cls-1"><polygon class="cls-2" points="7.62 14.94 0 27.46 43.49 58.67 51.11 46.15 7.62 14.94"/><polygon class="cls-3" points="85.8 67.32 78.18 79.84 102.82 68.59 110.44 56.08 85.8 67.32"/><polygon class="cls-4" points="134.05 109.48 85.8 67.32 110.44 56.08 57.07 0 7.62 14.94 51.11 46.15 19.64 61.28 134.05 109.48"/><path class="cls-5" d="M167,148.69l-48.25-42.16,24.65-11.24L90,39.22,40.55,54.15,84,85.36,52.57,100.49ZM41.53,54.32l48.33-14.6,52.76,55.43-24.7,11.27,46.7,40.8-111-46.76,31.25-15Z" transform="translate(-32.92 -39.22)"/><polygon class="cls-6" points="19.64 61.28 12.02 73.8 126.43 122 134.05 109.48 19.64 61.28"/></g></svg>