<svg xmlns="http://www.w3.org/2000/svg" xmlns:xlink="http://www.w3.org/1999/xlink" viewBox="0 0 200 200"><defs><style>.cls-1{isolation:isolate;}.cls-2{fill:#00547f;}.cls-3{fill:url(#linear-gradient);}.cls-4{opacity:0.7;mix-blend-mode:overlay;fill:url(#linear-gradient-2);}.cls-5{fill:url(#linear-gradient-3);}</style><linearGradient id="linear-gradient" x1="73.01" y1="148.36" x2="138.34" y2="41.45" gradientUnits="userSpaceOnUse"><stop offset="0.02" stop-color="#33a0ff"/><stop offset="0.33" stop-color="#33bfff"/><stop offset="0.43" stop-color="#33caff"/><stop offset="1" stop-color="#7beeff"/></linearGradient><linearGradient id="linear-gradient-2" x1="116.01" y1="34.37" x2="92.25" y2="160.96" gradientUnits="userSpaceOnUse"><stop offset="0.08" stop-color="#fff"/><stop offset="1" stop-color="#fff" stop-opacity="0"/></linearGradient><linearGradient id="linear-gradient-3" x1="22.85" y1="62.78" x2="134.23" y2="178.63" gradientUnits="userSpaceOnUse"><stop offset="0" stop-color="#27bcf5"/><stop offset="0.04" stop-color="#0794d7"/><stop offset="0.08" stop-color="#0f8acb"/><stop offset="0.15" stop-color="#177fc0"/><stop offset="0.25" stop-color="#1c79b9"/><stop offset="0.53" stop-color="#1d77b7"/><stop offset="0.58" stop-color="#1f7dbe"/><stop offset="0.61" stop-color="#2185c7"/><stop offset="0.62" stop-color="#238bd4"/><stop offset="0.64" stop-color="#248fde"/><stop offset="0.67" stop-color="#2591e1"/><stop offset="0.69" stop-color="#2190df"/><stop offset="0.82" stop-color="#098ad3"/><stop offset="0.9" stop-color="#0088ce"/><stop offset="0.93" stop-color="#038cd1"/><stop offset="0.95" stop-color="#0b97d9"/><stop offset="0.97" stop-color="#19a9e6"/><stop offset="0.99" stop-color="#2dc2f9"/><stop offset="1" stop-color="#33caff"/></linearGradient></defs><g class="cls-1"><g id="Layer_1" data-name="Layer 1"><g class="cls-1"><path class="cls-2" d="M157.65,155.88l-8.38,5.34a12.2,12.2,0,0,1-7.12,1.81l8.39-5.33a12.1,12.1,0,0,0,7.11-1.82"/></g><path class="cls-3" d="M163.17,139.57,147.5,59.22c-2-10.38-11-19.08-20-19.44L57.85,37c-9-.37-14.66,7.75-12.63,18.13l15.66,80.35c2,10.37,11,19.08,20,19.44l69.7,2.81C159.53,158.06,165.19,150,163.17,139.57Z"/><path class="cls-4" d="M163.17,139.57,147.5,59.22c-2-10.38-11-19.08-20-19.44L57.85,37c-9-.37-14.66,7.75-12.63,18.13l15.66,80.35c2,10.37,11,19.08,20,19.44l69.7,2.81C159.53,158.06,165.19,150,163.17,139.57Zm-12,18h-.58l-69.7-2.81c-8.91-.36-17.8-9-19.81-19.32L45.36,55.07c-1-5.36,0-10.38,2.76-13.77a11.62,11.62,0,0,1,9.15-4.19h.57l69.7,2.81c8.92.36,17.81,9,19.81,19.32L163,139.6c1,5.36,0,10.37-2.75,13.76A11.6,11.6,0,0,1,151.12,157.56Z"/><path class="cls-5" d="M150.54,157.7l-69.7-2.81c-9-.36-17.93-9.07-20-19.44L45.22,55.1a17.72,17.72,0,0,1,1.37-11.78,13.38,13.38,0,0,1,1.14-1.77A11.83,11.83,0,0,1,49.12,40a12.17,12.17,0,0,1,1.61-1.25h0l-8.38,5.34c-4.6,2.92-6.93,9.07-5.52,16.31L52.5,140.78c2,10.38,11,19.08,20,19.44l69.7,2.81a12.2,12.2,0,0,0,7.12-1.81l8.38-5.34A12.1,12.1,0,0,1,150.54,157.7Z"/></g></g></svg>