<svg width="480" height="48" viewBox="0 0 480 48" fill="none" xmlns="http://www.w3.org/2000/svg">
<path d="M164 6H152V42H164V38H168V34H172V30H176V28H178V20H176V18H172V14H168V10H164V6ZM168 26V30H164V34H160V38H156V10H160V14H164V18H168V22H172V26H168Z" fill="black"/>
<path d="M184 6H180V42H184V6Z" fill="black"/>
<path d="M36 22V20H34V18H30V14H26V10H22V6H10V42H22V40V38H26V34H30V30H34V28H36V26H38V22H36ZM26 26V30H22V34H18V38H14V10H18V14H22V18H26V22H30V26H26Z" fill="black"/>
<path fill-rule="evenodd" clip-rule="evenodd" d="M104 6H108V42H104V6ZM120 10H124V6H136V42H124V38H120V34H116V30H112V28H110V20H112V18H116V14H120V10ZM116 22V26H120V30H124V34H128V38H132V10H128V14H124V18H120V22H116Z" fill="black"/>
<path fill-rule="evenodd" clip-rule="evenodd" d="M420 10H416V14H420V18H408V22L404 22V34H388V38H404V34H408L408 22H420V26H416V30H420V26H424V22H428V18H424V14H420V10ZM388 18H400V22H388V18ZM428 34H412V38H428V34Z" fill="black"/>
<rect x="344" y="4" width="16" height="4" fill="black"/>
<path fill-rule="evenodd" clip-rule="evenodd" d="M272 4H268V8H272V12H248V16H244V26H248V16H272V20L268 20V24H272V20H276V16H280V12H276V8H272V4ZM252 40H256V44H260V40H256V36H280V32H284V22H280V32H256V28L260 28V24H256V28H252V32H248V36H252V40Z" fill="black"/>
<path fill-rule="evenodd" clip-rule="evenodd" d="M368 4H364V8H368V12H344V16H340V26H344V16H368V20L364 20V24H368V20H372V16H376V12H372V8H368V4ZM348 40H352V44H356V40H352V36H376V32H380V22H376V32H352V28L356 28V24H352V28H348V32H344V36H348V40Z" fill="black"/>
<path fill-rule="evenodd" clip-rule="evenodd" d="M320 4H316V8H320V12H296V16H292V26H296V16H320V20L316 20V24H320V20H324V16H328V12H324V8H320V4ZM300 40H304V44H308V40H304V36H328V32H332V22H328V32H304V28L308 28V24H304V28H300V32H296V36H300V40Z" fill="black"/>
<rect x="300" y="4" width="6" height="4" transform="rotate(90 300 4)" fill="black"/>
<path fill-rule="evenodd" clip-rule="evenodd" d="M218 12H200V16L218 16V12ZM222 12V16L232 16V12H222ZM214 22.0001H200V26.0001H232V22.0001H218V26H214V22.0001ZM200 32L204 32V36H208V32L232 32V36H200V32Z" fill="black"/>
<path fill-rule="evenodd" clip-rule="evenodd" d="M69 6H65V22H69V6ZM65 42V26H69V42H65ZM78 6H74V10H78V6ZM78 14H74V34H78V14ZM78 38H74V42H78V38Z" fill="black"/>
<path fill-rule="evenodd" clip-rule="evenodd" d="M440 8H444.571V12.5714H440V8ZM449.143 17.1429H444.571V12.5714H449.143V17.1429ZM453.714 21.7143H449.143V17.1429H453.714V21.7143ZM458.286 21.7143L453.714 21.7143L453.714 26.2857H449.143V30.8571H444.571V35.4286H440V40H444.571V35.4286H449.143L449.143 30.8571H453.714V26.2857H458.286V30.8571H462.857V35.4286H467.429V40H472V35.4286H467.429V30.8571H462.857V26.2857H458.286V21.7143ZM462.857 17.1429V21.7143L458.286 21.7143V17.1429H462.857ZM467.429 12.5714V17.1429H462.857V12.5714H467.429ZM467.429 12.5714V8H472V12.5714H467.429Z" fill="black"/>
</svg>
