<svg width="112" height="128" viewBox="0 0 112 128" fill="none" xmlns="http://www.w3.org/2000/svg">
<path d="M48 0H64V4H48V0Z" fill="black"/>
<path d="M40 8V4H48V8H40Z" fill="black"/>
<path d="M32 12V8H40V12H32Z" fill="black"/>
<path d="M28 16V12H32V16H28Z" fill="black"/>
<path d="M20 20V16H28V20H20Z" fill="black"/>
<path d="M16 24V20H20V24H16Z" fill="black"/>
<path d="M8 28V24H16V28H8Z" fill="black"/>
<path d="M4 32V28H8V32H4Z" fill="black"/>
<path d="M4 96H0V32H4V96Z" fill="black"/>
<path d="M8 100H4V96H8V100Z" fill="black"/>
<path d="M16 104H8V100H16V104Z" fill="black"/>
<path d="M20 108H16V104H20V108Z" fill="black"/>
<path d="M28 112H20V108H28V112Z" fill="black"/>
<path d="M32 116H28V112H32V116Z" fill="black"/>
<path d="M40 120H32V116H40V120Z" fill="black"/>
<path d="M48 124H40V120H48V124Z" fill="black"/>
<path d="M64 124H48V128H64V124Z" fill="black"/>
<path d="M72 120V124H64V120H72Z" fill="black"/>
<path d="M80 116V120H72V116H80Z" fill="black"/>
<path d="M84 112V116H80V112H84Z" fill="black"/>
<path d="M92 108V112H84V108H92Z" fill="black"/>
<path d="M96 104V108H92V104H96Z" fill="black"/>
<path d="M104 100V104H96V100H104Z" fill="black"/>
<path d="M108 96V100H104V96H108Z" fill="black"/>
<path d="M108 32H112V96H108V32Z" fill="black"/>
<path d="M104 28H108V32H104V28Z" fill="black"/>
<path d="M96 24H104V28H96V24Z" fill="black"/>
<path d="M92 20H96V24H92V20Z" fill="black"/>
<path d="M84 16H92V20H84V16Z" fill="black"/>
<path d="M80 12H84V16H80V12Z" fill="black"/>
<path d="M72 8H80V12H72V8Z" fill="black"/>
<path d="M72 8V4H64V8H72Z" fill="black"/>
<path d="M64 4H48V8H40V12H32V16H28V20H20V24H16V28H8V32H4V96H8V100H16V104H20V108H28V112H32V116H40V120H48V124H64V120H72V116H80V112H84V108H92V104H96V100H104V96H108V32H104V28H96V24H92V20H84V16H80V12H72V8H64V4Z" fill="#FF5C5C"/>
</svg>
