<svg width="300" height="300" viewBox="0 0 300 300" fill="none" xmlns="http://www.w3.org/2000/svg">
<rect width="300" height="300" fill="white"/>
<circle cx="30" cy="30" r="30" fill="#48EC9D" fill-opacity="0.2"/>
<path d="M20.1271 40.0781L24.0825 38.76L24.7856 39.0825C26.3875 39.9031 28.1259 40.3134 30.0009 40.3134C33.1846 40.2159 35.8359 39.1759 37.9546 37.1934C40.0734 35.2109 41.1721 32.8134 41.2509 30.0009C41.1728 27.1884 40.074 24.7909 37.9546 22.8084C35.8353 20.8259 33.184 19.7859 30.0009 19.6884C26.8171 19.7859 24.1659 20.8259 22.0471 22.8084C19.9284 24.7909 18.8296 27.1884 18.7509 30.0009C18.7509 31.0165 18.9268 32.0225 19.2787 33.0187C19.6306 34.015 20.1481 34.9525 20.8312 35.8312L21.4762 36.6806L20.1271 40.0781ZM18.779 42.4809C18.4078 42.5984 18.0903 42.5153 17.8265 42.2315C17.5628 41.9478 17.4993 41.6206 17.6362 41.25L19.3359 36.9721C18.5546 35.9371 17.949 34.8287 17.519 33.6468C17.089 32.465 16.874 31.249 16.874 29.999C16.9521 26.7765 18.2021 23.969 20.624 21.5765C23.0459 19.184 26.1709 17.929 29.999 17.8115C33.8271 17.929 36.9521 19.184 39.374 21.5765C41.7959 23.969 43.0459 26.7765 43.124 29.999C43.0459 33.2215 41.7959 36.029 39.374 38.4215C36.9521 40.814 33.8271 42.069 29.999 42.1865C27.8703 42.1865 25.8487 41.7178 23.9343 40.7803L18.779 42.4809ZM30 31.4943C29.7262 31.4943 29.4771 31.4309 29.2528 31.304C29.0284 31.1771 28.8478 30.9915 28.7109 30.7471C28.574 30.5028 28.5056 30.2537 28.5056 30C28.5056 29.7462 28.574 29.4971 28.7109 29.2528C28.8478 29.0084 29.0284 28.8228 29.2528 28.6959C29.4771 28.569 29.7262 28.5056 30 28.5056C30.43 28.5056 30.7865 28.6471 31.0696 28.9303C31.3528 29.2134 31.4943 29.57 31.4943 30C31.4943 30.43 31.3528 30.7865 31.0696 31.0696C30.7865 31.3528 30.43 31.4943 30 31.4943V31.4943ZM35.625 31.4943C35.3512 31.4943 35.1021 31.4309 34.8778 31.304C34.6534 31.1771 34.4728 30.9915 34.3359 30.7471C34.199 30.5028 34.1306 30.2537 34.1306 30C34.1306 29.7462 34.199 29.4971 34.3359 29.2528C34.4728 29.0084 34.6534 28.8228 34.8778 28.6959C35.1021 28.569 35.3512 28.5056 35.625 28.5056C36.055 28.5056 36.4115 28.6471 36.6946 28.9303C36.9778 29.2134 37.1193 29.57 37.1193 30C37.1193 30.43 36.9778 30.7865 36.6946 31.0696C36.4115 31.3528 36.055 31.4943 35.625 31.4943V31.4943ZM24.375 31.4943C24.1012 31.4943 23.8521 31.4309 23.6278 31.304C23.4034 31.1771 23.2228 30.9915 23.0859 30.7471C22.949 30.5028 22.8806 30.2537 22.8806 30C22.8806 29.7462 22.949 29.4971 23.0859 29.2528C23.2228 29.0084 23.4034 28.8228 23.6278 28.6959C23.8521 28.569 24.1012 28.5056 24.375 28.5056C24.805 28.5056 25.1615 28.6471 25.4446 28.9303C25.7278 29.2134 25.8693 29.57 25.8693 30C25.8693 30.43 25.7278 30.7865 25.4446 31.0696C25.1615 31.3528 24.805 31.4943 24.375 31.4943V31.4943Z" fill="#08080A" fill-opacity="0.96"/>
<circle cx="110" cy="30" r="30" fill="#8DFF33" fill-opacity="0.2"/>
<path d="M110 30C111.602 29.9606 112.93 29.4138 113.984 28.3594C115.039 27.305 115.586 25.9769 115.625 24.375C115.586 22.7731 115.039 21.445 113.984 20.3906C112.93 19.3362 111.602 18.7894 110 18.75C108.398 18.7894 107.07 19.3362 106.016 20.3906C104.961 21.445 104.414 22.7731 104.375 24.375C104.414 25.9769 104.961 27.305 106.016 28.3594C107.07 29.4138 108.398 29.9606 110 30ZM110 31.875C107.871 31.8162 106.104 31.0838 104.697 29.6775C103.291 28.2713 102.559 26.5037 102.5 24.375C102.559 22.2463 103.291 20.4787 104.697 19.0725C106.104 17.6662 107.871 16.9338 110 16.875C112.129 16.9338 113.896 17.6662 115.303 19.0725C116.709 20.4787 117.441 22.2463 117.5 24.375C117.441 26.5037 116.709 28.2713 115.303 29.6775C113.896 31.0838 112.129 31.8162 110 31.875ZM110 30C110.274 30 110.498 30.0878 110.674 30.2634C110.85 30.4391 110.938 30.6638 110.938 30.9375V38.4375C110.938 38.7112 110.85 38.9359 110.674 39.1116C110.498 39.2872 110.274 39.375 110 39.375C109.726 39.375 109.502 39.2872 109.326 39.1116C109.15 38.9359 109.062 38.7112 109.062 38.4375V30.9375C109.062 30.6638 109.15 30.4391 109.326 30.2634C109.502 30.0878 109.726 30 110 30V30ZM106.25 34.0134V35.9175C104.551 36.2106 103.193 36.5962 102.178 37.0744C101.162 37.5525 100.644 38.0066 100.625 38.4366C100.684 39.0422 101.587 39.6525 103.335 40.2675C105.083 40.8825 107.305 41.2097 110 41.2491C112.696 41.2097 114.917 40.8825 116.665 40.2675C118.412 39.6525 119.316 39.0422 119.375 38.4366C119.356 38.0066 118.838 37.5525 117.822 37.0744C116.807 36.5962 115.449 36.2106 113.75 35.9175V34.0134C115.977 34.3453 117.774 34.9069 119.141 35.6981C120.507 36.4894 121.211 37.4025 121.25 38.4375C121.172 39.7656 120.073 40.8691 117.954 41.7478C115.834 42.6266 113.183 43.0856 110 43.125C106.816 43.0856 104.165 42.6266 102.046 41.7478C99.9275 40.8691 98.8287 39.7656 98.75 38.4375C98.7894 37.4025 99.4925 36.4894 100.859 35.6981C102.226 34.9069 104.023 34.3453 106.25 34.0134Z" fill="#08080A" fill-opacity="0.96"/>
<circle cx="190" cy="30" r="30" fill="#F76D6D" fill-opacity="0.2"/>
<path d="M178.75 26.25V39.375H201.25V26.25H178.75ZM177.812 24.375H202.188C202.461 24.375 202.686 24.4628 202.862 24.6384C203.037 24.8141 203.125 25.0388 203.125 25.3125V40.3125C203.125 40.5862 203.037 40.8109 202.862 40.9866C202.686 41.1622 202.461 41.25 202.188 41.25H177.812C177.539 41.25 177.314 41.1622 177.138 40.9866C176.963 40.8109 176.875 40.5862 176.875 40.3125V25.3125C176.875 25.0388 176.963 24.8141 177.138 24.6384C177.314 24.4628 177.539 24.375 177.812 24.375ZM179.688 20.625H200.312V22.5H179.688V20.625ZM182.5 16.875H197.5V18.75H182.5V16.875Z" fill="#08080A" fill-opacity="0.96"/>
<circle cx="270" cy="30" r="30" fill="#4857EC" fill-opacity="0.2"/>
<path d="M265.518 37.5H259.688C259.414 37.5 259.189 37.4122 259.013 37.2366C258.838 37.0609 258.75 36.8363 258.75 36.5625V20.625H256.875C256.601 20.625 256.377 20.5372 256.201 20.3616C256.025 20.1859 255.938 19.9613 255.938 19.6875C255.938 19.4137 256.025 19.1891 256.201 19.0134C256.377 18.8378 256.601 18.75 256.875 18.75H283.125C283.399 18.75 283.623 18.8378 283.799 19.0134C283.975 19.1891 284.062 19.4137 284.062 19.6875C284.062 19.9613 283.975 20.1859 283.799 20.3616C283.623 20.5372 283.399 20.625 283.125 20.625H281.25V36.5625C281.25 36.8363 281.162 37.0609 280.987 37.2366C280.811 37.4122 280.586 37.5 280.312 37.5H274.482L277.734 43.125H275.566L272.314 37.5H267.684L264.432 43.125H262.264L265.518 37.5ZM279.375 20.625H260.625V35.625H279.375V20.625ZM265.049 30.6741C264.853 30.8497 264.629 30.9375 264.375 30.9375C264.121 30.9375 263.902 30.8447 263.716 30.6591C263.53 30.4734 263.438 30.2537 263.438 30C263.438 29.7463 263.525 29.5216 263.701 29.3259L268.037 25.0191L271.699 27.7734L274.892 23.7891C275.126 23.4959 275.424 23.3738 275.785 23.4225C276.147 23.4713 276.391 23.6666 276.517 24.0084C276.644 24.3503 276.591 24.6678 276.356 24.9609L272.049 30.3516L268.211 27.48L265.049 30.6741Z" fill="#08080A" fill-opacity="0.96"/>
<circle cx="27" cy="107" r="27" fill="#4857EC" fill-opacity="0.1"/>
<path d="M31.08 111.423C29.8822 112.532 28.258 113.155 26.5643 113.155C24.8707 113.155 23.2464 112.532 22.0486 111.423M21.774 104.285H21.79M31.3547 104.285H31.3706M40.9353 107.242C40.9353 108.99 40.5636 110.72 39.8414 112.334C39.1192 113.949 38.0606 115.416 36.7261 116.651C35.3917 117.887 33.8074 118.867 32.0639 119.536C30.3203 120.205 28.4515 120.549 26.5643 120.549C24.6771 120.549 22.8084 120.205 21.0648 119.536C19.3212 118.867 17.737 117.887 16.4025 116.651C15.0681 115.416 14.0095 113.949 13.2873 112.334C12.5651 110.72 12.1934 108.99 12.1934 107.242C12.1934 103.713 13.7074 100.328 16.4025 97.833C19.0976 95.3375 22.7529 93.9355 26.5643 93.9355C30.3757 93.9355 34.0311 95.3375 36.7261 97.833C39.4212 100.328 40.9353 103.713 40.9353 107.242Z" stroke="#4857EC" stroke-width="3" stroke-linecap="round" stroke-linejoin="round"/>
<circle cx="107" cy="107" r="27" fill="#FFD6D6" fill-opacity="0.5"/>
<path d="M111.08 111.423C109.882 112.532 108.258 113.155 106.564 113.155C104.871 113.155 103.246 112.532 102.049 111.423M101.774 104.285H101.79M111.355 104.285H111.371M120.935 107.242C120.935 108.99 120.564 110.72 119.841 112.334C119.119 113.949 118.061 115.416 116.726 116.651C115.392 117.887 113.807 118.867 112.064 119.536C110.32 120.205 108.452 120.549 106.564 120.549C104.677 120.549 102.808 120.205 101.065 119.536C99.3212 118.867 97.737 117.887 96.4025 116.651C95.0681 115.416 94.0095 113.949 93.2873 112.334C92.5651 110.72 92.1934 108.99 92.1934 107.242C92.1934 103.713 93.7074 100.328 96.4025 97.833C99.0976 95.3375 102.753 93.9355 106.564 93.9355C110.376 93.9355 114.031 95.3375 116.726 97.833C119.421 100.328 120.935 103.713 120.935 107.242Z" stroke="#C66464" stroke-width="3" stroke-linecap="round" stroke-linejoin="round"/>
<path d="M158.641 154.537C158.39 153.821 157.296 153.821 157.044 154.537L155.768 158.172C155.713 158.328 155.606 158.464 155.463 158.561C155.319 158.657 155.146 158.709 154.969 158.709H150.842C150.029 158.709 149.689 159.673 150.348 160.117L153.687 162.363C153.831 162.459 153.938 162.595 153.992 162.752C154.047 162.908 154.047 163.076 153.992 163.232L152.717 166.867C152.465 167.584 153.351 168.18 154.009 167.737L157.349 165.491C157.492 165.394 157.665 165.342 157.842 165.342C158.02 165.342 158.193 165.394 158.336 165.491L161.676 167.737C162.334 168.18 163.22 167.584 162.968 166.867L161.693 163.232C161.638 163.076 161.638 162.908 161.693 162.752C161.747 162.595 161.854 162.459 161.998 162.363L165.337 160.117C165.995 159.673 165.657 158.709 164.843 158.709H160.715C160.538 158.709 160.365 158.657 160.222 158.56C160.079 158.464 159.972 158.328 159.917 158.172L158.641 154.537Z" fill="#F9C94E"/>
<path d="M177.641 154.537C177.39 153.821 176.296 153.821 176.044 154.537L174.768 158.172C174.713 158.328 174.606 158.464 174.463 158.561C174.319 158.657 174.146 158.709 173.969 158.709H169.842C169.029 158.709 168.689 159.673 169.348 160.117L172.687 162.363C172.831 162.459 172.938 162.595 172.992 162.752C173.047 162.908 173.047 163.076 172.992 163.232L171.717 166.867C171.465 167.584 172.351 168.18 173.009 167.737L176.349 165.491C176.492 165.394 176.665 165.342 176.842 165.342C177.02 165.342 177.193 165.394 177.336 165.491L180.676 167.737C181.334 168.18 182.22 167.584 181.968 166.867L180.693 163.232C180.638 163.076 180.638 162.908 180.693 162.752C180.747 162.595 180.854 162.459 180.998 162.363L184.337 160.117C184.995 159.673 184.657 158.709 183.843 158.709H179.715C179.538 158.709 179.365 158.657 179.222 158.56C179.079 158.464 178.972 158.328 178.917 158.172L177.641 154.537Z" stroke="#F9C94E" stroke-linecap="round" stroke-linejoin="round"/>
<circle cx="187" cy="107" r="27" fill="#BCFF87" fill-opacity="0.5"/>
<path d="M199.841 112.334C200.564 110.72 200.935 108.99 200.935 107.242C200.935 103.713 199.421 100.328 196.726 97.833C194.031 95.3375 190.376 93.9355 186.564 93.9355C182.753 93.9355 179.098 95.3375 176.403 97.833C173.707 100.328 172.193 103.713 172.193 107.242C172.193 108.99 172.565 110.72 173.287 112.334C174.009 113.949 175.068 115.416 176.403 116.651C177.737 117.887 179.321 118.867 181.065 119.536C182.808 120.205 184.677 120.549 186.564 120.549C188.452 120.549 190.32 120.205 192.064 119.536C193.807 118.867 195.392 117.887 196.726 116.651C198.061 115.416 199.119 113.949 199.841 112.334Z" fill="#E8FFD6"/>
<path d="M191.08 111.423C189.882 112.532 188.258 113.155 186.564 113.155C184.871 113.155 183.246 112.532 182.049 111.423M181.774 104.285H181.79M191.355 104.285H191.371M200.935 107.242C200.935 108.99 200.564 110.72 199.841 112.334C199.119 113.949 198.061 115.416 196.726 116.651C195.392 117.887 193.807 118.867 192.064 119.536C190.32 120.205 188.452 120.549 186.564 120.549C184.677 120.549 182.808 120.205 181.065 119.536C179.321 118.867 177.737 117.887 176.403 116.651C175.068 115.416 174.009 113.949 173.287 112.334C172.565 110.72 172.193 108.99 172.193 107.242C172.193 103.713 173.707 100.328 176.403 97.833C179.098 95.3375 182.753 93.9355 186.564 93.9355C190.376 93.9355 194.031 95.3375 196.726 97.833C199.421 100.328 200.935 103.713 200.935 107.242Z" stroke="#6AAF35" stroke-width="3" stroke-linecap="round" stroke-linejoin="round"/>
<path d="M40 155.801C42.6719 155.801 42.9883 155.812 44.0391 155.859C45.0156 155.902 45.543 156.066 45.8945 156.203C46.3594 156.383 46.6953 156.602 47.043 156.949C47.3945 157.301 47.6094 157.633 47.7891 158.098C47.9258 158.449 48.0898 158.98 48.1328 159.953C48.1797 161.008 48.1914 161.324 48.1914 163.992C48.1914 166.664 48.1797 166.98 48.1328 168.031C48.0898 169.008 47.9258 169.535 47.7891 169.887C47.6094 170.352 47.3906 170.688 47.043 171.035C46.6914 171.387 46.3594 171.602 45.8945 171.781C45.543 171.918 45.0117 172.082 44.0391 172.125C42.9844 172.172 42.668 172.184 40 172.184C37.3281 172.184 37.0117 172.172 35.9609 172.125C34.9844 172.082 34.457 171.918 34.1055 171.781C33.6406 171.602 33.3047 171.383 32.957 171.035C32.6055 170.684 32.3906 170.352 32.2109 169.887C32.0742 169.535 31.9102 169.004 31.8672 168.031C31.8203 166.977 31.8086 166.66 31.8086 163.992C31.8086 161.32 31.8203 161.004 31.8672 159.953C31.9102 158.977 32.0742 158.449 32.2109 158.098C32.3906 157.633 32.6094 157.297 32.957 156.949C33.3086 156.598 33.6406 156.383 34.1055 156.203C34.457 156.066 34.9883 155.902 35.9609 155.859C37.0117 155.812 37.3281 155.801 40 155.801ZM40 154C37.2852 154 36.9453 154.012 35.8789 154.059C34.8164 154.105 34.0859 154.277 33.4531 154.523C32.793 154.781 32.2344 155.121 31.6797 155.68C31.1211 156.234 30.7813 156.793 30.5234 157.449C30.2773 158.086 30.1055 158.812 30.0586 159.875C30.0117 160.945 30 161.285 30 164C30 166.715 30.0117 167.055 30.0586 168.121C30.1055 169.184 30.2773 169.914 30.5234 170.547C30.7813 171.207 31.1211 171.766 31.6797 172.32C32.2344 172.875 32.793 173.219 33.4492 173.473C34.0859 173.719 34.8125 173.891 35.875 173.938C36.9414 173.984 37.2813 173.996 39.9961 173.996C42.7109 173.996 43.0508 173.984 44.1172 173.938C45.1797 173.891 45.9102 173.719 46.543 173.473C47.1992 173.219 47.7578 172.875 48.3125 172.32C48.8672 171.766 49.2109 171.207 49.4648 170.551C49.7109 169.914 49.8828 169.188 49.9297 168.125C49.9766 167.059 49.9883 166.719 49.9883 164.004C49.9883 161.289 49.9766 160.949 49.9297 159.883C49.8828 158.82 49.7109 158.09 49.4648 157.457C49.2188 156.793 48.8789 156.234 48.3203 155.68C47.7656 155.125 47.207 154.781 46.5508 154.527C45.9141 154.281 45.1875 154.109 44.125 154.063C43.0547 154.012 42.7148 154 40 154Z" fill="black"/>
<path d="M40 158.863C37.1641 158.863 34.8633 161.164 34.8633 164C34.8633 166.836 37.1641 169.137 40 169.137C42.8359 169.137 45.1367 166.836 45.1367 164C45.1367 161.164 42.8359 158.863 40 158.863ZM40 167.332C38.1602 167.332 36.668 165.84 36.668 164C36.668 162.16 38.1602 160.668 40 160.668C41.8398 160.668 43.332 162.16 43.332 164C43.332 165.84 41.8398 167.332 40 167.332Z" fill="black"/>
<path d="M46.5391 158.66C46.5391 159.324 46 159.859 45.3398 159.859C44.6758 159.859 44.1406 159.32 44.1406 158.66C44.1406 157.996 44.6797 157.461 45.3398 157.461C46 157.461 46.5391 158 46.5391 158.66Z" fill="black"/>
<g clip-path="url(#clip0_2135_2821)">
<path d="M20 164C20 158.477 15.5229 154 10 154C4.47715 154 0 158.477 0 164C0 168.991 3.65684 173.128 8.4375 173.879V166.891H5.89844V164H8.4375V161.797C8.4375 159.291 9.93047 157.906 12.2146 157.906C13.3084 157.906 14.4531 158.102 14.4531 158.102V160.563H13.1922C11.95 160.563 11.5625 161.333 11.5625 162.125V164H14.3359L13.8926 166.891H11.5625V173.879C16.3432 173.128 20 168.991 20 164Z" fill="black"/>
</g>
<g clip-path="url(#clip1_2135_2821)">
<path d="M79.6018 159.155C79.4888 158.729 79.2659 158.341 78.9556 158.028C78.6453 157.716 78.2584 157.491 77.8337 157.375C76.27 156.955 70.02 156.955 70.02 156.955C70.02 156.955 63.77 156.955 62.2064 157.375C61.7816 157.491 61.3947 157.716 61.0844 158.028C60.7741 158.341 60.5513 158.729 60.4382 159.155C60.02 160.725 60.02 164 60.02 164C60.02 164 60.02 167.275 60.4382 168.845C60.5513 169.271 60.7741 169.659 61.0844 169.972C61.3947 170.284 61.7816 170.509 62.2064 170.625C63.77 171.045 70.02 171.045 70.02 171.045C70.02 171.045 76.27 171.045 77.8337 170.625C78.2584 170.509 78.6453 170.284 78.9556 169.972C79.2659 169.659 79.4888 169.271 79.6018 168.845C80.02 167.275 80.02 164 80.02 164C80.02 164 80.02 160.725 79.6018 159.155Z" fill="black"/>
<path d="M67.9746 166.974V161.026L73.2019 164L67.9746 166.974Z" fill="#FEFEFE"/>
</g>
<g clip-path="url(#clip2_2135_2821)">
<path fill-rule="evenodd" clip-rule="evenodd" d="M100 154.417C97.6264 154.418 95.3303 155.259 93.5225 156.789C91.7148 158.319 90.5134 160.438 90.1331 162.768C89.7528 165.098 90.2184 167.487 91.4467 169.507C92.675 171.527 94.5858 173.046 96.8376 173.794C97.3344 173.886 97.5215 173.578 97.5215 173.317C97.5215 173.055 97.5115 172.296 97.5082 171.466C94.7263 172.067 94.1385 170.292 94.1385 170.292C93.6847 169.139 93.029 168.836 93.029 168.836C92.1216 168.221 93.0969 168.232 93.0969 168.232C94.102 168.303 94.6303 169.258 94.6303 169.258C95.5211 170.778 96.9701 170.338 97.5397 170.081C97.6291 169.437 97.8891 168.999 98.1756 168.751C95.9533 168.501 93.6185 167.648 93.6185 163.838C93.6047 162.85 93.9735 161.894 94.6485 161.169C94.5458 160.918 94.203 159.908 94.7462 158.534C94.7462 158.534 95.5857 158.268 97.4966 159.554C99.1357 159.108 100.865 159.108 102.504 159.554C104.413 158.268 105.251 158.534 105.251 158.534C105.796 159.904 105.453 160.915 105.351 161.169C106.028 161.894 106.397 162.851 106.382 163.841C106.382 167.659 104.042 168.501 101.817 168.746C102.175 169.055 102.494 169.66 102.494 170.588C102.494 171.919 102.483 172.989 102.483 173.317C102.483 173.582 102.663 173.891 103.17 173.794C105.422 173.046 107.333 171.526 108.561 169.506C109.789 167.486 110.255 165.097 109.874 162.767C109.493 160.436 108.291 158.317 106.483 156.787C104.675 155.257 102.378 154.417 100.004 154.417H100Z" fill="black"/>
<path d="M93.7868 168.694C93.7653 168.743 93.6858 168.758 93.6212 168.723C93.5566 168.689 93.5086 168.624 93.5318 168.573C93.555 168.522 93.6328 168.509 93.6974 168.544C93.762 168.578 93.8116 168.644 93.7868 168.694Z" fill="black"/>
<path d="M94.1929 169.143C94.1586 169.16 94.1193 169.165 94.0819 169.156C94.0444 169.148 94.0111 169.127 93.9875 169.097C93.9229 169.028 93.9097 168.932 93.9594 168.889C94.009 168.846 94.0985 168.866 94.163 168.935C94.2276 169.004 94.2425 169.1 94.1929 169.143Z" fill="black"/>
<path d="M94.5867 169.714C94.5255 169.757 94.4211 169.714 94.3632 169.629C94.3471 169.613 94.3344 169.595 94.3257 169.575C94.317 169.554 94.3125 169.532 94.3125 169.51C94.3125 169.488 94.317 169.466 94.3257 169.446C94.3344 169.425 94.3471 169.407 94.3632 169.392C94.4244 169.35 94.5288 169.392 94.5867 169.476C94.6447 169.56 94.6463 169.672 94.5867 169.714V169.714Z" fill="black"/>
<path d="M95.1217 170.267C95.067 170.328 94.9561 170.312 94.865 170.23C94.7739 170.147 94.7524 170.035 94.8071 169.976C94.8617 169.917 94.9726 169.933 95.067 170.014C95.1614 170.094 95.1796 170.208 95.1217 170.267V170.267Z" fill="black"/>
<path d="M95.872 170.59C95.8471 170.668 95.7345 170.702 95.6219 170.669C95.5093 170.636 95.4348 170.544 95.4563 170.465C95.4779 170.386 95.5921 170.35 95.7064 170.386C95.8206 170.422 95.8935 170.51 95.872 170.59Z" fill="black"/>
<path d="M96.6896 170.646C96.6896 170.727 96.5969 170.796 96.4777 170.797C96.3584 170.799 96.2607 170.733 96.2607 170.652C96.2607 170.572 96.3535 170.503 96.4727 170.501C96.5919 170.499 96.6896 170.564 96.6896 170.646Z" fill="black"/>
<path d="M97.4517 170.519C97.4666 170.6 97.3838 170.684 97.2645 170.704C97.1453 170.724 97.041 170.676 97.0261 170.597C97.0112 170.518 97.0973 170.432 97.2132 170.411C97.3291 170.389 97.4368 170.439 97.4517 170.519Z" fill="black"/>
</g>
<path d="M128.24 162.39C127.67 162.39 127.22 162.89 127.22 163.5C127.22 164.11 127.68 164.61 128.24 164.61C128.81 164.61 129.26 164.11 129.26 163.5C129.27 162.89 128.81 162.39 128.24 162.39ZM131.89 162.39C131.32 162.39 130.87 162.89 130.87 163.5C130.87 164.11 131.33 164.61 131.89 164.61C132.46 164.61 132.91 164.11 132.91 163.5C132.91 162.89 132.46 162.39 131.89 162.39Z" fill="black"/>
<path d="M136.75 154H123.35C122.22 154 121.3 154.92 121.3 156.06V169.58C121.3 170.72 122.22 171.64 123.35 171.64H134.69L134.16 169.79L135.44 170.98L136.65 172.1L138.8 174V156.06C138.8 154.92 137.88 154 136.75 154ZM132.89 167.06C132.89 167.06 132.53 166.63 132.23 166.25C133.54 165.88 134.04 165.06 134.04 165.06C133.63 165.33 133.24 165.52 132.89 165.65C132.39 165.86 131.91 166 131.44 166.08C130.48 166.26 129.6 166.21 128.85 166.07C128.28 165.96 127.79 165.8 127.38 165.64C127.15 165.55 126.9 165.44 126.65 165.3C126.62 165.28 126.59 165.27 126.56 165.25C126.54 165.24 126.53 165.23 126.52 165.22C126.34 165.12 126.24 165.05 126.24 165.05C126.24 165.05 126.72 165.85 127.99 166.23C127.69 166.61 127.32 167.06 127.32 167.06C125.11 166.99 124.27 165.54 124.27 165.54C124.27 162.32 125.71 159.71 125.71 159.71C127.15 158.63 128.52 158.66 128.52 158.66L128.62 158.78C126.82 159.3 125.99 160.09 125.99 160.09C125.99 160.09 126.21 159.97 126.58 159.8C127.65 159.33 128.5 159.2 128.85 159.17C128.91 159.16 128.96 159.15 129.02 159.15C129.63 159.07 130.32 159.05 131.04 159.13C131.99 159.24 133.01 159.52 134.05 160.09C134.05 160.09 133.26 159.34 131.56 158.82L131.7 158.66C131.7 158.66 133.07 158.63 134.51 159.71C134.51 159.71 135.95 162.32 135.95 165.54C135.95 165.54 135.1 166.99 132.89 167.06V167.06Z" fill="black"/>
<defs>
<clipPath id="clip0_2135_2821">
<rect width="20" height="20" fill="white" transform="translate(0 154)"/>
</clipPath>
<clipPath id="clip1_2135_2821">
<rect width="20" height="20" fill="white" transform="translate(60 154)"/>
</clipPath>
<clipPath id="clip2_2135_2821">
<rect width="20" height="20" fill="white" transform="translate(90 154)"/>
</clipPath>
</defs>
</svg>
