<svg width="202" height="155" viewBox="0 0 202 155" fill="none" xmlns="http://www.w3.org/2000/svg">
<path d="M116.411 85.3198V139.4H108.691V147.13H139.591V116.23H147.311V93.0498H155.041V85.3198H116.411Z" fill="#513418"/>
<path d="M170.493 31.2501V23.5201H155.043V15.8001H147.313V8.0701H116.413V15.8001H85.513V8.0701H77.793V0.350098H54.613V8.0701H46.893V15.8001H38.913H23.713V8.0701H15.993V31.2501V38.9801H0.542969V54.4301H8.26297V62.1501H15.993V69.8801H23.713V139.4H15.993V147.13H46.893V116.23H54.613V108.5H62.343V85.3201H85.513H116.413H147.313V147.13H139.593V154.85H170.493V85.3201H178.213V31.2501H170.493Z" fill="#754F26"/>
<path d="M15.993 38.98H23.713V31.25H39.163V38.98H46.893V46.7H54.613V54.43H62.343V62.15H54.613V69.88H46.893V77.6H39.163V85.32H31.443V77.6H23.713V69.88H15.993V62.15H8.26297V54.43H0.542969V38.98H15.993Z" fill="#AA7A41"/>
<path d="M62.3433 85.3198V147.13H54.6133V154.85H85.5133V116.23H93.2433V93.0498H100.963V85.3198H62.3433Z" fill="#754F26"/>
<path d="M31.4422 85.3201V77.6001H23.7122V139.4H15.9922V147.13H46.8922V116.23H54.6122V85.3201H31.4422Z" fill="#513418"/>
<path d="M185.942 93.0499V62.1499H178.212V77.5999H170.492V93.0499H178.212V100.77H193.662V93.0499H185.942Z" fill="#754F26"/>
<path d="M193.661 85.3301H185.941V93.0601H193.661V85.3301Z" fill="#382210"/>
<path d="M201.38 93.0498H193.66V100.77H201.38V93.0498Z" fill="#382210"/>
<path d="M193.661 100.77H185.941V108.5H193.661V100.77Z" fill="#382210"/>
<path d="M54.6133 15.7998H62.3433V23.5198H70.0633V31.2498H77.7933V54.4298H85.5133V62.1498H77.7933V69.8798H85.5133V62.1498H93.2433V54.4298H85.5133V31.2498H77.7933V23.5198H70.0633V15.7998H62.3433V8.06982H54.6133V15.7998Z" fill="#AA7A41"/>
<path d="M46.8802 31.25H39.1602V38.98H46.8802V31.25Z" fill="#28211C"/>
<path d="M23.7122 31.25H15.9922V38.98H23.7122V31.25Z" fill="#28211C"/>
<path d="M0.542969 38.98V46.7V54.43H8.26297V46.7H15.993V38.98H0.542969Z" fill="#28211C"/>
<path d="M39.1609 54.4297H31.4409V62.1497H23.7109V69.8797H31.4409V62.1497H39.1609V54.4297Z" fill="#28211C"/>
<path d="M15.9817 15.7998H8.26172V38.9698H15.9817V15.7998Z" fill="#754F26"/>
<path d="M15.9817 15.7998H8.26172V23.5198H15.9817V15.7998Z" fill="#513418"/>
<path d="M62.3333 15.7998H54.6133V23.5198H62.3333V15.7998Z" fill="#513418"/>
<path d="M131.863 85.3198V93.0498H139.593V100.77V108.5H147.313V85.3198H131.863Z" fill="#754F26"/>
</svg>
