<svg width="171" height="171" viewBox="0 0 171 171" fill="none" xmlns="http://www.w3.org/2000/svg">
<path d="M47.2125 139.93V147.65H39.4925V155.38H24.0425V163.1H16.3125V170.82H62.6625V139.93H54.9425H47.2125Z" fill="#513418"/>
<path d="M24.0433 93.5698H16.3133V101.3H8.59328V109.03H0.863281V124.47H16.3133V109.03H24.0433V93.5698Z" fill="#513418"/>
<path d="M163.093 124.47V132.2H155.363V139.93H147.643V147.65H139.913H132.193V139.93H124.463V132.2V124.47V101.3H116.743V93.5699H109.013V85.8499H85.8433V78.1299H54.9433H47.2133V70.3999H39.4933V62.6699V31.7799H47.2133V24.0499H54.9433V0.879883H47.2133V8.59988H39.4933V16.3299H31.7633V24.0499V31.7799H24.0433V16.3299H16.3133V8.59988H8.59328V0.879883H0.863281V24.0499H8.59328V31.7799H16.3133V39.4999H8.59328V47.2199H0.863281V62.6699H8.59328H16.3133V70.3999H24.0433V93.5699V101.3H16.3133V109.03H8.59328V124.47H24.0433V116.75H31.7633V109.03H39.4933V116.75V124.47H47.2133V139.93H54.9433V147.65H62.6633V155.38H39.4933H31.7633V163.1H24.0433V170.82H93.5633V155.38H85.8433V147.65H109.013V155.38H116.743V163.1H124.463V170.82H155.363V155.38H163.093V147.65V139.93H170.813V132.2V124.47H163.093Z" fill="#754F26"/>
<path d="M16.3133 39.5V47.22H39.4933V62.67H31.7633V93.57H24.0433V70.4H16.3133V62.67H0.863281V47.22H8.59328V39.5H16.3133Z" fill="#AA7A41"/>
<path d="M39.4922 109.03V101.3H47.2122V109.03H54.9422V124.47H62.6622V147.65H54.9422V139.93H47.2122V124.47H39.4922V109.03Z" fill="#AA7A41"/>
<path d="M31.773 39.5H24.043V47.23H31.773V39.5Z" fill="#28211C"/>
<path d="M8.59328 47.23H0.863281V54.96H8.59328V47.23Z" fill="#28211C"/>
<path d="M16.3198 39.5H8.58984V47.23H16.3198V39.5Z" fill="#28211C"/>
<path d="M39.4922 31.7801V24.0501H47.2122V16.3301H54.9422V24.0501H47.2122V31.7801H39.4922Z" fill="#AA7A41"/>
<path d="M0.863281 16.3301H8.59328V24.0501H16.3133V31.7801H8.59328V24.0501H0.863281V16.3301Z" fill="#AA7A41"/>
<path d="M109.012 147.65H116.742V139.93H124.462V155.38H132.192V163.1H147.642V155.38H155.362V170.82H124.462V163.1H116.742V155.38H109.012V147.65Z" fill="#513418"/>
</svg>
