<svg width="163" height="209" viewBox="0 0 163 209" fill="none" xmlns="http://www.w3.org/2000/svg">
<path d="M85.6617 131.32V139.05H77.9417V146.77H70.2117V154.5H62.4917V200.85H54.7617V131.32H85.6617Z" fill="#9B3A38"/>
<path d="M139.743 115.88V131.32H132.012V139.05V200.85H124.292V146.77H116.562V115.88H139.743Z" fill="#9B3A38"/>
<path d="M39.3133 123.6H23.8633V139.05H39.3133V123.6Z" fill="#FFB031"/>
<path d="M116.56 23.1797H108.84V30.8997H101.11V54.0697H93.3902V61.7997H85.6602V69.5197H116.56V23.1797Z" fill="#754F26"/>
<path d="M147.463 38.63H139.743V61.8H132.013V84.81H139.743V115.88H132.013V123.6H124.293V131.32H116.563V208.57H108.843V162.23H101.113V154.5H93.3933V131.32H70.2133V139.05H62.4933V146.77H54.7633V154.5H47.0433V208.57H39.3133V154.5V131.32H31.5933V123.6H23.8633V84.98H31.5933V77.25H39.3133V69.52H70.2133V77.25H108.843V54.07H116.563V15.45H108.843V7.73001V0H116.563V7.73001H132.013V0H139.743V7.73001H155.193V15.45H162.913V38.63H147.463Z" fill="#FFB031"/>
<path d="M147.462 15.4497V23.1797H139.742V30.8997V38.6297H162.912V15.4497H147.462Z" fill="#FFD54D"/>
<path d="M108.843 69.52H101.113V77.25H108.843V69.52Z" fill="#FFB031"/>
<path d="M101.111 69.52H93.3906V77.25H101.111V69.52Z" fill="#FFB031"/>
<path d="M93.3902 69.52H85.6602V77.25H93.3902V69.52Z" fill="#FFB031"/>
<path d="M85.6614 69.52H77.9414V77.25H85.6614V69.52Z" fill="#FFB031"/>
<path d="M77.9409 69.52H70.2109V77.25H77.9409V69.52Z" fill="#FFB031"/>
<path d="M101.112 61.7998H54.7617V69.5198H101.112V61.7998Z" fill="#FFB031"/>
<path d="M139.732 7.72998H132.012V15.46H139.732V7.72998Z" fill="#28211C"/>
<path d="M155.181 7.72998H147.461V15.46H155.181V7.72998Z" fill="#28211C"/>
<path d="M162.911 30.8999H155.191V38.6299H162.911V30.8999Z" fill="#28211C"/>
<path d="M31.5902 115.88H23.8602V146.77H16.1402V169.95H8.41016V177.68H16.1402V169.95H23.8602V146.77H31.5902V115.88Z" fill="#FFB031"/>
<path d="M16.1402 177.68H8.41016V185.4H16.1402V177.68Z" fill="#28211C"/>
<path d="M8.41141 177.68H0.691406V185.4H8.41141V177.68Z" fill="#28211C"/>
<path d="M77.9409 92.7002H70.2109V100.43H77.9409V92.7002Z" fill="#F0923D"/>
<path d="M85.6614 100.43H77.9414V108.15H85.6614V100.43Z" fill="#F0923D"/>
<path d="M47.0325 92.7002H39.3125V100.43H47.0325V92.7002Z" fill="#F0923D"/>
<path d="M54.773 84.98H47.043V92.71H54.773V84.98Z" fill="#F0923D"/>
<path d="M108.843 84.98H101.113V92.71H108.843V84.98Z" fill="#F0923D"/>
<path d="M116.57 115.88H108.84V123.61H116.57V115.88Z" fill="#F0923D"/>
<path d="M132.013 54.0801H124.293V61.8101H132.013V54.0801Z" fill="#F0923D"/>
<path d="M47.0325 123.6H39.3125V131.33H47.0325V123.6Z" fill="#F0923D"/>
<path d="M47.0325 200.85H39.3125V208.58H47.0325V200.85Z" fill="#28211C"/>
<path d="M116.57 200.85H108.84V208.58H116.57V200.85Z" fill="#28211C"/>
<path d="M23.8606 92.7002H16.1406V131.33H23.8606V92.7002Z" fill="#FFB031"/>
</svg>
