<svg width="165" height="171" viewBox="0 0 165 171" fill="none" xmlns="http://www.w3.org/2000/svg">
<path d="M26.8284 124.63V131.19H20.2684V144.31H13.7084V163.98H7.14844V170.54H46.5084V124.63H26.8284Z" fill="#513418"/>
<path d="M39.9509 85.27H33.3909V91.83H20.2709V98.39H13.7109V104.95H20.2709V98.39H39.9509V85.27Z" fill="#513418"/>
<path d="M46.5106 13.12V0H39.9506V6.56H33.3906V13.12H46.5106Z" fill="#513418"/>
<path d="M151.46 104.95V98.39H144.9V91.83H138.34V85.27H131.78V78.71H125.22V72.15V65.59H131.78H144.9V59.03H151.46V52.47H158.02V45.92H151.46V39.36H144.9V32.8H131.78V26.24H105.54V32.8H98.9798V45.92H92.4198V98.39H79.2998V85.27H72.7498V78.71H79.2998V72.15H85.8598V32.8H79.2998V26.24H72.7498V0H66.1798V6.56H59.6298V13.12H26.8298V26.24H20.2698V32.8H13.7098V39.36H7.14984V45.92H0.589844V65.59H13.7098V72.15H20.2698V78.71H26.8298V111.51V124.63H33.3898V157.42H46.5098V163.98H39.9498V170.54H46.5098V170.79H105.34L105.54 163.98H112.1V157.42H118.66H125.22H138.34V150.86H151.46V144.31H158.02V137.75H164.58V104.95H151.46Z" fill="#754F26"/>
<path d="M92.4194 78.71H85.8594V91.83H92.4194V78.71Z" fill="#754F26"/>
<path d="M26.8281 78.71H33.3881V85.27H46.5081V104.95H53.0681V111.51H59.6281V124.63H66.1781V131.19H59.6281V144.31H46.5081V157.42H33.3881V124.63H26.8281V78.71Z" fill="#AA7A41"/>
<path d="M46.5095 91.8301H39.9495V98.3901H26.8295V104.95H20.2695V111.51H26.8295V104.95H46.5095V91.8301Z" fill="#754F26"/>
<path d="M39.9506 32.7998H33.3906V39.3598H39.9506V32.7998Z" fill="#28211C"/>
<path d="M13.7098 39.3599H20.2698V45.9199H26.8298V52.4699H39.9498V59.0299H53.0698V72.1499H39.9498V78.7099H20.2698V72.1499H13.7098V65.5899H0.589844V45.9199H7.14984V39.3599H13.7098Z" fill="#E2AE6A"/>
<path d="M0.589844 45.9199V52.4699V59.0299H7.14984V52.4699H13.7098V45.9199H0.589844Z" fill="#28211C"/>
<path d="M66.1889 6.56006H59.6289V19.6801H66.1889V6.56006Z" fill="#E2AE6A"/>
<path d="M105.539 163.98V157.42H112.099V150.86H118.659V131.19H112.099V124.63H118.659V131.19H125.219V137.75H131.779V144.31H125.219V150.86H118.659V157.42H112.099V163.98H105.539Z" fill="#AA7A41"/>
<path d="M125.218 65.5898H118.658V72.1498H112.098V78.7099H118.658V85.2699H125.218V91.8298H131.778V98.3898H138.338V104.95H144.898V91.8298H138.338V85.2699H131.778V78.7099H125.218V65.5898Z" fill="#513418"/>
</svg>
