<svg width="163" height="194" viewBox="0 0 163 194" fill="none" xmlns="http://www.w3.org/2000/svg">
<path d="M38.8906 116.3V131.75H46.6106V139.47H54.3406V185.82H62.0606V116.3H38.8906Z" fill="#513418"/>
<path d="M100.691 116.3V131.75V139.47H108.411V147.2H116.141V185.82H123.861V116.3H100.691Z" fill="#513418"/>
<path d="M38.8917 39.0499H31.1617V31.3299H23.4417V23.5999H0.261719V8.14993H7.99171V15.8799H15.7117V0.419922H23.4417V15.8799H31.1617V31.3299H38.8917V39.0499Z" fill="#28211C"/>
<path d="M139.312 85.3997H147.043V77.6697H154.763V69.9497H162.492V85.3997H154.763V93.1297H147.043H139.312V85.3997Z" fill="#E2AE6A"/>
<path d="M69.791 46.7799V54.4999H62.0609V77.6699H69.791V85.3999H108.411V77.6699H131.591V85.3999H139.311V93.1299H147.041V116.3V124.03H139.311V139.47V193.55H131.591V154.93H123.861V147.2H116.141V131.75H85.2409V139.47H77.511V193.55H69.791V131.75H54.3409V124.03H46.6109V116.3H38.891V62.2199H23.4409V46.7799H31.1609V39.0499H23.4409V31.3299H15.7109V15.8799H23.4409V23.5999H31.1609V31.3299H62.0609V23.5999H69.791V15.8799H77.511V31.3299H69.791V46.7799Z" fill="#AA7A41"/>
<path d="M38.8906 77.6699H46.6106V93.1299H54.3406V108.57H62.0606V124.03H69.7906V131.75H54.3406V124.03H46.6106V116.3H38.8906V77.6699Z" fill="#E2AE6A"/>
<path d="M31.1614 46.7798H23.4414V54.4998H31.1614V46.7798Z" fill="#28211C"/>
<path d="M38.8802 39.0498H31.1602V46.7798H38.8802V39.0498Z" fill="#28211C"/>
<path d="M54.3333 39.0498H46.6133V46.7798H54.3333V39.0498Z" fill="#28211C"/>
<path d="M69.793 39.0499H77.513V31.3299H85.243V23.5999H108.413V8.14993H100.693V15.8799H92.963V0.419922H85.243V15.8799H77.513V31.3299H69.793V39.0499Z" fill="#28211C"/>
<path d="M77.513 185.83H69.793V193.55H77.513V185.83Z" fill="#28211C"/>
<path d="M139.31 185.83H131.59V193.55H139.31V185.83Z" fill="#28211C"/>
</svg>
