<svg width="191" height="165" viewBox="0 0 191 165" fill="none" xmlns="http://www.w3.org/2000/svg">
<path d="M26.5195 125.19V131.75H33.0795V138.31H39.6396V144.86V164.54H46.1996V125.19H26.5195Z" fill="#28211C"/>
<path d="M85.5508 131.75V138.31H92.1108V144.86H98.6708V164.54H105.231V131.75H85.5508Z" fill="#28211C"/>
<path d="M138.027 92.3901V98.9501H144.587V125.19H138.027V131.75H131.467V138.31H124.907V144.86H118.347V164.54H111.787V157.98H105.227V144.86H98.6674V138.31H92.1073V131.75H72.4373V138.31H65.8773V144.86H59.3174V164.54H52.7574V144.86H46.1974V138.31H39.6374V131.75H33.0773V125.19H26.5173V118.63H19.9573V92.3901H13.3973V85.8301H6.83734V79.2701H0.277344V33.3601H6.83734V39.9201H19.9573H26.5173V33.3601H33.0773V26.8001H39.6374V20.2401H46.1974V33.3601H52.7574V39.9201H59.3174V46.4701H65.8773V53.0301V59.5901H72.4373V79.2701H59.3174V85.8301H78.9973V79.2701H85.5473V72.7101H124.907V79.2701H138.027V85.8301H144.587V59.5901H138.027V46.4701H131.467V26.8001H138.027V20.2401H144.587V7.12006H151.147V0.560059H157.707V13.6801H164.267V20.2401H170.817V26.8001H177.377V33.3601V39.9201H183.937V46.4701H190.497V72.7101H183.937V79.2701H177.377V85.8301H170.817V92.3901H138.027Z" fill="#949AAF"/>
<path d="M65.881 59.5898V53.0298H52.761H33.0809V59.5898H26.5209V72.7098H19.9609V79.2698V85.8298H46.201V79.2698H52.761V72.7098H65.881V66.1498H72.4409V59.5898H65.881Z" fill="#CACEE0"/>
<path d="M19.9609 92.39H26.5209V85.83H39.641V79.27H46.201V85.83H52.761V92.39H46.201V98.95V105.51H39.641V118.63H33.0809V125.19H26.5209V118.63H19.9609V92.39Z" fill="white"/>
<path d="M46.2006 53.0298H39.6406V59.5898H46.2006V53.0298Z" fill="#28211C"/>
<path d="M65.8803 53.0298H59.3203V59.5898H65.8803V53.0298Z" fill="#28211C"/>
<path d="M72.4403 66.1499H59.3203V72.7099H72.4403V66.1499Z" fill="#28211C"/>
<path d="M39.6382 26.7998H33.0781V39.9198H39.6382V26.7998Z" fill="#CACEE0"/>
<path d="M6.83734 39.9199V33.3599H0.277344V46.4699H6.83734H13.3973V39.9199H6.83734Z" fill="#CACEE0"/>
<path d="M144.59 66.1499H157.71V72.7099H164.27V79.2699H177.38V85.8299H157.71V79.2699H151.15V72.7099H144.59V66.1499Z" fill="#69708C"/>
<path d="M138.027 46.4702H151.147V53.0302H164.267V59.5902H177.377V66.1502H190.497V72.7102H177.377V66.1502H164.267V59.5902H151.147V53.0302H138.027V46.4702Z" fill="#69708C"/>
<path d="M131.469 26.7998H151.149V33.3598H164.269V39.9198H177.379V46.4698H183.939H190.499V53.0298H177.379V46.4698H164.269V39.9198H151.149V33.3598H131.469V26.7998Z" fill="#69708C"/>
<path d="M144.59 7.12012H151.15V13.6801H164.27V20.2401H151.15V13.6801H144.59V7.12012Z" fill="#69708C"/>
<path d="M144.588 112.07H138.028V125.19H131.468V131.75H124.908V138.31H118.348V144.86H124.908V138.31H131.468V131.75H138.028V125.19H144.588V112.07Z" fill="#CACEE0"/>
<path d="M105.23 72.71V79.27H124.91V85.83H138.03V79.27H124.91V72.71H105.23Z" fill="#CACEE0"/>
<path d="M79 131.75V125.19H85.55H92.11V118.63H111.79V125.19H92.11V131.75H79Z" fill="#69708C"/>
</svg>
