<svg width="225" height="132" viewBox="0 0 225 132" fill="none" xmlns="http://www.w3.org/2000/svg">
<path d="M170.791 77.75V85.47H163.061V93.2H155.341V116.38H163.061V124.1H139.891V77.75H170.791Z" fill="#3A3925"/>
<path d="M85.8102 100.93V93.1997H54.9102V124.1H78.0902H85.8102V116.38H78.0902V100.93H85.8102Z" fill="#3A3925"/>
<path d="M217.142 54.57V46.85H209.412V39.13H201.692V23.67H194.072V15.95H201.692V0.5H193.962V8.22H186.242V15.95H170.792V8.22H163.062V0.5H155.342V15.95H147.612V8.22H139.892H116.712V15.95H108.992V23.67H78.0917V15.95H47.1917V23.67H31.7417V31.4H24.0117V70.03H31.7417V77.75H39.4617V131.82H70.3617V124.1H62.6417V93.2H116.712V131.82H147.612V124.1H139.892V93.2H155.342V85.47H163.062V77.75H170.792V70.03H186.242V77.75H201.692V85.47H217.142V77.75H224.862V54.57H217.142Z" fill="#58573B"/>
<path d="M224.861 31.3999H217.141V39.1299H209.411V46.8499H201.691V54.5699H224.861V31.3999Z" fill="white"/>
<path d="M201.681 31.3999H193.961V39.1199H201.681V31.3999Z" fill="white"/>
<path d="M209.411 23.6797H201.691V31.4097H209.411V23.6797Z" fill="white"/>
<path d="M178.513 23.6797H170.793V31.4097H178.513V23.6797Z" fill="#28211C"/>
<path d="M201.681 23.6797H193.961V31.4097H201.681V23.6797Z" fill="#28211C"/>
<path d="M139.891 39.1299H147.611V46.8499H155.341V54.5699H163.061V62.2999H170.791V70.0299H163.061V62.2999H155.341V54.5699H147.611V46.8499H139.891V39.1299Z" fill="#7F7D59"/>
<path d="M24.0099 54.5698H16.2899V70.0298V77.7498H8.55984V85.4698H0.839844V93.1998H8.55984V85.4698H24.0099V54.5698Z" fill="#3A3925"/>
<path d="M62.6406 46.8501H70.3606V54.5701H78.0906V62.3001H85.8106V70.0301H78.0906V77.7501H70.3606V85.4701H62.6406V77.7501H70.3606V70.0301H78.0906V62.3001H70.3606V54.5701H62.6406V46.8501Z" fill="#7F7D59"/>
</svg>
