<svg width="248" height="164" viewBox="0 0 248 164" fill="none" xmlns="http://www.w3.org/2000/svg">
<path d="M54.193 62.7002H46.463V70.4302H38.743V78.1502H31.013V85.8802H23.293V93.6002V101.32H31.013V93.6002H38.743H46.463V85.8802H61.9129V78.1502H69.643V70.4302H61.9129V62.7002H54.193Z" fill="white"/>
<path d="M200.963 54.9799V47.2499H193.243V39.5199H185.513H177.793V31.7999H170.063V24.0699H139.163V8.62991H131.443V0.899902H108.263V8.62991H100.543V16.3499H69.6433H61.9133V8.62991H54.1933V0.899902H46.4633V8.62991H38.7433V24.0699V31.7999H46.4633V54.9799V62.6999H31.0133V47.2499H23.2933V39.5199H31.0133V24.0699H23.2933V16.3499H15.5633H7.84329V24.0699H0.113281V39.5199H7.84329V54.9799V70.4299H15.5633V78.1499H23.2933V85.8799H46.4633V78.1499H54.1933V155.4H46.4633V163.13H77.3633V116.77H92.8133V155.4H85.0933V163.13H115.993V139.95H123.713V124.5H139.163V147.68H131.443V155.4H154.613V116.77H170.063V155.4H162.343V163.13H193.243V109.05H200.963V101.32H208.693V62.6999V54.9799H200.963Z" fill="#CACEE0"/>
<path d="M92.8102 8.62988H61.9102V16.3599H92.8102V8.62988Z" fill="#CACEE0"/>
<path d="M0.113281 24.0698V31.7998H7.84329V39.5198H15.5633V31.7998H23.2933V24.0698H15.5633V31.7998H7.84329V24.0698H0.113281Z" fill="#949AAF"/>
<path d="M92.8098 155.4H85.0898V163.13H92.8098V155.4Z" fill="white"/>
<path d="M170.06 155.4H162.34V163.13H170.06V155.4Z" fill="white"/>
<path d="M100.543 16.3499H108.263V31.7999H115.993V47.2499H100.543V62.6999H108.263V70.4299H115.993V78.1499H123.713V70.4299H139.163V54.9799H146.893V24.0699H139.163V8.62991H131.443V0.899902H108.263V8.62991H100.543V16.3499Z" fill="#949AAF"/>
<path d="M54.1922 8.62991V0.899902H46.4622V8.62991H38.7422V31.7999V39.5199H46.4622V31.7999V24.0699H54.1922V16.3499H61.9122V8.62991H54.1922Z" fill="#949AAF"/>
<path d="M54.1909 78.1499V85.8799H61.9109V93.5999H69.641V101.32V116.77H77.3609V163.13H46.4609V155.4H54.1909V78.1499Z" fill="#949AAF"/>
<path d="M139.161 124.5V116.77H146.891H154.611V155.4H131.441V147.68H139.161V124.5Z" fill="#949AAF"/>
<path d="M85.0833 39.52H77.3633V47.25H85.0833V39.52Z" fill="#28211C"/>
<path d="M54.1809 39.52H46.4609V47.25H54.1809V39.52Z" fill="#28211C"/>
<path d="M77.3609 70.4297H69.641V78.1497H61.9109V85.8797H54.1909V93.5997H46.4609V101.32V109.05H54.1909V101.32H61.9109H69.641V93.5997H85.091V85.8797H92.8109V78.1497H85.091V70.4297H77.3609Z" fill="white"/>
<path d="M224.141 78.1502V93.6002H216.411V62.7002H208.691V70.4302V101.32H216.411V109.05H224.141V101.32H231.861V85.8802H239.591V78.1502H224.141Z" fill="#949AAF"/>
<path d="M247.31 70.4297H239.59V78.1497H247.31V70.4297Z" fill="#28211C"/>
<path d="M239.583 70.4297H231.863V78.1497H239.583V70.4297Z" fill="#28211C"/>
<path d="M247.31 78.1499H239.59V85.8799H247.31V78.1499Z" fill="#28211C"/>
<path d="M193.24 31.7998H162.34V54.9698H193.24V31.7998Z" fill="#CACEE0"/>
<path d="M200.963 39.52H170.062V62.7H200.963V39.52Z" fill="#CACEE0"/>
<path d="M100.533 31.7998H92.8125V39.5198H100.533V31.7998Z" fill="#28211C"/>
<path d="M100.533 54.98H92.8125V62.71H100.533V54.98Z" fill="#28211C"/>
<path d="M108.263 47.25V39.52H100.543V47.25V54.98H115.993V47.25H108.263Z" fill="#28211C"/>
</svg>
