<svg width="158" height="211" viewBox="0 0 158 211" fill="none" xmlns="http://www.w3.org/2000/svg">
<path d="M13.4688 105.51V125.19H20.0187V151.42H26.5788V138.31H33.1387V105.51H13.4688Z" fill="#9B3A38"/>
<path d="M151.208 144.86V138.31H144.648V131.75H131.528V125.19H118.408V98.9501H111.848V92.3901H98.7377V85.8301H92.1777V79.2701H85.6177H72.4977V72.7101H65.9377V66.1501V59.5901H59.3777V53.0301V39.9201H65.9377V20.2401H59.3777V0.560059H52.8177V7.12006H46.2577V13.6801H20.0177V7.12006H13.4677V0.560059H6.90766V20.2401H0.347656V39.9201H6.90766V46.4701H13.4677V53.0301H20.0177V59.5901V72.7101H13.4677V105.51H20.0177V118.63H26.5777V125.19H33.1377V138.31V144.86H39.6977V157.98H46.2577V144.86H52.8177V138.31H59.3777V151.42H52.8177V157.98H111.848V138.31H124.968V144.86H131.528V151.42H124.968V157.98H118.408V171.1H111.848V184.22H105.288V190.78H111.848V197.34H118.408V203.9H124.968V210.46H131.528V203.9H138.088V197.34H144.648V184.22V171.1H151.208V164.54H157.768V144.86H151.208Z" fill="#F0923D"/>
<path d="M59.3803 7.12012H52.8203V20.2401H59.3803V7.12012Z" fill="white"/>
<path d="M13.4702 7.12012H6.91016V20.2401H13.4702V7.12012Z" fill="white"/>
<path d="M79.0586 79.27V85.83H85.6186V92.39H92.1786V98.95H105.289V105.51H111.849V112.07H118.409V98.95H111.849V92.39H105.289H98.7386V85.83H92.1786V79.27H79.0586Z" fill="#FFB031"/>
<path d="M124.97 112.07H118.41V125.19H124.97V112.07Z" fill="#F0923D"/>
<path d="M52.8188 59.5898V66.1498H46.2587V79.2699H39.6987V85.8298H33.1387V92.3898H26.5788V85.8298H13.4688V72.7099H20.0187V59.5898H52.8188Z" fill="#FFB031"/>
<path d="M0.347656 33.3598H6.90766V26.7998H26.5777V33.3598H39.6977V26.7998H59.3777V33.3598H65.9377V39.9198H59.3777V53.0298H52.8177V59.5898H39.6977H20.0177V53.0298H13.4677V46.4698H6.90766V39.9198H0.347656V33.3598Z" fill="white"/>
<path d="M26.5795 26.7998H20.0195V33.3598H26.5795V26.7998Z" fill="#28211C"/>
<path d="M46.2592 26.7998H39.6992V33.3598H46.2592V26.7998Z" fill="#28211C"/>
<path d="M111.849 177.66H118.409V171.1H124.969V164.54H131.529V171.1H138.089V177.66H144.649V184.22V197.34H138.089V203.9H131.529V210.46H124.969V203.9H118.409V197.34H111.849V190.78H105.289V184.22H111.849V177.66Z" fill="white"/>
<path d="M52.8203 138.31V112.07H59.3803V118.63H65.9403V125.19H72.5003V131.75H79.0603V138.31H72.5003V144.86H59.3803V138.31H52.8203Z" fill="#FFB031"/>
<path d="M39.6981 39.9199H26.5781V46.4799H39.6981V39.9199Z" fill="#28211C"/>
</svg>
