<svg width="220" height="154" viewBox="0 0 220 154" fill="none" xmlns="http://www.w3.org/2000/svg">
<path d="M73.5667 95.2598V146.44H66.2567V124.51H58.9467V117.2H51.6367V95.2598H73.5667Z" fill="#949AAF"/>
<path d="M88.1992 102.57V109.89H80.8792V117.2H73.5692V109.89H66.2592V117.2H58.9492V109.89V87.9497H88.1992V102.57Z" fill="#9B3A38"/>
<path d="M161.307 87.9497V95.2597H153.997V109.89H146.687V146.44H139.367V87.9497H161.307Z" fill="#949AAF"/>
<path d="M197.859 22.1497H205.179V14.8397H212.489V7.52972H219.799V0.219727H212.489V7.52972H205.179V14.8397H197.859V22.1497Z" fill="#F0923D"/>
<path d="M183.237 58.7097V66.0197H175.927V73.3297H168.617V80.6397H161.307V87.9497H153.997V95.2597H146.687V109.89H139.367V153.75H132.057V124.51H124.747V117.2H117.437V102.57H73.5667V95.2597H58.9467V109.89H51.6367V153.75H44.3267V124.51H37.0167V117.2H29.6967V87.9497H22.3867V44.0797H29.6967V36.7697H37.0167V29.4597H44.3267V22.1497H80.8767V29.4597H117.437V22.1497H139.367V14.8397H161.307V0.219727H168.617V7.52972H175.927V14.8397H190.547V7.52972H197.857V0.219727H205.177V22.1497H212.487V29.4597H219.797V44.0797H212.487V51.3997H197.857V58.7097H183.237Z" fill="white"/>
<path d="M95.5081 29.4599V36.7699H88.1981V51.3999H80.8781V58.7099H66.2581V51.3999H58.9481V44.0799H44.3281V29.4599V22.1499H80.8781V29.4599H95.5081Z" fill="#513418"/>
<path d="M124.748 117.2V109.89H132.058V95.2596H124.748V80.6396H117.438V87.9496H102.818V95.2596H95.5078V102.57H117.438V117.2H124.748Z" fill="#513418"/>
<path d="M190.549 58.7101V51.4001H175.929V44.0801H168.619V58.7101H161.309V80.6401H168.619V73.3301H175.929V66.0201H183.239V58.7101H190.549Z" fill="#513418"/>
<path d="M190.548 22.1499H183.238V29.4599H190.548V22.1499Z" fill="#28211C"/>
<path d="M212.49 22.1499H205.18V29.4599H212.49V22.1499Z" fill="#28211C"/>
<path d="M175.927 7.52979H168.617V14.8398H175.927V7.52979Z" fill="#949AAF"/>
<path d="M205.169 7.52979H197.859V14.8398H205.169V7.52979Z" fill="#949AAF"/>
<path d="M168.618 22.1497H161.308V14.8397H153.997V7.52972H146.688V0.219727H153.997V7.52972H161.308V14.8397H168.618V22.1497Z" fill="#F0923D"/>
<path d="M205.177 29.46H197.857V36.77H190.547V51.4H212.487V44.08H219.797V29.46H205.177Z" fill="#949AAF"/>
<path d="M110.128 58.71H102.818V66.02H95.5078V73.33H102.818V66.02H110.128V58.71Z" fill="#513418"/>
<path d="M44.3292 80.6396H37.0192V87.9496H29.6992V95.2596H37.0192V87.9496H44.3292V80.6396Z" fill="#513418"/>
<path d="M22.3895 51.3999H15.0795V66.0199H7.76953V95.2599H15.0795V66.0199H22.3895V51.3999Z" fill="#CACEE0"/>
<path d="M7.76703 87.9497H0.457031V95.2597H7.76703V87.9497Z" fill="#28211C"/>
<path d="M22.3881 87.9497H15.0781V95.2597H22.3881V87.9497Z" fill="#28211C"/>
<path d="M15.0795 95.2598H7.76953V102.57H15.0795V95.2598Z" fill="#28211C"/>
</svg>
