<svg width="125" height="187" viewBox="0 0 125 187" fill="none" xmlns="http://www.w3.org/2000/svg">
<path d="M8.4214 46.7402H0.691406V85.4302H8.4214V93.1602H16.1614V100.9H23.9014V108.64H31.6414V46.7402H8.4214Z" fill="#1F1A16"/>
<path d="M93.5319 139.58V131.85H85.7919V124.11H93.5319V116.37V108.64V93.1603H85.7919V85.4303V77.6903H78.0619V62.2203H70.3219V54.4803H62.5819V46.7403V8.06031V0.320312H54.8519H39.3719V8.06031H23.9019V15.8003H16.1619V31.2703H8.42188V69.9503H16.1619V85.4303H23.9019V100.9H31.6419V108.64H39.3719V116.37V124.11H47.1119V131.85H39.3719V139.58H31.6419V170.53H39.3719V178.27H47.1119V170.53H54.8519V178.27H62.5819V186.01H70.3219V178.27H78.0619V170.53H85.7919V178.27H93.5319V170.53H101.272V139.58H93.5319Z" fill="#28211C"/>
<path d="M54.8516 69.95V77.69H62.5816V85.43H70.3216V100.9H78.0616V116.37H85.7916V124.11H93.5316V93.16H85.7916V77.69H78.0616V62.22H70.3216V54.48H62.5816V69.95H54.8516Z" fill="#1F1A16"/>
<path d="M62.5802 8.06006H39.3702V15.8001H31.6402V23.5301H23.9002V31.2701H16.1602V54.4801H23.9002V62.2201H31.6402V69.9501H39.3702V77.6901H54.8502V69.9501H62.5802V8.06006Z" fill="white"/>
<path d="M39.3711 8.06006V23.5301H47.1111V31.2701H54.8511V23.5301H62.5811V8.06006H39.3711Z" fill="#FFD54D"/>
<path d="M116.742 31.2701V23.5301H109.002V15.8001H93.5316V8.06006H62.5816V15.8001H54.8516V31.2701H62.5816V39.0001H93.5316V46.7301H101.272V54.4701H109.002V62.2101H116.742V54.4801H124.482V31.2701H116.742Z" fill="#FFB031"/>
<path d="M54.8516 23.5303H62.5816V31.2703H93.5316V39.0103H101.272V46.7403H109.002V54.4803H101.272V46.7403H93.5316V39.0103H62.5816V31.2703H54.8516V23.5303Z" fill="#F0923D"/>
<path d="M54.8494 15.8003H47.1094V23.5403H54.8494V15.8003Z" fill="#28211C"/>
<path d="M116.741 124.11H0.691406V139.58H116.741V124.11Z" fill="#754F26"/>
<path d="M116.741 124.11H0.691406V131.85H116.741V124.11Z" fill="#513418"/>
<path d="M39.3806 124.11H31.6406V131.85H39.3806V124.11Z" fill="#F0923D"/>
<path d="M23.9002 124.11H16.1602V131.85H23.9002V124.11Z" fill="#F0923D"/>
<path d="M31.6384 116.37H23.8984V124.11H31.6384V116.37Z" fill="#F0923D"/>
<path d="M39.3806 108.64H31.6406V116.38H39.3806V108.64Z" fill="#F0923D"/>
<path d="M70.3181 124.11H62.5781V131.85H70.3181V124.11Z" fill="#F0923D"/>
<path d="M54.8494 124.11H47.1094V131.85H54.8494V124.11Z" fill="#F0923D"/>
<path d="M62.5916 116.37H54.8516V124.11H62.5916V116.37Z" fill="#F0923D"/>
<path d="M70.3181 108.64H62.5781V116.38H70.3181V108.64Z" fill="#F0923D"/>
</svg>
