<svg width="225" height="148" viewBox="0 0 225 148" fill="none" xmlns="http://www.w3.org/2000/svg">
<path d="M15.7383 62.6899V70.4299H23.4783V78.1599H31.2083V85.8999H46.6883V93.6399H54.4283H62.1583V85.8999H69.8983H93.1083V62.6899H15.7383Z" fill="#28211C"/>
<path d="M193.69 31.7403V24.0103V16.2703H185.95V8.53029H178.21V0.800293H162.74V8.53029H155V16.2703H147.27V24.0103H139.53V31.7403H131.79V39.4803H124.06H116.32V47.2203H93.1096V54.9503H85.3695V39.4803H77.6395V31.7403H62.1595V24.0103H54.4295V16.2703H46.6895V8.53029H31.2095V16.2703H15.7395V24.0103H7.99954V31.7403H0.269531V54.9503H7.99954V62.6903H15.7395V70.4303H31.2095H54.4295V78.1603H85.3695V85.9003H93.1096V93.6403H100.85V101.37H108.58V109.11H155V101.37H170.48V93.6403H178.21V85.9003H185.95V70.4303H193.69V54.9503H201.43V31.7403H193.69Z" fill="#FFB031"/>
<path d="M62.1597 147.79H108.58V140.06H131.79V132.32H147.27V124.58H170.48V116.85H178.21V109.11H193.69V93.6399H209.16V85.8999H216.9V62.6899H170.48H108.58V85.8999H77.6397V93.6399H69.8997V101.37H62.1597V124.58H54.4297V140.06H62.1597V147.79Z" fill="#AA7A41"/>
<path d="M69.8984 101.37H77.6384V109.11H85.3684V116.85H100.848V124.58H108.578H139.528V109.11V85.8999H185.948V78.1599H193.688V70.4299H216.898V62.6899H124.058V78.1599H85.3684V85.8999H77.6384V93.6399H69.8984V101.37Z" fill="#754F26"/>
<path d="M147.271 116.85H139.531V124.59H147.271V116.85Z" fill="#9B3A38"/>
<path d="M147.271 101.37H139.531V109.11H147.271V101.37Z" fill="#9B3A38"/>
<path d="M162.74 116.85H155V124.59H162.74V116.85Z" fill="#9B3A38"/>
<path d="M155.01 109.11H147.27V116.85H155.01V109.11Z" fill="#9B3A38"/>
<path d="M170.478 101.37H162.738V109.11H170.478V101.37Z" fill="#9B3A38"/>
<path d="M170.478 85.8999H162.738V93.6399H170.478V85.8999Z" fill="#9B3A38"/>
<path d="M185.951 101.37H178.211V109.11H185.951V101.37Z" fill="#9B3A38"/>
<path d="M178.22 93.6401H170.48V101.38H178.22V93.6401Z" fill="#9B3A38"/>
<path d="M178.21 8.53027V16.2703H170.48H162.74V24.0103H155V31.7403H162.74V39.4803H170.48V54.9503H185.95V62.6903H193.69V16.2703H185.95V8.53027H178.21Z" fill="white"/>
<path d="M178.22 24.0103H170.48V31.7503H178.22V24.0103Z" fill="#28211C"/>
<path d="M193.689 24.0103V31.7402H185.949V47.2203H193.689V54.9502H209.159V47.2203H224.639V39.4803H216.899V31.7402H209.159V24.0103H193.689Z" fill="#9B3A38"/>
<path d="M216.899 39.48H209.159V47.22H193.689V39.48H185.949V47.22H193.689V54.95H209.159V47.22H224.639V39.48H216.899Z" fill="#722626"/>
<path d="M139.531 54.9502H131.791V62.6902H124.061V70.4302H108.581V78.1602H100.851H93.1111V85.9002H85.3711V93.6402H93.1111V101.37H100.851V109.11H108.581V116.85H116.321V124.58H139.531V116.85H147.271V109.11H162.741V101.37H170.481V93.6402H178.211V85.9002H185.951V70.4302H178.211V62.6902H170.481V54.9502H162.741V47.2202H155.001H147.271V54.9502H139.531Z" fill="#58573B"/>
<path d="M93.1094 93.6402H100.849V101.37H108.579V109.11H116.319V116.85H139.529V109.11H147.269V101.37H162.739V93.6402H170.479V85.9002H178.209V70.4302H185.949V85.9002H178.209V93.6402H170.479V101.37H162.739V109.11H147.269V116.85H139.529V124.58H116.319V116.85H108.579V109.11H100.849V101.37H93.1094V93.6402Z" fill="#3A3925"/>
<path d="M162.74 62.6899H155V70.4299H147.27V78.1599H139.53V85.8999H124.06V93.6399H116.32V101.37H124.06V93.6399H139.53V85.8999H147.27V78.1599H155V70.4299H162.74V62.6899Z" fill="#7F7D59"/>
<path d="M0.269531 47.2202H7.99954V54.9502H23.4795V62.6902H46.6895H62.1595V70.4302H85.3695V78.1602H93.1096V85.9002H85.3695V78.1602H54.4295V70.4302H15.7395V62.6902H7.99954V54.9502H0.269531V47.2202Z" fill="#F0923D"/>
<path d="M15.7383 24.0103H23.4783V31.7402H31.2083V39.4803H46.6883V47.2203H54.4283V54.9502H46.6883V47.2203H31.2083V39.4803H23.4783V31.7402H15.7383V24.0103Z" fill="#FFD54D"/>
<path d="M147.269 24.0103V31.7402H139.529V39.4803H131.789V47.2203H116.319V54.9502H100.849V62.6903H93.1094V47.2203H116.319V39.4803H131.789V31.7402H139.529V24.0103H147.269Z" fill="#FFD54D"/>
</svg>
