<svg width="119" height="172" viewBox="0 0 119 172" fill="none" xmlns="http://www.w3.org/2000/svg">
<path d="M112.061 7.4599V14.0199H105.501V20.5799H92.3808V14.0199H85.8208V7.4599H79.2608V0.899902H72.7008H66.1408H53.0208H46.4708H39.9108V7.4599H33.3508V14.0199H26.7908V20.5799H13.6708V14.0199H7.11078V7.4599H0.550781V33.6899H7.11078V40.2499V46.8099H13.6708V59.9299H20.2308V66.4899H26.7908V73.0499H33.3508V99.2899H26.7908V92.7299H20.2308V86.1699H7.11078V99.2899H0.550781V112.41H7.11078V118.97H13.6708V138.64H20.2308V145.2H26.7908V151.76H20.2308V158.32H13.6708V171.44H20.2308H26.7908V164.88H33.3508V158.32H46.4708H72.7008H85.8208V164.88H92.3808V171.44H98.9408H105.501V158.32H98.9408V151.76H92.3808V145.2H98.9408V138.64H105.501V118.97H112.061V112.41H118.621V99.2899H112.061V86.1699H98.9408V92.7299H92.3808V99.2899H85.8208V73.0499H92.3808V66.4899H98.9408V59.9299H105.501V46.8099H112.061V40.2499V33.6899H118.621V7.4599H112.061Z" fill="#AA7A41"/>
<path d="M59.5791 20.58H53.0191V14.02H46.4691V20.58H39.9091V27.14H33.3491V33.69H26.7891V46.81H33.3491V53.37H39.9091V59.93H46.4691V66.49H72.6991V59.93H79.2591V53.37H85.8191V46.81H92.3791V33.69H85.8191V27.14H79.2591V20.58H72.6991V14.02H66.1391V20.58H59.5791Z" fill="#E2AE6A"/>
<path d="M66.1388 86.1699V79.6099H59.5788H53.0188V86.1699H46.4688V138.64H53.0188V145.2H59.5788H66.1388V138.64H72.6988V86.1699H66.1388Z" fill="#E2AE6A"/>
<path d="M33.3508 99.2899V112.41V138.64V158.32V164.88H26.7908V171.44H13.6708V158.32H20.2308V151.76H26.7908V145.2H20.2308V138.64H13.6708V118.97H7.11078V112.41H0.550781V99.2899H7.11078V86.1699H20.2308V92.7299H26.7908V99.2899H33.3508Z" fill="#754F26"/>
<path d="M85.8203 99.2899V112.41V138.64V158.32V164.88H92.3803V171.44H105.5V158.32H98.9403V151.76H92.3803V145.2H98.9403V138.64H105.5V118.97H112.06V112.41H118.62V99.2899H112.06V86.1699H98.9403V92.7299H92.3803V99.2899H85.8203Z" fill="#754F26"/>
<path d="M39.9102 158.32V164.88H46.4702V171.44H53.0202V158.32H39.9102Z" fill="#AA7A41"/>
<path d="M79.2606 158.32V164.88H72.7006V171.44H66.1406V158.32H79.2606Z" fill="#AA7A41"/>
<path d="M39.9077 151.76H33.3477V158.32H39.9077V151.76Z" fill="#754F26"/>
<path d="M85.8178 151.76H79.2578V158.32H85.8178V151.76Z" fill="#754F26"/>
<path d="M46.4702 33.6899H39.9102V40.2499H46.4702V33.6899Z" fill="#28211C"/>
<path d="M79.2592 33.6899H72.6992V40.2499H79.2592V33.6899Z" fill="#28211C"/>
<path d="M7.10938 27.1401H13.6694V33.6901H20.2294V46.8101H13.6694V33.6901H7.10938V27.1401Z" fill="#754F26"/>
<path d="M112.057 27.1401H105.497V33.6901H98.9375V46.8101H105.497V33.6901H112.057V27.1401Z" fill="#754F26"/>
<path d="M66.1395 46.8101H53.0195V53.3701H66.1395V46.8101Z" fill="#28211C"/>
</svg>
