<svg width="186" height="194" viewBox="0 0 186 194" fill="none" xmlns="http://www.w3.org/2000/svg">
<path d="M162.48 100.8H170.21V108.53H185.69V131.74H177.95V139.48H170.21V147.22H162.48V162.69H131.53V170.43H108.32H100.58V178.16H92.8502H85.1102V185.9H54.1602V131.74H139.27V100.8H162.48Z" fill="#AA7A41"/>
<path d="M54.1602 170.43H85.1102V162.69H116.06H131.53V154.95H154.74V147.22H162.48V139.48H170.21V131.74H177.95V116.27H185.69V131.74H177.95V139.48H170.21V147.22H162.48V154.95H154.74V162.69H131.53V170.43H100.58V178.16H85.1102V185.9H54.1602V170.43Z" fill="#754F26"/>
<path d="M77.3683 139.48V154.95H69.6383V162.69H61.8983V170.43H54.1583V178.16H46.4183V185.9H30.9483V193.64H23.2183V185.9H15.4783V178.16H7.73828V170.43H30.9483V139.48H77.3683Z" fill="#9B3A38"/>
<path d="M123.79 23.4302H116.06V31.1602H108.32V38.9002H92.85V54.3702H100.58V62.1102H92.85V69.8502H85.11V77.5802H77.37V85.3202H69.64V93.0602H61.9V100.8H54.16V124.01H38.69V131.74H30.95V139.48H15.48V147.22H7.74V154.95H0V170.43H7.74V178.16H38.69V170.43H46.42H54.16V162.69H61.9V154.95H69.64V147.22V139.48H85.11V147.22H131.53V139.48H139.27V131.74H147V124.01H154.74V116.27H162.48V108.53V100.8V93.0602H170.21V69.8502H162.48V54.3702V46.6402H170.21V23.4302H162.48V31.1602H154.74V7.95021H147V15.6902H139.27V0.220215H131.53V7.95021H123.79V23.4302Z" fill="#FFB031"/>
<path d="M100.582 62.1102V69.8502H108.322V77.5802H116.062V93.0602H123.792V100.8H131.532V108.53H139.272H147.002V116.27H162.482V93.0602H170.212V69.8502H162.482V46.6402H170.212V23.4302H162.482V31.1602H154.742V7.95021H147.002V15.6902H139.272V0.220215H131.532V7.95021H123.792V23.4302H116.062V31.1602H108.322V38.9002H92.8516V54.3702H100.582V62.1102Z" fill="white"/>
<path d="M108.32 54.3699V62.1099H116.06V69.8499H131.53V77.5799H139.27V69.8499H147V62.1099H154.74V46.64H147V38.8999V23.4299H139.27V15.6899H123.79V23.4299H116.06V31.1599H108.32V54.3699Z" fill="#CACEE0"/>
<path d="M131.529 31.1602H123.789V38.9001H131.529V31.1602Z" fill="#28211C"/>
<path d="M108.321 38.9001V31.1602H92.8511V38.9001H77.3711V46.6402H85.1111V54.3701H92.8511V62.1101H108.321V54.3701H116.061V38.9001H108.321Z" fill="#9B3A38"/>
<path d="M85.1094 46.6401H92.8494V54.3701H108.319V62.1101H92.8494V54.3701H85.1094V46.6401Z" fill="#722626"/>
<path d="M123.791 93.0601V100.8H116.061V108.53H108.321V116.27H100.581V124.01H92.8506V131.74H77.3706V124.01H69.6406V116.27H77.3706V124.01H92.8506V116.27H100.581V108.53H108.321V100.8H116.061V93.0601H123.791Z" fill="#F0923D"/>
<path d="M100.578 139.48V147.22H108.318V154.95H116.058V162.69H108.318V170.43H116.058V162.69H123.788V170.43H131.528V162.69H123.788V154.95H116.058V147.22H108.318V139.48H100.578Z" fill="#28211C"/>
<path d="M131.531 131.74V139.48H139.271V147.22H147.001V154.95H139.271V162.69H147.001V154.95H154.741V162.69H162.481V154.95H154.741V147.22H147.001V139.48H139.271V131.74H131.531Z" fill="#28211C"/>
</svg>
