<svg width="187" height="187" viewBox="0 0 187 187" fill="none" xmlns="http://www.w3.org/2000/svg">
<path d="M124.37 186.53H70.2103V178.79H39.2703V171.06H31.5303V163.32H23.7903H16.0603V155.58H8.32031V140.11H47.0003V147.85H54.7403V155.58H93.4303V163.32H108.9H124.37V186.53Z" fill="#AA7A41"/>
<path d="M124.37 178.79H93.4303H70.2103V171.06H39.2703V163.32H31.5303V155.58H16.0603V147.85H8.32031V155.58H16.0603V163.32H31.5303V171.06H39.2703V178.79H70.2103V186.53H124.37V178.79Z" fill="#754F26"/>
<path d="M31.5291 85.9501V70.4801V39.5301V31.8001H39.2691V16.3201H46.9991V8.5801H54.7391V0.850098H62.4791H70.2091V8.5801H77.9491V24.0601H70.2091V31.8001H85.6891V39.5301H77.9491V47.2701V55.0101H85.6891V70.4801V78.2201H93.4291H101.159V85.9501H108.899V93.6901H116.639V101.43H124.369V116.9H132.109V109.16H155.319V116.9H163.059V124.64H178.529V132.37H186.269V140.11H178.529V147.85H170.789V155.58H163.059V163.32H155.319V155.58H139.849V147.85H132.109V140.11H116.639V147.85H108.899V155.58H101.159V163.32H62.4791V155.58H54.7391V147.85H46.9991V140.11H39.2691V132.37H31.5291V124.64H23.7891V85.9501H31.5291Z" fill="#9B3A38"/>
<path d="M31.5291 39.5303H39.2691V47.2703H46.9991V55.0103H54.7391V70.4803H46.9991V78.2203H39.2691V93.6903H31.5291V101.43H23.7891V85.9503H31.5291V39.5303Z" fill="#28211C"/>
<path d="M31.5281 39.5303H23.7881V47.2703H8.31812V55.0103H0.578125V62.7403H8.31812V70.4803H16.0581V78.2203H23.7881H31.5281V70.4803H39.2681V55.0103H31.5281V39.5303Z" fill="#FFB031"/>
<path d="M39.2703 62.7402H31.5303V70.4802H16.0603V62.7402H8.32031V70.4802H16.0603V78.2202H31.5303V70.4802H39.2703V62.7402Z" fill="#F0923D"/>
<path d="M46.9983 55H54.7383V47.26H46.9983V55Z" fill="white"/>
<path d="M108.899 147.85H101.159V155.58H62.4791V147.85H54.7391V140.11H46.9991V132.37H39.2691V124.64H31.5291V116.9V101.43H39.2691V93.6899H31.5291V101.43H23.7891V124.64H31.5291V132.37H39.2691V140.11H46.9991V147.85H54.7391V155.58H62.4791V163.32H101.159V155.58H108.899V147.85Z" fill="#873331"/>
<path d="M178.531 140.11H170.791V147.85H163.061V155.58H155.321V147.85H139.851V140.11H132.111V132.37H124.371V140.11H132.111V147.85H139.851V155.58H155.321V163.32H163.061V155.58H170.791V147.85H178.531V140.11Z" fill="#873331"/>
<path d="M108.9 132.37H101.16V140.11H108.9V132.37Z" fill="#722626"/>
<path d="M101.161 124.64H85.6914V132.38H101.161V124.64Z" fill="#722626"/>
<path d="M85.6909 124.64H77.9509H70.2109V116.9H77.9509V109.16H85.6909V124.64Z" fill="#722626"/>
<path d="M70.2205 93.6899H62.4805V101.43H70.2205V93.6899Z" fill="#722626"/>
<path d="M77.9509 101.43H70.2109V109.17H77.9509V101.43Z" fill="#722626"/>
<path d="M101.17 155.58H93.4297V163.32H101.17V155.58Z" fill="#FFB031"/>
<path d="M93.4314 163.32H85.6914V171.06H93.4314V163.32Z" fill="#FFB031"/>
<path d="M85.6892 171.06H77.9492V178.8H85.6892V171.06Z" fill="#FFB031"/>
<path d="M93.4314 178.8H85.6914V186.54H93.4314V178.8Z" fill="#FFB031"/>
<path d="M77.9509 178.8H70.2109V186.54H77.9509V178.8Z" fill="#FFB031"/>
<path d="M70.2205 147.85H62.4805V155.59H70.2205V147.85Z" fill="#FFB031"/>
<path d="M62.4783 155.58H54.7383V163.32H62.4783V155.58Z" fill="#FFB031"/>
<path d="M54.74 163.32H47V171.06H54.74V163.32Z" fill="#FFB031"/>
<path d="M62.4783 171.06H54.7383V178.8H62.4783V171.06Z" fill="#FFB031"/>
<path d="M47.0095 171.06H39.2695V178.8H47.0095V171.06Z" fill="#FFB031"/>
</svg>
