<svg width="148" height="217" viewBox="0 0 148 217" fill="none" xmlns="http://www.w3.org/2000/svg">
<path d="M77.4295 31.1602H85.1595V38.9002H92.8995V62.1102H100.64V69.8502H108.37V77.5802H116.11V100.8H123.85V154.95H116.11V147.22H108.37V139.48H100.64V147.22V154.95H108.37V170.43V178.16V201.37H100.64V209.11H85.1595V216.85H77.4295V209.11H61.9495V201.37H54.2095V162.69H61.9495V154.95H69.6895V139.48H61.9495V131.74H54.2095V124.01H38.7395V116.27H30.9995V85.3202H38.7395V77.5802V69.8502H46.4795V62.1102V38.9002H38.7395V31.1602H30.9995V23.4302H23.2695V7.95021H30.9995V0.220215H61.9495V7.95021H69.6895V15.6902H77.4295V31.1602Z" fill="#58573B"/>
<path d="M61.9492 54.3701H69.6892V62.1101H77.4292V54.3701H85.1592V62.1101H77.4292V69.8501H69.6892V62.1101H61.9492V54.3701Z" fill="#3A3925"/>
<path d="M123.851 116.27H116.111V108.53H108.371V116.27H100.641V124.01V131.74V139.48H108.371V147.22H116.111V154.95H123.851V116.27Z" fill="#FFD54D"/>
<path d="M69.6892 38.8999H61.9492V46.6399H69.6892V38.8999Z" fill="#28211C"/>
<path d="M69.6914 85.3203H77.4314V93.0603H85.1614V100.8H92.9014V108.53H100.641V124.01H108.371V131.74H100.641V124.01H92.9014V108.53H85.1614V100.8H77.4314V93.0603H69.6914V85.3203Z" fill="#3A3925"/>
<path d="M38.74 85.3203V108.53H46.48V116.27H54.21V124.01H61.95V131.74H54.21V124.01H38.74V116.27H31V85.3203H38.74Z" fill="#3A3925"/>
<path d="M54.2109 185.9H61.9509V193.64H69.6909V201.37H77.4309V209.11H85.1609V201.37H92.9009V193.64H100.641V185.9H108.371V201.37H100.641V209.11H85.1609V216.85H77.4309V209.11H61.9509V201.37H54.2109V193.64V185.9Z" fill="#FFD54D"/>
<path d="M69.6892 170.43H61.9492V178.16H69.6892V185.9H77.4292V193.64H85.1592V185.9H77.4292V178.16H69.6892V170.43Z" fill="#3A3925"/>
<path d="M46.4812 38.8999H38.7412V46.6399H23.2712V54.3699H15.5312V62.1099H31.0013V69.8499H38.7412H54.2112V62.1099V38.8999H46.4812Z" fill="#FFB031"/>
<path d="M23.2695 62.1101V54.3701H30.9995V62.1101H38.7395H46.4795V54.3701H54.2095V69.8501H30.9995V62.1101H23.2695Z" fill="#F0923D"/>
<path d="M23.2695 15.6902H30.9995V7.95021H61.9495V15.6902H69.6895V23.4302H77.4295V15.6902H69.6895V7.95021H61.9495V0.220215H30.9995V7.95021H23.2695V15.6902Z" fill="#7F7D59"/>
<path d="M123.849 139.48H116.109V147.22V154.95H123.849V139.48Z" fill="#F0923D"/>
<path d="M0.0585938 116.27H15.5286V124.01H23.2686H30.9986V131.74H46.4786V139.48H54.2086V147.22H100.639V154.95H139.319V162.69H147.059V185.9H139.319H131.579V193.64H108.369V185.9H100.639V178.16H69.6886V170.43H46.4786V162.69H23.2686V154.95H7.78857V147.22H0.0585938V116.27Z" fill="#754F26"/>
<path d="M0.0585938 124.01H15.5286V131.74H30.9986V139.48H46.4786V147.22H54.2086V154.95H92.8986V162.69H108.369V170.43H139.319V178.16H147.059V162.69H139.319V154.95H100.639V147.22H54.2086V139.48H46.4786V131.74H30.9986V124.01H15.5286V116.27H0.0585938V124.01Z" fill="#513418"/>
<path d="M69.6905 131.74H61.9505V139.48H54.2105V147.22H46.4805V154.95H54.2105V147.22H61.9505V154.95H69.6905V147.22H61.9505V139.48H69.6905V131.74Z" fill="#9B3A38"/>
<path d="M100.64 139.48H92.8997V147.22H85.1597V154.95H77.4297V162.69H85.1597V154.95H92.8997V162.69H100.64V154.95H92.8997V147.22H100.64V139.48Z" fill="#9B3A38"/>
</svg>
