<svg width="192" height="158" viewBox="0 0 192 158" fill="none" xmlns="http://www.w3.org/2000/svg">
<path d="M66.5394 158H46.8594V151.44H53.4194V144.88H59.9794V138.32H53.4194V131.76H46.8594V112.08H66.5394L76.3794 121.92V158H66.5394Z" fill="#754F26"/>
<path d="M40.3008 13.6901V7.14011H46.8608V0.580078H86.2208V7.14011H92.7808V13.6901H105.901V20.2501H40.3008V13.6901Z" fill="#754F26"/>
<path d="M33.7503 79.29V92.41H27.1903V98.97H20.6303H14.0703V112.08H20.6303V105.52H46.8603V79.29H33.7503Z" fill="#754F26"/>
<path d="M145.249 158H59.9792V151.44H66.5392V144.88H73.0992V138.32H66.5392V131.76H59.9792V125.2H53.4192V112.08H46.8592V105.52H40.2992V98.9701H33.7492V92.4101H27.1892V85.8501H20.6292V79.2901V72.7301H14.0692V66.1701H7.50922V59.6101V46.4901H0.949219V26.8101H7.50922V20.2501H14.0692V13.6901H40.2992H53.4192V7.14014H59.9792H66.5392H86.2192V13.6901H99.3392V20.2501H105.899V26.8101H112.459V39.9301H105.899V46.4901H99.3392V53.0501H119.019V59.6101H132.129V66.1701H138.689V72.7301H145.249V79.2901H151.809V85.8501H158.369V131.76H151.809V138.32V144.88V151.44H145.249V158Z" fill="#FFD3A3"/>
<path d="M20.6289 72.73H27.1889V79.29H40.2989V85.85H46.8589V98.97H53.4189V105.52H66.5389V112.08H73.0989V125.2H79.6589V131.76V138.32H66.5389V131.76H59.9789V125.2H53.4189V112.08H46.8589V105.52H40.2989V98.97H33.7489V92.41H27.1889V85.85H20.6289V72.73Z" fill="white"/>
<path d="M46.8608 26.8101H40.3008V33.3701H46.8608V26.8101Z" fill="#28211C"/>
<path d="M14.0678 20.25H7.50781V26.81H14.0678V20.25Z" fill="#28211C"/>
<path d="M14.0692 26.8101H0.949219V33.3701H14.0692V26.8101Z" fill="#28211C"/>
<path d="M92.7791 20.25H79.6591V26.81H73.0991V33.37H66.5391V39.93H73.0991V46.49H79.6591V53.05H92.7791V46.49H99.3391V26.81V20.25H92.7791Z" fill="#E2AE6A"/>
<path d="M53.42 85.8501V98.9701H46.86V105.52H40.3H33.75V118.64H40.3V112.08H66.54V85.8501H53.42Z" fill="#FFD3A3"/>
<path d="M158.371 105.52H164.931V112.08H171.491V138.32H178.051V125.2H184.611V118.64H191.171V125.2H184.611V144.88H164.931V112.08H158.371V105.52Z" fill="#FFD3A3"/>
</svg>
