<svg width="218" height="171" viewBox="0 0 218 171" fill="none" xmlns="http://www.w3.org/2000/svg">
<path d="M31.8992 85.8003H16.4292V93.5303H8.68921V109.01H0.949219V124.48H16.4292V132.22H31.8992V139.95H39.6392V147.69H55.1093V155.43H93.7892V163.16H116.999V170.9H147.949V163.16H155.689V155.43H163.429V139.95H147.949V116.74H101.529V85.8003H31.8992Z" fill="#754F26"/>
<path d="M16.4297 93.5303V101.27H24.1597V109.01H31.8997V116.74H47.3697V124.48H62.8497V132.22H86.0597V139.95H101.53V147.69H117V155.43H124.74V163.16H140.21V170.9H147.95V163.16H155.69V155.43H163.43V139.95H147.95V124.48H140.21V116.74H101.53V93.5303H31.8997V85.8003H16.4297V93.5303Z" fill="#513418"/>
<path d="M93.7903 31.6401H78.3203V39.3801H93.7903V31.6401Z" fill="#949AAF"/>
<path d="M202.11 109.01V101.27H186.64V93.5299H178.9V85.7999H155.69V70.3199H140.21V62.5799H132.48V54.8499H124.74V47.1099H109.27V39.3699H93.7902V31.64H78.3201V23.8999H70.5801V16.1599H62.8502V8.42993H55.1102V0.689941H39.6401V8.42993H31.9001V16.1599H24.1602V39.3699H31.9001V47.1099V54.8499H24.1602V93.5299H31.9001V101.27H47.3701V109.01H62.8502V116.74H70.5801V124.48H117V116.74H124.74H132.48H140.21V124.48H147.95V132.22H155.69V139.95H163.43H171.16H178.9V147.69H194.37V155.43H202.11V147.69V139.95H209.85V124.48H217.58V109.01H202.11Z" fill="white"/>
<path d="M93.7881 116.74V124.48H86.0581V132.22H78.3181V139.95H70.5781V147.69H78.3181V139.95H86.0581V147.69H93.7881V139.95H86.0581V132.22H93.7881V124.48H101.528V116.74H93.7881Z" fill="#FFB031"/>
<path d="M70.5811 109.01V116.74H62.8511V124.48H55.1111V132.22H47.3711V139.95H55.1111V132.22H62.8511V139.95H70.5811V132.22H62.8511V124.48H70.5811V116.74H78.3211V109.01H70.5811Z" fill="#FFB031"/>
<path d="M31.9014 31.6402V16.1602H24.1614H16.4314V23.9001H8.69141V31.6402H16.4314V39.3701H31.9014H39.6414V31.6402H31.9014Z" fill="#FFB031"/>
<path d="M24.1697 31.6401H16.4297V39.3801H24.1697V31.6401Z" fill="#F0923D"/>
<path d="M47.3806 16.1602H39.6406V23.9001H47.3806V16.1602Z" fill="#28211C"/>
<path d="M78.3193 39.3701H70.5793V47.1101H62.8494V54.8501H55.1094V62.5801V70.3201H62.8494V78.0601H70.5793V85.8001H78.3193V93.5301H93.7894V101.27H109.269V109.01H124.739V116.74H147.949V109.01H163.429V101.27H178.899V85.8001H155.689V70.3201H140.209V62.5801H132.479V54.8501H124.739V47.1101H109.269V39.3701H78.3193Z" fill="#CACEE0"/>
<path d="M78.3203 70.3203H86.0603V78.0603H93.7903V85.8003H101.53V93.5303H117V101.27H132.48V109.01H124.74H109.27V101.27H93.7903V93.5303V85.8003H86.0603V78.0603H78.3203V70.3203Z" fill="#949AAF"/>
<path d="M155.691 109.01V116.74H163.431V124.48H171.161V132.22H186.641V139.95H194.371V132.22H186.641V124.48H171.161V116.74H163.431V109.01H155.691Z" fill="#949AAF"/>
</svg>
