<svg width="204" height="145" viewBox="0 0 204 145" fill="none" xmlns="http://www.w3.org/2000/svg">
<path d="M52.9805 118.2V124.76H59.5405V131.32H66.1005V144.44H72.6605V118.2H52.9805Z" fill="#513418"/>
<path d="M131.688 118.2V124.76H138.247V131.32H144.807V144.44H151.367V118.2H131.688Z" fill="#513418"/>
<path d="M46.4186 52.6099H39.8586V59.1699H33.2986V65.7299H20.1786V72.2899H7.05859V85.4099H13.6186V91.9699H20.1786V98.5199H26.7386V105.08H33.2986V111.64H39.8586V118.2H59.5386V124.76H72.6586V144.44H79.2086V137.88H85.7686V131.32H92.3286V124.76H144.809V131.32H151.369V137.88H157.929V144.44H164.489V131.32H171.049V124.76H177.609V118.2H184.159V105.08H171.049V98.5199H157.929V91.9699H151.369V85.4099H131.689V78.8499H125.129V72.2899H98.8886V65.7299H92.3286V59.1699H85.7686H72.6586V52.6099H46.4186Z" fill="#E2AE6A"/>
<path d="M46.4194 46.0501H39.8594V52.6101H46.4194H52.9794V59.1701H59.5394V65.7301H72.6594H79.2094V72.2901H85.7694H98.8894V78.8501H105.449V85.4101H125.129V91.9701H131.689H144.809V98.5201H157.929V105.08H171.049V111.64H184.159V105.08H190.719V98.5201H197.279V85.4101H203.839V78.8501H190.719V72.2901H197.279V65.7301H190.719V52.6101H184.159V46.0501H190.719V39.4901H177.609V26.3701H171.049V13.2501H164.489V19.8101H157.929V6.69012H151.369V0.140137H144.809V6.69012H131.689V0.140137H125.129V6.69012H118.569H112.009V13.2501H105.449V0.140137H98.8894V6.69012H92.3294V13.2501H85.7694V6.69012H79.2094V19.8101H72.6594V26.3701H66.0994V19.8101H59.5394V26.3701H52.9794V32.9301H46.4194V46.0501Z" fill="#513418"/>
<path d="M39.8608 72.29H33.3008V78.85H39.8608V72.29Z" fill="#28211C"/>
<path d="M7.06 65.73H0.5V72.29H7.06V65.73Z" fill="#513418"/>
<path d="M66.0977 72.2899V65.7299H72.6577V59.1699H79.2076V78.8499H66.0977V72.2899Z" fill="#E2AE6A"/>
<path d="M79.2202 72.29H72.6602V78.85H79.2202V72.29Z" fill="#FFD3A3"/>
<path d="M98.8906 72.29H105.451V78.85H125.131H131.691V85.41H151.371V91.97H164.491V98.52H177.611V111.64H171.051V105.08H157.931V98.52H144.811V91.97H125.131V85.41H105.451V78.85H98.8906V72.29Z" fill="#382210"/>
<path d="M171.048 52.6099H164.488V59.1699H171.048V52.6099Z" fill="#382210"/>
<path d="M164.49 59.1699H157.93V65.7299H164.49V59.1699Z" fill="#382210"/>
<path d="M157.931 26.3701H151.371V32.9301H157.931V26.3701Z" fill="#382210"/>
<path d="M151.369 32.9302H144.809V39.4902H151.369V32.9302Z" fill="#382210"/>
<path d="M125.13 46.0498H118.57V52.6098H125.13V46.0498Z" fill="#382210"/>
<path d="M118.568 52.6099H112.008V59.1699H118.568V52.6099Z" fill="#382210"/>
<path d="M98.8882 19.8101H92.3281V26.3701H98.8882V19.8101Z" fill="#382210"/>
<path d="M92.3295 26.3701H85.7695V32.9301H92.3295V26.3701Z" fill="#382210"/>
</svg>
