<svg width="162" height="147" viewBox="0 0 162 147" fill="none" xmlns="http://www.w3.org/2000/svg">
<path d="M139.407 87.9497V95.2597H132.087V109.88V139.13H124.777V87.9497H139.407Z" fill="#754F26"/>
<path d="M15.1083 102.57H7.79828V109.88H0.488281V124.5H7.79828V131.82H15.1083V102.57Z" fill="#754F26"/>
<path d="M73.5966 7.52002H66.2866V14.83H58.9766V22.15H66.2866V29.46H73.5966V36.77H80.9166V44.08H88.2266V51.39H110.157V36.77H95.5366V22.15H80.9166V7.52002H73.5966Z" fill="#754F26"/>
<path d="M154.027 58.7V51.39H146.717V44.08H139.407V36.77H124.777V29.46H117.467H110.157V14.83H95.5369V7.51996H80.9169V0.209961H73.5969V7.51996V22.15H80.9169V29.46H88.2269V36.77H95.5369V44.08H102.847V51.39V58.7H88.2269H73.5969V51.39H44.3569V58.7H37.0469V66.01H29.7369V73.33H22.4169V80.64V87.95H15.1069V102.57V109.88V117.19H7.79688V124.5H15.1069V131.82H22.4169V139.13H29.7369V146.44H80.9169V131.82H66.2869V124.5H80.9169V117.19H95.5369V124.5H102.847V139.13H110.157V146.44H124.777V109.88V102.57H132.087V87.95H139.407V80.64H146.717H154.027V73.33H161.337V58.7H154.027Z" fill="#E2AE6A"/>
<path d="M80.9166 124.5H73.5966V117.19H66.2866V109.88H58.9766V102.57H66.2866V109.88H73.5966V117.19H80.9166V124.5Z" fill="#AA7A41"/>
<path d="M95.5391 117.19V109.88H102.849V102.57H110.159V109.88H102.849V117.19H95.5391Z" fill="#AA7A41"/>
<path d="M132.087 51.3896H124.777V58.6996H132.087V51.3896Z" fill="#28211C"/>
<path d="M154.029 58.6997H146.719V66.0097H154.029V73.3297H161.339V58.6997H154.029Z" fill="#AA7A41"/>
</svg>
