<svg width="162" height="184" viewBox="0 0 162 184" fill="none" xmlns="http://www.w3.org/2000/svg">
<path d="M15.1495 81.02H7.83954V88.33H0.519531V102.95H7.83954V110.26H15.1495V117.57H22.4595V124.89H29.7695V139.51H44.3895V102.95H22.4595V81.02H15.1495Z" fill="#949AAF"/>
<path d="M124.818 37.1498V51.7698H132.128V59.0798H139.438V73.7098H146.748V88.3298H154.058V124.89H146.748V132.2H139.438V139.51H124.818V146.82H117.498V161.44H80.9484V154.13H59.0084V146.82H44.3884V132.2H29.7684V117.57H22.4584V102.95H15.1484V73.7098H29.7684H37.0784V88.3298H51.6984H66.3284V81.0199H80.9484V66.3998H95.5684V59.0798H102.878V7.90984H110.188V0.589844H132.128V7.90984H139.438V37.1498H124.818Z" fill="white"/>
<path d="M139.439 15.2197H146.749V22.5297H154.059H161.369V29.8397H146.749V37.1497H132.129V29.8397H139.439V15.2197Z" fill="#FFB031"/>
<path d="M124.818 95.6396H117.498V102.95H110.188V110.26H102.878V124.89H88.2578V132.2H73.6378V124.89H66.3278V117.57H59.0078V124.89H66.3278V132.2H73.6378V139.51H88.2578V132.2H102.878V124.89H110.188V110.26H117.498V102.95H124.818V95.6396Z" fill="#CACEE0"/>
<path d="M132.126 15.2197H124.816V22.5297H132.126V15.2197Z" fill="#CACEE0"/>
<path d="M132.126 15.2197H124.816V22.5297H132.126V15.2197Z" fill="#28211C"/>
<path d="M132.126 176.07H117.496V168.75H110.186V161.44H102.876V154.13H95.5664V161.44H102.876V168.75H110.186V176.07H102.876V183.38H132.126V176.07Z" fill="#722626"/>
<path d="M95.5678 176.07H80.9478V168.75H73.6378V161.44H66.3278V154.13H59.0078V161.44H66.3278V168.75H73.6378V176.07H66.3278V183.38H95.5678V176.07Z" fill="#722626"/>
</svg>
