<svg width="223" height="126" viewBox="0 0 223 126" fill="none" xmlns="http://www.w3.org/2000/svg">
<path d="M17.8398 62.9497V71.8297V80.6997H26.7198V116.22H35.5898V62.9497H17.8398Z" fill="#722626"/>
<path d="M106.617 89.5801V98.4601H115.487V116.22H124.367V89.5801H106.617Z" fill="#722626"/>
<path d="M151.01 0.799805H124.37V9.67981H71.0998V0.799805H44.4698V9.67981H35.5898V18.5598H26.7198V27.4398H17.8398V62.9498H26.7198V80.6998H35.5898V125.1H44.4698V107.34H53.3498V98.4598H62.2298V89.5798H115.49V98.4598H124.37V125.1H133.25V107.34H142.13V98.4598H151.01V89.5798H159.89V80.6998H168.76V89.5798H177.64V98.4598H204.27V89.5798H213.15H222.03V62.9498H213.15V45.1898H204.27V36.3098V9.67981H195.4V18.5598H186.52H177.64V9.67981H159.89V0.799805H151.01Z" fill="#9B3A38"/>
<path d="M142.129 45.1899H151.009V54.0699H159.889V62.95H168.759V71.8299H159.889V62.95H151.009V54.0699H142.129V45.1899Z" fill="#AB403E"/>
<path d="M97.7383 71.8301H106.618V80.7001H115.488V89.5801H124.368V98.4601H115.488V89.5801H106.618V80.7001H97.7383V71.8301Z" fill="#AB403E"/>
<path d="M186.517 36.3101H177.637V45.1901H186.517V36.3101Z" fill="#28211C"/>
<path d="M213.157 36.3101H204.277V45.1901H213.157V36.3101Z" fill="#28211C"/>
<path d="M213.148 62.9497H204.268V71.8297H195.398V89.5797H222.028V62.9497H213.148Z" fill="#AB403E"/>
<path d="M204.278 80.6997H195.398V89.5797H204.278V80.6997Z" fill="#722626"/>
<path d="M222.028 80.6997H213.148V89.5797H222.028V80.6997Z" fill="#722626"/>
<path d="M35.5881 36.3101V27.4401H26.7181V18.5601H8.95813V27.4401H0.078125V45.1901H8.95813V36.3101H17.8381V27.4401H26.7181V36.3101H35.5881Z" fill="#722626"/>
<path d="M53.3477 98.4597V89.5797H62.2277V80.6997H71.0977V89.5797H62.2277V98.4597H53.3477Z" fill="#AB403E"/>
</svg>
