<svg width="147" height="170" viewBox="0 0 147 170" fill="none" xmlns="http://www.w3.org/2000/svg">
<path d="M15.3583 66.7097H8.04828V74.0197H0.738281V103.26H8.04828V110.57H22.6683V125.2H29.9783V139.82H37.2983V147.13H44.6083V154.44H81.1583V147.13H88.4783V139.82H103.098V125.2H110.408V103.26H117.718V95.9497H125.028V88.6397H139.648V81.3297H146.968V30.1497H139.648V22.8397H132.338V15.5297H125.028V8.21973H110.408V15.5297H103.098V22.8397H95.7883V44.7697H88.4783V52.0797H81.1583V59.3997V66.7097H66.5383H59.2283V59.3997H51.9183V52.0797H44.6083V22.8397H37.2983V15.5297H15.3583V22.8397H8.04828V37.4597H15.3583V66.7097Z" fill="#9B3A38"/>
<path d="M8.04828 22.8397V15.5297H0.738281V8.21967H8.04828V0.909668H29.9783V8.21967H37.2983V15.5297H44.6083V22.8397H51.9183V37.4597V52.0797H37.2983V30.1497L8.04828 22.8397Z" fill="#722626"/>
<path d="M51.9169 59.3998V66.7098H44.6069V74.0198H37.2969V81.3298H29.9769V74.0198H15.3569V37.4598H8.04688V22.8398H15.3569V15.5298H37.2969V22.8398H44.6069V52.0798H51.9169V59.3998Z" fill="#F0923D"/>
<path d="M44.6094 88.6396H51.9194V95.9496H59.2294V103.26H66.5394V117.89H81.1594V110.57H88.4794V103.26H95.7894V110.57H88.4794V117.89H81.1594V125.2H66.5394V117.89H59.2294V103.26H51.9194V95.9496H44.6094V88.6396Z" fill="#722626"/>
<path d="M15.3583 30.1499H8.04828V37.4599H0.738281V44.7699H8.04828H15.3583V30.1499Z" fill="#FFB031"/>
<path d="M29.978 22.8398H22.668V30.1498H29.978V22.8398Z" fill="#28211C"/>
<path d="M15.3583 66.71V95.95H22.6683V110.57H8.04828V103.26H0.738281V74.02H8.04828V66.71H15.3583Z" fill="#722626"/>
<path d="M44.6066 147.13V154.44H37.2966V161.75H29.9766V169.07H37.2966V161.75H44.6066V169.07H51.9166V161.75H44.6066V154.44H51.9166V147.13H44.6066Z" fill="#28211C"/>
<path d="M73.8466 147.13V154.44H66.5366V161.75H59.2266V169.07H66.5366V161.75H73.8466V169.07H81.1566V161.75H73.8466V154.44H81.1566V147.13H73.8466Z" fill="#28211C"/>
<path d="M81.1562 59.4001V52.0801H88.4762V59.4001H103.096V66.7101H117.716V81.3301H125.026V88.6401H132.336V95.9501H125.026V88.6401H117.716V81.3301H110.406V74.0201H103.096V66.7101H88.4762V59.4001H81.1562Z" fill="#F0923D"/>
<path d="M81.1577 66.7099H88.4776V74.0199H95.7876V88.6399H103.098V110.57H110.408V117.89H117.718V125.2H125.028H132.338V110.57H125.028V103.26V95.9499H110.408V81.3299H103.098V74.0199H95.7876V59.3999H73.8477V66.7099H81.1577Z" fill="#FFB031"/>
<path d="M132.336 30.1499H125.026V37.4599H117.716V44.7699H110.406V59.3999H117.716V44.7699H125.026V37.4599H132.336V30.1499Z" fill="#722626"/>
</svg>
