<svg width="199" height="155" viewBox="0 0 199 155" fill="none" xmlns="http://www.w3.org/2000/svg">
<path d="M73.7397 29.7996V22.4896H59.1197V15.1796H51.8097V7.86963H44.4997H37.1797V22.4896V29.7996H73.7397Z" fill="#28211C"/>
<path d="M110.299 95.5996V102.92H102.979V110.23H95.6694V146.78H88.3594V95.5996H110.299Z" fill="#382210"/>
<path d="M124.918 95.5996V110.23H132.228V146.78H139.538V95.5996H124.918Z" fill="#382210"/>
<path d="M15.2475 0.560059H7.9375V29.8101H15.2475V0.560059Z" fill="#382210"/>
<path d="M22.56 15.1797H15.25V29.7997H22.56V15.1797Z" fill="#382210"/>
<path d="M168.789 44.4301V37.11H154.159V29.8H110.299V37.11H81.0489V29.8H73.7389H59.1189V22.4901H44.4989V15.1801H37.1789V7.87006H29.8689V0.560059H22.5589V22.4901H15.2489V37.11H7.9389V44.4301H0.628906V59.05H15.2489V66.36H29.8689V59.05H37.1789V51.7401H44.4989V80.9801H51.8089V88.2901H59.1189V110.23H66.4289V117.54H73.7389V154.1H81.0489V110.23H88.3589V95.6001H132.229V110.23H139.539V124.85H146.849V154.1H154.159V110.23H161.479V88.2901H168.789V80.9801H176.099V44.4301H168.789Z" fill="#513418"/>
<path d="M15.2475 29.7998H7.9375V37.1098H15.2475V29.7998Z" fill="#513418"/>
<path d="M29.8686 29.7998H22.5586V37.1098H29.8686V29.7998Z" fill="#28211C"/>
<path d="M7.9389 29.7998H0.628906V37.1098H7.9389V29.7998Z" fill="#28211C"/>
<path d="M7.9389 37.1099H15.2489V44.4299H29.8689V66.3599H15.2489V59.0499H0.628906V44.4299H7.9389V37.1099Z" fill="#754F26"/>
<path d="M117.609 80.98V88.29H124.919V95.6H132.229V88.29H124.919V80.98H117.609Z" fill="#754F26"/>
<path d="M102.979 80.98V88.29H95.6694V95.6H88.3594V88.29H95.6694V80.98H102.979Z" fill="#754F26"/>
<path d="M183.408 66.3597V51.7397H176.098V59.0497V73.6698H183.408V102.92H190.718V66.3597H183.408Z" fill="#513418"/>
<path d="M190.716 95.5996H183.406V102.91H190.716V95.5996Z" fill="#28211C"/>
<path d="M183.408 88.29H176.098V95.6H183.408V88.29Z" fill="#28211C"/>
<path d="M198.029 88.29H190.719V95.6H198.029V88.29Z" fill="#28211C"/>
</svg>
