<svg width="20" height="20" viewBox="0 0 20 20" fill="none" xmlns="http://www.w3.org/2000/svg">
<g clip-path="url(#clip0_2129_1198)">
<path fill-rule="evenodd" clip-rule="evenodd" d="M10.0004 0.416504C7.62639 0.417736 5.33025 1.25855 3.52253 2.78861C1.71482 4.31866 0.513395 6.43818 0.133096 8.76817C-0.247203 11.0982 0.218415 13.4867 1.4467 15.5067C2.67499 17.5266 4.58584 19.0463 6.83758 19.794C7.33436 19.8862 7.52147 19.5783 7.52147 19.3165C7.52147 19.0547 7.51153 18.2957 7.50822 17.4659C4.72631 18.0668 4.13846 16.2919 4.13846 16.2919C3.68475 15.1394 3.02901 14.8364 3.02901 14.8364C2.12157 14.2206 3.0969 14.2322 3.0969 14.2322C4.10204 14.303 4.63027 15.2579 4.63027 15.2579C5.52115 16.7776 6.97006 16.338 7.53969 16.0812C7.6291 15.4374 7.88909 14.9994 8.17556 14.7508C5.95333 14.5005 3.61851 13.6477 3.61851 9.83769C3.60473 8.8496 3.97349 7.89405 4.64849 7.16874C4.54582 6.91847 4.20304 5.90753 4.74618 4.53436C4.74618 4.53436 5.58573 4.26763 7.49664 5.55354C9.1357 5.10786 10.865 5.10786 12.5041 5.55354C14.4133 4.26763 15.2512 4.53436 15.2512 4.53436C15.796 5.90424 15.4533 6.91518 15.3506 7.16874C16.0277 7.89416 16.3972 8.85138 16.3822 9.84098C16.3822 13.6592 14.0424 14.5005 11.8169 14.7459C12.1746 15.0554 12.4942 15.6597 12.4942 16.5883C12.4942 17.9186 12.4826 18.9889 12.4826 19.3165C12.4826 19.5816 12.663 19.8911 13.1698 19.794C15.4218 19.0462 17.3328 17.5263 18.5611 15.5059C19.7893 13.4856 20.2547 11.0968 19.874 8.76655C19.4932 6.43634 18.2912 4.3168 16.4829 2.78701C14.6746 1.25722 12.3779 0.416955 10.0037 0.416504H10.0004Z" fill="black"/>
<path d="M3.78729 14.6935C3.76577 14.7429 3.68628 14.7577 3.6217 14.7232C3.55712 14.6886 3.50911 14.6244 3.53229 14.5733C3.55547 14.5223 3.6333 14.5091 3.69788 14.5437C3.76246 14.5783 3.81213 14.6441 3.78729 14.6935Z" fill="black"/>
<path d="M4.19237 15.1428C4.15807 15.16 4.11884 15.1648 4.08138 15.1563C4.04393 15.1479 4.01058 15.1268 3.98703 15.0967C3.92245 15.0275 3.9092 14.932 3.95888 14.8892C4.00855 14.8464 4.09798 14.8662 4.16256 14.9353C4.22714 15.0045 4.24204 15.1 4.19237 15.1428Z" fill="black"/>
<path d="M4.58673 15.7143C4.52546 15.7571 4.42113 15.7143 4.36318 15.6287C4.34715 15.6133 4.33441 15.5949 4.3257 15.5746C4.31699 15.5542 4.3125 15.5323 4.3125 15.5102C4.3125 15.488 4.31699 15.4661 4.3257 15.4457C4.33441 15.4254 4.34715 15.407 4.36318 15.3916C4.42444 15.3504 4.52877 15.3916 4.58673 15.4756C4.64468 15.5595 4.64634 15.6715 4.58673 15.7143Z" fill="black"/>
<path d="M5.12168 16.2674C5.06704 16.3283 4.95609 16.3118 4.86502 16.2295C4.77394 16.1472 4.75241 16.0352 4.80706 15.9759C4.8617 15.9167 4.97265 15.9331 5.06703 16.0138C5.16142 16.0945 5.17964 16.2081 5.12168 16.2674Z" fill="black"/>
<path d="M5.87149 16.5903C5.84665 16.6677 5.73404 16.7023 5.62144 16.6694C5.50884 16.6364 5.43433 16.5442 5.45585 16.4652C5.47738 16.3862 5.59164 16.3499 5.7059 16.3862C5.82015 16.4224 5.89301 16.5096 5.87149 16.5903Z" fill="black"/>
<path d="M6.68962 16.6459C6.68962 16.7266 6.59689 16.7957 6.47767 16.7974C6.35844 16.799 6.26074 16.7332 6.26074 16.6525C6.26074 16.5718 6.35347 16.5027 6.47269 16.501C6.59192 16.4994 6.68962 16.5636 6.68962 16.6459Z" fill="black"/>
<path d="M7.45166 16.5194C7.46656 16.6001 7.38377 16.6841 7.26454 16.7038C7.14532 16.7236 7.041 16.6758 7.02609 16.5968C7.01119 16.5178 7.0973 16.4322 7.21321 16.4108C7.32912 16.3894 7.43676 16.4387 7.45166 16.5194Z" fill="black"/>
</g>
<defs>
<clipPath id="clip0_2129_1198">
<rect width="20" height="20" fill="white"/>
</clipPath>
</defs>
</svg>
