<svg width="531" height="531" viewBox="0 0 531 531" fill="none" xmlns="http://www.w3.org/2000/svg">
<path d="M272.013 459.016C379.158 459.016 466.016 372.158 466.016 265.013C466.016 157.868 379.158 71.01 272.013 71.01C164.868 71.01 78.0098 157.868 78.0098 265.013C78.0098 372.158 164.868 459.016 272.013 459.016Z" fill="url(#paint0_linear_2129_439)"/>
<path d="M459.406 214.802C431.674 111.308 325.295 49.8896 221.801 77.6208C118.307 105.352 56.8892 211.731 84.6203 315.225C112.351 418.719 218.731 480.137 322.225 452.406C425.719 424.675 487.137 318.296 459.406 214.802Z" fill="url(#paint1_linear_2129_439)"/>
<path d="M168.012 97.0016C75.2214 150.574 43.4291 269.224 97.0016 362.015C150.574 454.805 269.225 486.597 362.015 433.025C454.805 379.452 486.597 260.802 433.025 168.012C379.452 75.2214 260.802 43.4291 168.012 97.0016Z" fill="url(#paint2_linear_2129_439)"/>
<defs>
<linearGradient id="paint0_linear_2129_439" x1="272.013" y1="71.01" x2="262.371" y2="330.967" gradientUnits="userSpaceOnUse">
<stop stop-color="#2FEFB1"/>
<stop offset="1" stop-color="#2FEFB1" stop-opacity="0"/>
</linearGradient>
<linearGradient id="paint1_linear_2129_439" x1="84.6203" y1="315.225" x2="338.215" y2="257.257" gradientUnits="userSpaceOnUse">
<stop stop-color="#FF3344"/>
<stop offset="0.0001" stop-color="#FE3445" stop-opacity="0.973958"/>
<stop offset="1" stop-color="#D4555D" stop-opacity="0"/>
</linearGradient>
<linearGradient id="paint2_linear_2129_439" x1="362.015" y1="433.025" x2="240.387" y2="203.075" gradientUnits="userSpaceOnUse">
<stop stop-color="#4857EC"/>
<stop offset="1" stop-color="#4857EC" stop-opacity="0"/>
</linearGradient>
</defs>
</svg>
