<svg width="17" height="20" viewBox="0 0 17 20" fill="none" xmlns="http://www.w3.org/2000/svg">
<path d="M3.36249 14.95L3.41874 15.625L3.47499 16.3V16.3C3.60217 17.8261 4.87793 19 6.40935 19H9.93959C11.4999 19 12.7997 17.804 12.9292 16.2491L13.6 8.2H2.79999L3.02499 10.9L3.08124 11.575" stroke="white" stroke-width="1.5" stroke-linecap="round"/>
<circle r="1.8" transform="matrix(-1 0 0 1 8.2 13.6)" stroke="white" stroke-width="1.5"/>
<path d="M1 6.40001C1 5.40589 1.80589 4.60001 2.8 4.60001H13.6C14.5941 4.60001 15.4 5.40589 15.4 6.40001V6.40001C15.4 7.39412 14.5941 8.20001 13.6 8.20001H2.8C1.80589 8.20001 1 7.39412 1 6.40001V6.40001Z" stroke="white" stroke-width="1.5"/>
<path d="M7.29999 1H4.79999C3.69542 1 2.79999 1.89543 2.79999 3V3.6C2.79999 4.15228 3.2477 4.6 3.79999 4.6H12.6C13.1523 4.6 13.6 4.15228 13.6 3.6V3C13.6 1.89543 12.7046 1 11.6 1H10.9" stroke="white" stroke-width="1.5" stroke-linecap="round"/>
</svg>
