<svg width="30" height="30" viewBox="0 0 30 30" fill="none" xmlns="http://www.w3.org/2000/svg">
<path d="M12.36 12.585C11.505 12.585 10.83 13.335 10.83 14.25C10.83 15.165 11.52 15.915 12.36 15.915C13.215 15.915 13.89 15.165 13.89 14.25C13.905 13.335 13.215 12.585 12.36 12.585ZM17.835 12.585C16.98 12.585 16.305 13.335 16.305 14.25C16.305 15.165 16.995 15.915 17.835 15.915C18.69 15.915 19.365 15.165 19.365 14.25C19.365 13.335 18.69 12.585 17.835 12.585Z" fill="#5A5A5A"/>
<path d="M25.125 0H5.02501C3.33001 0 1.95001 1.38 1.95001 3.09V23.37C1.95001 25.08 3.33001 26.46 5.02501 26.46H22.035L21.24 23.685L23.16 25.47L24.975 27.15L28.2 30V3.09C28.2 1.38 26.82 0 25.125 0ZM19.335 19.59C19.335 19.59 18.795 18.945 18.345 18.375C20.31 17.82 21.06 16.59 21.06 16.59C20.445 16.995 19.86 17.28 19.335 17.475C18.585 17.79 17.865 18 17.16 18.12C15.72 18.39 14.4 18.315 13.275 18.105C12.42 17.94 11.685 17.7 11.07 17.46C10.725 17.325 10.35 17.16 9.97501 16.95C9.93001 16.92 9.88501 16.905 9.84001 16.875C9.81001 16.86 9.79501 16.845 9.78001 16.83C9.51001 16.68 9.36001 16.575 9.36001 16.575C9.36001 16.575 10.08 17.775 11.985 18.345C11.535 18.915 10.98 19.59 10.98 19.59C7.66501 19.485 6.40501 17.31 6.40501 17.31C6.40501 12.48 8.56501 8.565 8.56501 8.565C10.725 6.945 12.78 6.99 12.78 6.99L12.93 7.17C10.23 7.95 8.98501 9.135 8.98501 9.135C8.98501 9.135 9.31501 8.955 9.87001 8.7C11.475 7.995 12.75 7.8 13.275 7.755C13.365 7.74 13.44 7.725 13.53 7.725C14.445 7.605 15.48 7.575 16.56 7.695C17.985 7.86 19.515 8.28 21.075 9.135C21.075 9.135 19.89 8.01 17.34 7.23L17.55 6.99C17.55 6.99 19.605 6.945 21.765 8.565C21.765 8.565 23.925 12.48 23.925 17.31C23.925 17.31 22.65 19.485 19.335 19.59V19.59Z" fill="#5A5A5A"/>
</svg>
