<svg width="650" height="30" viewBox="0 0 650 30" fill="none" xmlns="http://www.w3.org/2000/svg">
<rect width="650" height="30" fill="white"/>
<path fill-rule="evenodd" clip-rule="evenodd" d="M15 0C6.71909 0 0 6.71909 0 15C0 23.2809 6.71909 30 15 30C23.2646 30 30 23.2809 30 15C30 6.71909 23.2646 0 15 0ZM24.9078 6.91432C26.6974 9.09436 27.7712 11.8763 27.8037 14.8861C27.3807 14.8048 23.1507 13.9425 18.8883 14.4794C18.7907 14.2679 18.7093 14.0401 18.6117 13.8124C18.3514 13.1942 18.0586 12.5597 17.7657 11.9577C22.4837 10.038 24.6312 7.27223 24.9078 6.91432ZM15 2.21258C18.2538 2.21258 21.231 3.43276 23.4924 5.43384C23.2646 5.75922 21.3286 8.34599 16.7733 10.0542C14.6746 6.19848 12.3482 3.0423 11.9903 2.55423C12.9501 2.32646 13.9588 2.21258 15 2.21258ZM9.54994 3.41648C9.89156 3.87202 12.1692 7.04447 14.3004 10.8188C8.31345 12.4133 3.02603 12.3807 2.45662 12.3807C3.28633 8.41106 5.97071 5.10846 9.54994 3.41648ZM2.18004 15.0163C2.18004 14.8861 2.18004 14.756 2.18004 14.6258C2.73319 14.6421 8.94794 14.7234 15.3416 12.8037C15.7159 13.5195 16.0575 14.2516 16.3829 14.9837C16.2202 15.0325 16.0412 15.0814 15.8785 15.1301C9.27332 17.2613 5.75922 23.0857 5.46638 23.5737C3.43275 21.3124 2.18004 18.3026 2.18004 15.0163ZM15 27.8199C12.039 27.8199 9.30586 26.8113 7.14208 25.1193C7.36985 24.6475 9.97284 19.6367 17.1963 17.115C17.2288 17.0987 17.2451 17.0987 17.2777 17.0825C19.0835 21.7516 19.8157 25.6724 20.0108 26.795C18.4653 27.462 16.7733 27.8199 15 27.8199ZM22.1421 25.6237C22.0119 24.8427 21.3286 21.1009 19.6529 16.4967C23.6714 15.8622 27.1854 16.9035 27.6248 17.0499C27.0716 20.6128 25.0217 23.6876 22.1421 25.6237Z" fill="#5A5A5A"/>
<g clip-path="url(#clip0_1545_1759)">
<path d="M369.438 27.1875C380.756 27.1875 386.948 17.8084 386.948 9.67739C386.948 9.41372 386.942 9.14418 386.93 8.88051C388.135 8.00939 389.174 6.93038 390 5.69418C388.878 6.19331 387.687 6.51929 386.467 6.66098C387.752 5.8912 388.713 4.6819 389.174 3.25727C387.966 3.97326 386.644 4.47833 385.267 4.75082C384.339 3.76451 383.111 3.11146 381.775 2.89262C380.438 2.67379 379.066 2.90137 377.872 3.54018C376.678 4.17899 375.727 5.19344 375.167 6.4267C374.607 7.65996 374.469 9.04333 374.774 10.3629C372.328 10.2402 369.935 9.60469 367.75 8.49768C365.565 7.39068 363.637 5.83686 362.091 3.93696C361.305 5.29162 361.065 6.89462 361.419 8.42017C361.773 9.94573 362.694 11.2794 363.996 12.15C363.018 12.119 362.062 11.8559 361.207 11.3825V11.4586C361.206 12.8802 361.698 14.2583 362.598 15.3585C363.498 16.4588 364.752 17.2133 366.145 17.4938C365.24 17.7415 364.29 17.7776 363.369 17.5993C363.762 18.8219 364.527 19.8912 365.557 20.658C366.587 21.4248 367.831 21.8508 369.115 21.8766C366.936 23.5889 364.243 24.5177 361.471 24.5133C360.979 24.5126 360.488 24.4824 360 24.4231C362.816 26.2297 366.092 27.1893 369.438 27.1875Z" fill="#5A5A5A"/>
</g>
<path d="M112.36 12.585C111.505 12.585 110.83 13.335 110.83 14.25C110.83 15.165 111.52 15.915 112.36 15.915C113.215 15.915 113.89 15.165 113.89 14.25C113.905 13.335 113.215 12.585 112.36 12.585ZM117.835 12.585C116.98 12.585 116.305 13.335 116.305 14.25C116.305 15.165 116.995 15.915 117.835 15.915C118.69 15.915 119.365 15.165 119.365 14.25C119.365 13.335 118.69 12.585 117.835 12.585Z" fill="#5A5A5A"/>
<path d="M125.125 0H105.025C103.33 0 101.95 1.38 101.95 3.09V23.37C101.95 25.08 103.33 26.46 105.025 26.46H122.035L121.24 23.685L123.16 25.47L124.975 27.15L128.2 30V3.09C128.2 1.38 126.82 0 125.125 0ZM119.335 19.59C119.335 19.59 118.795 18.945 118.345 18.375C120.31 17.82 121.06 16.59 121.06 16.59C120.445 16.995 119.86 17.28 119.335 17.475C118.585 17.79 117.865 18 117.16 18.12C115.72 18.39 114.4 18.315 113.275 18.105C112.42 17.94 111.685 17.7 111.07 17.46C110.725 17.325 110.35 17.16 109.975 16.95C109.93 16.92 109.885 16.905 109.84 16.875C109.81 16.86 109.795 16.845 109.78 16.83C109.51 16.68 109.36 16.575 109.36 16.575C109.36 16.575 110.08 17.775 111.985 18.345C111.535 18.915 110.98 19.59 110.98 19.59C107.665 19.485 106.405 17.31 106.405 17.31C106.405 12.48 108.565 8.565 108.565 8.565C110.725 6.945 112.78 6.99 112.78 6.99L112.93 7.17C110.23 7.95 108.985 9.135 108.985 9.135C108.985 9.135 109.315 8.955 109.87 8.7C111.475 7.995 112.75 7.8 113.275 7.755C113.365 7.74 113.44 7.725 113.53 7.725C114.445 7.605 115.48 7.575 116.56 7.695C117.985 7.86 119.515 8.28 121.075 9.135C121.075 9.135 119.89 8.01 117.34 7.23L117.55 6.99C117.55 6.99 119.605 6.945 121.765 8.565C121.765 8.565 123.925 12.48 123.925 17.31C123.925 17.31 122.65 19.485 119.335 19.59V19.59Z" fill="#5A5A5A"/>
<g clip-path="url(#clip1_1545_1759)">
<path d="M505 2.70117C509.008 2.70117 509.482 2.71875 511.059 2.78906C512.523 2.85352 513.314 3.09961 513.842 3.30469C514.539 3.57422 515.043 3.90234 515.564 4.42383C516.092 4.95117 516.414 5.44922 516.684 6.14648C516.889 6.67383 517.135 7.4707 517.199 8.92969C517.27 10.5117 517.287 10.9863 517.287 14.9883C517.287 18.9961 517.27 19.4707 517.199 21.0469C517.135 22.5117 516.889 23.3027 516.684 23.8301C516.414 24.5273 516.086 25.0313 515.564 25.5527C515.037 26.0801 514.539 26.4023 513.842 26.6719C513.314 26.877 512.518 27.123 511.059 27.1875C509.477 27.2578 509.002 27.2754 505 27.2754C500.992 27.2754 500.518 27.2578 498.941 27.1875C497.477 27.123 496.686 26.877 496.158 26.6719C495.461 26.4023 494.957 26.0742 494.436 25.5527C493.908 25.0254 493.586 24.5273 493.316 23.8301C493.111 23.3027 492.865 22.5059 492.801 21.0469C492.73 19.4648 492.713 18.9902 492.713 14.9883C492.713 10.9805 492.73 10.5059 492.801 8.92969C492.865 7.46484 493.111 6.67383 493.316 6.14648C493.586 5.44922 493.914 4.94531 494.436 4.42383C494.963 3.89648 495.461 3.57422 496.158 3.30469C496.686 3.09961 497.482 2.85352 498.941 2.78906C500.518 2.71875 500.992 2.70117 505 2.70117ZM505 0C500.928 0 500.418 0.0175781 498.818 0.0878906C497.225 0.158203 496.129 0.416016 495.18 0.785156C494.189 1.17187 493.352 1.68164 492.52 2.51953C491.682 3.35156 491.172 4.18945 490.785 5.17383C490.416 6.12891 490.158 7.21875 490.088 8.8125C490.018 10.418 490 10.9277 490 15C490 19.0723 490.018 19.582 490.088 21.1816C490.158 22.7754 490.416 23.8711 490.785 24.8203C491.172 25.8105 491.682 26.6484 492.52 27.4805C493.352 28.3125 494.189 28.8281 495.174 29.209C496.129 29.5781 497.219 29.8359 498.813 29.9062C500.412 29.9766 500.922 29.9941 504.994 29.9941C509.066 29.9941 509.576 29.9766 511.176 29.9062C512.77 29.8359 513.865 29.5781 514.814 29.209C515.799 28.8281 516.637 28.3125 517.469 27.4805C518.301 26.6484 518.816 25.8105 519.197 24.8262C519.566 23.8711 519.824 22.7813 519.895 21.1875C519.965 19.5879 519.982 19.0781 519.982 15.0059C519.982 10.9336 519.965 10.4238 519.895 8.82422C519.824 7.23047 519.566 6.13477 519.197 5.18555C518.828 4.18945 518.318 3.35156 517.48 2.51953C516.648 1.6875 515.811 1.17188 514.826 0.791016C513.871 0.421875 512.781 0.164063 511.188 0.09375C509.582 0.0175781 509.072 0 505 0Z" fill="#5A5A5A"/>
<path d="M505 7.29492C500.746 7.29492 497.295 10.7461 497.295 15C497.295 19.2539 500.746 22.7051 505 22.7051C509.254 22.7051 512.705 19.2539 512.705 15C512.705 10.7461 509.254 7.29492 505 7.29492ZM505 19.998C502.24 19.998 500.002 17.7598 500.002 15C500.002 12.2402 502.24 10.002 505 10.002C507.76 10.002 509.998 12.2402 509.998 15C509.998 17.7598 507.76 19.998 505 19.998Z" fill="#5A5A5A"/>
<path d="M514.809 6.99018C514.809 7.98627 514 8.78901 513.01 8.78901C512.014 8.78901 511.211 7.98041 511.211 6.99018C511.211 5.99408 512.02 5.19135 513.01 5.19135C514 5.19135 514.809 5.99994 514.809 6.99018Z" fill="#5A5A5A"/>
</g>
<g clip-path="url(#clip2_1545_1759)">
<path d="M260 15C260 6.71572 253.284 0 245 0C236.716 0 230 6.71572 230 15C230 22.4868 235.485 28.6925 242.656 29.8178V19.3359H238.848V15H242.656V11.6953C242.656 7.93594 244.896 5.85938 248.322 5.85938C249.963 5.85938 251.68 6.15234 251.68 6.15234V9.84375H249.788C247.925 9.84375 247.344 11.0001 247.344 12.1875V15H251.504L250.839 19.3359H247.344V29.8178C254.515 28.6925 260 22.4868 260 15Z" fill="#5A5A5A"/>
</g>
<path d="M649.701 9.00006C649.701 9.00006 649.408 6.9317 648.506 6.0235C647.363 4.82819 646.086 4.82233 645.5 4.75201C641.305 4.44733 635.006 4.44733 635.006 4.44733H634.994C634.994 4.44733 628.695 4.44733 624.5 4.75201C623.914 4.82233 622.637 4.82819 621.494 6.0235C620.592 6.9317 620.305 9.00006 620.305 9.00006C620.305 9.00006 620 11.4317 620 13.8575V16.1309C620 18.5567 620.299 20.9883 620.299 20.9883C620.299 20.9883 620.592 23.0567 621.488 23.9649C622.631 25.1602 624.131 25.1192 624.799 25.2481C627.201 25.4766 635 25.5469 635 25.5469C635 25.5469 641.305 25.5352 645.5 25.2364C646.086 25.1661 647.363 25.1602 648.506 23.9649C649.408 23.0567 649.701 20.9883 649.701 20.9883C649.701 20.9883 650 18.5626 650 16.1309V13.8575C650 11.4317 649.701 9.00006 649.701 9.00006ZM631.9 18.8907V10.459L640.004 14.6895L631.9 18.8907Z" fill="#5A5A5A"/>
<defs>
<clipPath id="clip0_1545_1759">
<rect width="30" height="30" fill="white" transform="translate(360)"/>
</clipPath>
<clipPath id="clip1_1545_1759">
<rect width="30" height="30" fill="white" transform="translate(490)"/>
</clipPath>
<clipPath id="clip2_1545_1759">
<rect width="30" height="30" fill="white" transform="translate(230)"/>
</clipPath>
</defs>
</svg>
