<svg width="50" height="10" viewBox="0 0 50 10" fill="none" xmlns="http://www.w3.org/2000/svg">
<path d="M4.71468 0.878115C4.80449 0.601722 5.19551 0.601722 5.28532 0.878115L6.05522 3.24762C6.09538 3.37123 6.21056 3.45492 6.34053 3.45492H8.83198C9.12259 3.45492 9.24343 3.8268 9.00831 3.99762L6.99269 5.46205C6.88755 5.53845 6.84355 5.67386 6.88371 5.79746L7.65361 8.16697C7.74342 8.44336 7.42707 8.6732 7.19196 8.50238L5.17634 7.03795C5.07119 6.96155 4.92881 6.96155 4.82366 7.03795L2.80804 8.50238C2.57293 8.6732 2.25659 8.44336 2.34639 8.16697L3.11629 5.79746C3.15645 5.67386 3.11245 5.53845 3.00731 5.46205L0.991687 3.99762C0.756573 3.8268 0.877406 3.45492 1.16802 3.45492H3.65947C3.78944 3.45492 3.90462 3.37123 3.94478 3.24762L4.71468 0.878115Z" fill="#FFF0BA"/>
<path d="M14.7147 0.878115C14.8045 0.601722 15.1955 0.601722 15.2853 0.878115L16.0552 3.24762C16.0954 3.37123 16.2106 3.45492 16.3405 3.45492H18.832C19.1226 3.45492 19.2434 3.8268 19.0083 3.99762L16.9927 5.46205C16.8875 5.53845 16.8435 5.67386 16.8837 5.79746L17.6536 8.16697C17.7434 8.44336 17.4271 8.6732 17.192 8.50238L15.1763 7.03795C15.0712 6.96155 14.9288 6.96155 14.8237 7.03795L12.808 8.50238C12.5729 8.6732 12.2566 8.44336 12.3464 8.16697L13.1163 5.79746C13.1565 5.67386 13.1125 5.53845 13.0073 5.46205L10.9917 3.99762C10.7566 3.8268 10.8774 3.45492 11.168 3.45492H13.6595C13.7894 3.45492 13.9046 3.37123 13.9448 3.24762L14.7147 0.878115Z" fill="#FFF0BA"/>
<path d="M24.7147 0.878115C24.8045 0.601722 25.1955 0.601722 25.2853 0.878115L26.0552 3.24762C26.0954 3.37123 26.2106 3.45492 26.3405 3.45492H28.832C29.1226 3.45492 29.2434 3.8268 29.0083 3.99762L26.9927 5.46205C26.8875 5.53845 26.8435 5.67386 26.8837 5.79746L27.6536 8.16697C27.7434 8.44336 27.4271 8.6732 27.192 8.50238L25.1763 7.03795C25.0712 6.96155 24.9288 6.96155 24.8237 7.03795L22.808 8.50238C22.5729 8.6732 22.2566 8.44336 22.3464 8.16697L23.1163 5.79746C23.1565 5.67386 23.1125 5.53845 23.0073 5.46205L20.9917 3.99762C20.7566 3.8268 20.8774 3.45492 21.168 3.45492H23.6595C23.7894 3.45492 23.9046 3.37123 23.9448 3.24762L24.7147 0.878115Z" fill="#FFF0BA"/>
<path d="M34.7147 0.878115C34.8045 0.601722 35.1955 0.601722 35.2853 0.878115L36.0552 3.24762C36.0954 3.37123 36.2106 3.45492 36.3405 3.45492H38.832C39.1226 3.45492 39.2434 3.8268 39.0083 3.99762L36.9927 5.46205C36.8875 5.53845 36.8435 5.67386 36.8837 5.79746L37.6536 8.16697C37.7434 8.44336 37.4271 8.6732 37.192 8.50238L35.1763 7.03795C35.0712 6.96155 34.9288 6.96155 34.8237 7.03795L32.808 8.50238C32.5729 8.6732 32.2566 8.44336 32.3464 8.16697L33.1163 5.79746C33.1565 5.67386 33.1125 5.53845 33.0073 5.46205L30.9917 3.99762C30.7566 3.8268 30.8774 3.45492 31.168 3.45492H33.6595C33.7894 3.45492 33.9046 3.37123 33.9448 3.24762L34.7147 0.878115Z" fill="#FFF0BA"/>
<path d="M44.7147 0.878115C44.8045 0.601722 45.1955 0.601722 45.2853 0.878115L46.0552 3.24762C46.0954 3.37123 46.2106 3.45492 46.3405 3.45492H48.832C49.1226 3.45492 49.2434 3.8268 49.0083 3.99762L46.9927 5.46205C46.8875 5.53845 46.8435 5.67386 46.8837 5.79746L47.6536 8.16697C47.7434 8.44336 47.4271 8.6732 47.192 8.50238L45.1763 7.03795C45.0712 6.96155 44.9288 6.96155 44.8237 7.03795L42.808 8.50238C42.5729 8.6732 42.2566 8.44336 42.3464 8.16697L43.1163 5.79746C43.1565 5.67386 43.1125 5.53845 43.0073 5.46205L40.9917 3.99762C40.7566 3.8268 40.8774 3.45492 41.168 3.45492H43.6595C43.7894 3.45492 43.9046 3.37123 43.9448 3.24762L44.7147 0.878115Z" fill="#FFF0BA"/>
</svg>
